<?xml version="1.0" standalone="no"?>
<!DOCTYPE svg PUBLIC "-//W3C//DTD SVG 1.1//EN" "http://www.w3.org/Graphics/SVG/1.1/DTD/svg11.dtd" >
<svg xmlns="http://www.w3.org/2000/svg" xmlns:xlink="http://www.w3.org/1999/xlink" version="1.1">
<metadata>
Created by FontForge 20200314 at Wed Sep 17 02:58:50 2014
 By Unknown
Copyright 2010 Reserves
</metadata>
<defs>
<font id="Vanitas-Extrabold" horiz-adv-x="1167" >
  <font-face 
    font-family="Vanitas-Extrabold"
    font-weight="400"
    font-stretch="normal"
    units-per-em="2000"
    panose-1="2 0 0 0 0 0 0 0 0 0"
    ascent="1489"
    descent="-511"
    x-height="886"
    cap-height="1358"
    bbox="-306 -484 2368 1903"
    underline-thickness="70"
    underline-position="-90"
    unicode-range="U+0020-FB06"
  />
<missing-glyph horiz-adv-x="1028" 
d="M127 0v1358h774v-1358h-774zM156 29h715v1300h-715v-1300z" />
    <glyph glyph-name=".notdef" horiz-adv-x="1028" 
d="M127 0v1358h774v-1358h-774zM156 29h715v1300h-715v-1300z" />
    <glyph glyph-name=".null" horiz-adv-x="0" 
 />
    <glyph glyph-name="nonmarkingreturn" horiz-adv-x="666" 
 />
    <glyph glyph-name="space" unicode=" " horiz-adv-x="457" 
 />
    <glyph glyph-name="exclam" unicode="!" horiz-adv-x="410" 
d="M177 312l-50 976q0 96 78 96t78 -96l-50 -976h-56zM111 76q0 39 27.5 66t66.5 27t66.5 -27t27.5 -66t-27.5 -66.5t-66.5 -27.5t-66.5 27.5t-27.5 66.5z" />
    <glyph glyph-name="quotedbl" unicode="&#x22;" horiz-adv-x="577" 
d="M179 906h-49l-33 420q0 33 18 51t44 18t43.5 -18t17.5 -51zM439 906h-49l-33 420q0 33 18 51t44 18t43.5 -18t17.5 -51z" />
    <glyph glyph-name="numbersign" unicode="#" horiz-adv-x="1207" 
d="M110 -66l173 442h-221l72 183h220l94 240h-221l72 183h221l173 442h58l-173 -442h288l173 442h58l-173 -442h221l-72 -183h-221l-94 -240h221l-72 -183h-220l-173 -442h-58l173 442h-288l-173 -442h-58zM412 559h288l94 240h-288z" />
    <glyph glyph-name="dollar" unicode="$" horiz-adv-x="1012" 
d="M99 106v93q5 -5 14 -13.5t39 -32t63 -43t83.5 -39t102.5 -27.5l58 614q-73 53 -112.5 84t-87.5 75.5t-71.5 80t-40 81t-16.5 95.5q0 76 34 135.5t91 95t126 54t146 18.5l16 170h56l-17 -173q53 -5 104.5 -18.5t76.5 -23.5l25 -11v-87q-10 7 -28 18.5t-73 34.5t-110 31
l-47 -488q71 -49 109.5 -77.5t91.5 -71.5t81.5 -76.5t57 -77t40.5 -90t12 -98.5q0 -77 -28 -139t-73 -101.5t-105 -66t-120.5 -37.5t-122.5 -11h-24l-16 -172h-55l17 177q-52 6 -102 20.5t-84 30.5t-60 31t-38 25zM479 866l44 457q-107 0 -178 -52.5t-71 -145.5
q0 -71 46 -125t159 -134zM455 38h23q129 0 206.5 65.5t77.5 178.5q0 87 -56.5 161t-194.5 177z" />
    <glyph glyph-name="percent" unicode="%" horiz-adv-x="1628" 
d="M361 -98l848 1555h57l-848 -1555h-57zM403 712q-147 0 -243.5 95t-96.5 236t96.5 237t243.5 96q146 0 242.5 -96t96.5 -237t-96.5 -236t-242.5 -95zM403 764q51 0 89 25t58.5 67.5t29.5 89t9 97.5t-9 97.5t-29.5 89.5t-58.5 68.5t-89 25.5t-89 -25.5t-58.5 -68.5
t-29.5 -89.5t-9 -97.5t9 -97.5t29.5 -89t58.5 -67.5t89 -25zM886 313q0 141 96.5 237t243.5 96t243 -96t96 -237t-96 -236t-243 -95t-243.5 95t-96.5 236zM1040 313q0 -51 9 -97.5t29.5 -89t58.5 -67.5t89 -25t89 25t58.5 67.5t29.5 89t9 97.5t-9 97.5t-29.5 89.5
t-58.5 68.5t-89 25.5t-89 -25.5t-58.5 -68.5t-29.5 -89.5t-9 -97.5z" />
    <glyph glyph-name="ampersand" unicode="&#x26;" horiz-adv-x="1280" 
d="M1036 0l-85 108q-162 -134 -429 -134q-229 0 -355 99.5t-126 266.5q0 96 37.5 174t110.5 148t204 161l-7 10q-118 152 -118 287q0 118 66 191t195 73q113 0 177 -60t64 -158q0 -85 -52 -152t-153 -138l462 -593q89 148 106 366h52q-21 -251 -122 -412l185 -237h-212z
M531 918q124 101 124 251q0 69 -30 115t-97 46q-66 0 -94.5 -42.5t-28.5 -99.5q0 -35 5 -61t34.5 -80.5t86.5 -128.5zM917 151l-488 626q-206 -171 -206 -412q0 -150 81 -243.5t244 -93.5q224 0 369 123z" />
    <glyph glyph-name="quotesingle" unicode="'" horiz-adv-x="317" 
d="M179 906h-49l-33 420q0 33 18 51t44 18t43.5 -18t17.5 -51z" />
    <glyph glyph-name="parenleft" unicode="(" horiz-adv-x="598" 
d="M109 448v4q0 133 20.5 255t53 210.5t72 164.5t79 125.5t72 84.5t52.5 50l21 16h66q-6 -5 -15.5 -14.5t-36.5 -47t-52 -82.5t-55.5 -122.5t-52.5 -165t-37 -212t-15 -262.5v-4q0 -138 14.5 -262.5t38 -213t51.5 -164t56 -123t51.5 -81.5t37.5 -48l15 -14h-66
q-8 5 -21 15.5t-51.5 50t-73.5 85.5t-78 124.5t-73.5 165.5t-51.5 209.5t-21 255.5z" />
    <glyph glyph-name="parenright" unicode=")" horiz-adv-x="598" 
d="M119 -458h-66q6 5 15.5 14.5t36.5 47t52 82.5t55.5 122.5t52.5 165t37 212t15 262.5v4q0 138 -14.5 262.5t-38 213t-51.5 164t-56 123t-51.5 81.5t-37.5 48l-15 14h66q8 -5 21 -15.5t51.5 -50t73.5 -85.5t78 -124.5t73.5 -165.5t51.5 -209.5t21 -255.5v-4
q0 -133 -20.5 -255t-53 -210.5t-72 -164.5t-79 -125.5t-72 -84.5t-52.5 -50z" />
    <glyph glyph-name="asterisk" unicode="*" horiz-adv-x="877" 
d="M464 1016l30 -274q3 -25 -13.5 -43.5t-41.5 -18.5t-42 18.5t-14 43.5l30 274l-223 -164q-14 -10 -32 -10q-23 0 -39.5 17t-16.5 40q0 37 32 51l254 109l-254 110q-32 14 -32 51q0 24 16.5 40.5t39.5 16.5q18 0 32 -10l223 -164l-30 274q-3 25 13.5 43.5t42.5 18.5
q25 0 41.5 -18.5t13.5 -43.5l-30 -274l223 164q14 10 32 10q23 0 39.5 -16.5t16.5 -40.5q0 -37 -32 -51l-254 -110l254 -109q32 -14 32 -51q0 -23 -16.5 -40t-39.5 -17q-18 0 -32 10z" />
    <glyph glyph-name="plus" unicode="+" horiz-adv-x="1122" 
d="M109 437v53h425v421h54v-421h425v-53h-425v-421h-54v421h-425z" />
    <glyph glyph-name="comma" unicode="," horiz-adv-x="428" 
d="M193 -274v36q3 3 9 8t20.5 22.5t25.5 37t20 50t9 62.5q0 42 -11 71q-27 -31 -67 -31q-39 0 -65.5 24.5t-26.5 64.5q0 43 30 71t76 28q59 0 93.5 -48t34.5 -126q0 -51 -15 -98t-37 -77t-44 -52.5t-37 -32.5z" />
    <glyph glyph-name="hyphen" unicode="-" horiz-adv-x="837" 
d="M109 411v54h619v-54h-619z" />
    <glyph glyph-name="period" unicode="." horiz-adv-x="403" 
d="M107 76q0 39 27.5 66t66.5 27t67 -27t28 -66t-28 -66.5t-67 -27.5t-66.5 27.5t-27.5 66.5z" />
    <glyph glyph-name="slash" unicode="/" horiz-adv-x="839" 
d="M67 -148l649 1655h56l-649 -1655h-56z" />
    <glyph glyph-name="zero" unicode="0" horiz-adv-x="1177" 
d="M588 -26q-95 0 -182.5 48t-156.5 135.5t-110.5 223t-41.5 298.5t41.5 298.5t110.5 223t156.5 135.5t182.5 48t182.5 -48t157 -135.5t111 -223t41.5 -298.5t-41.5 -298.5t-111 -223t-157 -135.5t-182.5 -48zM588 28q152 0 230.5 167.5t78.5 483.5t-79 483.5t-230 167.5
t-229.5 -167.5t-78.5 -483.5q0 -317 78.5 -484t229.5 -167z" />
    <glyph glyph-name="one" unicode="1" horiz-adv-x="1055" 
d="M27 0v54h422v1152l-271 -176v60l449 294v-1330h421v-54h-1021z" />
    <glyph glyph-name="two" unicode="2" horiz-adv-x="1010" 
d="M39 0q13 10 35.5 28.5t87 79t123 124.5t130 160t123 190.5t87 211.5t35.5 227q0 150 -58.5 229.5t-170.5 79.5q-62 0 -117 -24.5t-88 -57t-58.5 -69.5t-35 -57.5t-10.5 -26.5v116q4 7 11.5 18.5t37 41.5t65.5 53t98.5 41.5t133.5 18.5q178 0 274.5 -104.5t96.5 -266.5
q0 -84 -29 -174.5t-68 -163t-102.5 -154.5t-107 -130.5t-108.5 -109t-80.5 -73.5t-48.5 -40h663l-63 -168h-856z" />
    <glyph glyph-name="three" unicode="3" horiz-adv-x="1062" 
d="M97 96v93q6 -8 16 -20t42.5 -39t70 -48t99 -37.5t129.5 -16.5q161 0 257 92.5t96 254.5q0 80 -23.5 154.5t-81 135.5t-141.5 77q-111 -37 -250 -37l14 54q8 5 23 12.5t66 21t107 15.5q149 88 149 282q0 111 -50 175.5t-154 64.5q-61 0 -115.5 -24t-88 -55t-61 -69.5
t-36.5 -57.5t-13 -29v117q4 7 11 18.5t36 41t64 52.5t97 41.5t133 18.5q160 0 253 -83.5t93 -213.5q0 -83 -40.5 -161.5t-127.5 -132.5q145 -37 232.5 -144.5t87.5 -261.5q0 -186 -131 -299.5t-373 -113.5q-80 0 -149 12.5t-111.5 30.5t-73.5 36t-43 31z" />
    <glyph glyph-name="four" unicode="4" horiz-adv-x="1221" 
d="M49 406l794 979v-925h317v-54h-317v-406h-178v406h-616zM165 460h500v620z" />
    <glyph glyph-name="five" unicode="5" horiz-adv-x="1066" 
d="M112 96v91q6 -9 15.5 -20t41 -38.5t67 -47.5t93 -36.5t120.5 -16.5q116 0 196 62t115.5 161t35.5 226q0 195 -89.5 304t-249.5 109q-95 0 -175.5 -39.5t-125.5 -119.5h-42l88 626h673l-59 -168h-585l-49 -355q114 110 297 110q216 0 358 -134.5t142 -338.5
q0 -72 -18 -141.5t-58.5 -134.5t-99 -113.5t-146 -78t-192.5 -29.5q-71 0 -133.5 12.5t-101 30.5t-66.5 36t-40 31z" />
    <glyph glyph-name="six" unicode="6" horiz-adv-x="1119" 
d="M783 1384v-54q-147 -37 -282.5 -172t-203.5 -346q106 132 283 132q91 0 175.5 -33t151 -92.5t106 -152.5t39.5 -205q0 -110 -41.5 -203.5t-110 -154.5t-155 -95t-176.5 -34q-95 0 -181.5 33t-157 96.5t-112 169.5t-41.5 240q0 119 25.5 225t68.5 187t102 150.5t122 119
t134 88.5t132.5 62.5t121.5 38.5zM260 453q0 -198 76.5 -311.5t228.5 -113.5q145 0 224.5 119.5t79.5 311.5q0 196 -76 313.5t-223 117.5q-151 0 -230.5 -118.5t-79.5 -318.5z" />
    <glyph glyph-name="seven" unicode="7" horiz-adv-x="1047" 
d="M224 0l559 1304h-694v54h897l-582 -1358h-180z" />
    <glyph glyph-name="eight" unicode="8" horiz-adv-x="1145" 
d="M67 341q0 77 28.5 143t82 116t116 87t142.5 69q-115 70 -178 146.5t-63 182.5q0 137 106 218t267 81q177 0 273.5 -85.5t96.5 -203.5q0 -95 -64.5 -169.5t-174.5 -124.5q67 -34 112.5 -60.5t100.5 -69t88 -85t55.5 -102t22.5 -127.5q0 -173 -130.5 -278t-372.5 -105
q-231 0 -369.5 97t-138.5 270zM644 830q183 90 183 268q0 106 -64.5 169t-189.5 63q-107 0 -172.5 -56.5t-65.5 -141.5q0 -41 18 -79t42.5 -65t71 -58t81.5 -50t96 -50zM228 345q0 -81 29 -143.5t79.5 -99.5t113 -55.5t133.5 -18.5q157 0 245.5 80t88.5 199q0 39 -11 75
t-27.5 64t-46.5 57.5t-55.5 50t-68 47t-71 42.5t-78 42.5t-75.5 41.5q-120 -60 -188 -157t-68 -225z" />
    <glyph glyph-name="nine" unicode="9" horiz-adv-x="1119" 
d="M336 -26v54q147 37 282 172t203 345q-106 -131 -282 -131q-92 0 -176 33t-150.5 92.5t-106 152.5t-39.5 205q0 146 71.5 259.5t180.5 170.5t231 57q75 0 145.5 -20t134 -63t110.5 -105t74.5 -152.5t27.5 -198.5q0 -119 -25.5 -225t-68.5 -187t-102 -150.5t-122 -119
t-134 -88.5t-132.5 -62.5t-121.5 -38.5zM549 468q150 0 230 118.5t80 318.5q0 197 -77 311t-228 114q-145 0 -224.5 -119.5t-79.5 -311.5q0 -196 76 -313.5t223 -117.5z" />
    <glyph glyph-name="colon" unicode=":" horiz-adv-x="403" 
d="M107 76q0 39 27.5 66t66.5 27t67 -27t28 -66t-28 -66.5t-67 -27.5t-66.5 27.5t-27.5 66.5zM107 810q0 39 27.5 66t66.5 27t67 -27t28 -66t-28 -66.5t-67 -27.5t-66.5 27.5t-27.5 66.5z" />
    <glyph glyph-name="semicolon" unicode=";" horiz-adv-x="428" 
d="M193 -274v36q3 3 9 8t20.5 22.5t25.5 37t20 50t9 62.5q0 42 -11 71q-27 -31 -67 -31q-39 0 -65.5 24.5t-26.5 64.5q0 43 30 71t76 28q59 0 93.5 -48t34.5 -126q0 -51 -15 -98t-37 -77t-44 -52.5t-37 -32.5zM107 810q0 39 27.5 66t66.5 27t67 -27t28 -66t-28 -66.5
t-67 -27.5t-66.5 27.5t-27.5 66.5z" />
    <glyph glyph-name="less" unicode="&#x3c;" horiz-adv-x="1085" 
d="M79 436v55l897 378v-59l-832 -347l832 -347v-58z" />
    <glyph glyph-name="equal" unicode="=" horiz-adv-x="1115" 
d="M109 592v53h897v-53h-897zM109 283v53h897v-53h-897z" />
    <glyph glyph-name="greater" unicode="&#x3e;" horiz-adv-x="1085" 
d="M109 58v58l831 347l-831 347v59l897 -378v-55z" />
    <glyph glyph-name="question" unicode="?" horiz-adv-x="952" 
d="M335 312v174q8 3 21 8t51 26t73 46t77 68.5t72.5 93t51.5 120.5t21 149q0 65 -14 121t-45 105.5t-87.5 78t-133.5 28.5q-56 0 -105.5 -13t-85 -33.5t-65 -46t-48 -50.5t-31.5 -45.5t-19 -33.5l-5 -13v116q4 7 11.5 18.5t39.5 41.5t71.5 53t109.5 41.5t152 18.5
q212 0 330 -112t118 -283q0 -78 -27 -150t-65 -123t-96 -99t-101 -75t-100.5 -54t-74.5 -33t-42 -15v-128h-54zM268 76q0 39 27.5 66t66.5 27t66.5 -27t27.5 -66t-27.5 -66.5t-66.5 -27.5t-66.5 27.5t-27.5 66.5z" />
    <glyph glyph-name="at" unicode="@" horiz-adv-x="1630" 
d="M1354 8l20 -29q-9 -8 -27 -21t-77 -46t-122 -58.5t-160 -46.5t-195 -21q-203 0 -363.5 78t-253.5 227.5t-93 348.5q0 167 66.5 317t179 257t266.5 170t323 63q146 0 266 -47t198.5 -128.5t121.5 -190.5t43 -235q0 -136 -48 -247t-139 -176.5t-208 -65.5q-185 0 -203 141
q-89 -141 -230 -141q-101 0 -162 66.5t-61 196.5q0 117 52 223.5t139.5 170.5t184.5 64q46 0 80.5 -14t53 -37.5t28 -48t13.5 -52.5l41 132h146l-119 -389q-36 -116 -36 -165q0 -88 99 -88q90 0 162.5 63t111 163.5t38.5 216.5q0 240 -161.5 392.5t-406.5 152.5
q-195 0 -355.5 -97t-253 -270.5t-92.5 -388.5q0 -133 38.5 -242.5t113 -191.5t192 -127t267.5 -45q85 0 170 17t146 41.5t109 49t73 41.5zM650 411q0 -182 113 -182q48 0 90 33.5t68.5 83.5t46 110t28 112t8.5 90q0 65 -28.5 113t-90.5 48q-70 0 -125.5 -64.5t-82.5 -156.5
t-27 -187z" />
    <glyph glyph-name="A" unicode="A" horiz-adv-x="1254" 
d="M67 0l560 1393l560 -1393h-187l-165 411h-547l-165 -411h-56zM309 465h504l-252 627z" />
    <glyph glyph-name="B" unicode="B" horiz-adv-x="1083" 
d="M127 0v1358h278q94 0 172 -16.5t140 -50t96.5 -91.5t34.5 -136q0 -105 -62.5 -176t-168.5 -105q180 -28 290 -132t110 -258q0 -94 -42.5 -170t-115.5 -124t-166.5 -73.5t-198.5 -25.5h-367zM305 798h116q137 0 199.5 70t62.5 188q0 248 -262 248h-116v-506zM305 54h171
q174 0 263 93.5t89 247.5q0 155 -89.5 252t-262.5 97h-171v-690z" />
    <glyph glyph-name="C" unicode="C" horiz-adv-x="1371" 
d="M1254 210v-103q-180 -133 -452 -133q-152 0 -285.5 54t-228.5 147t-150 224t-55 280q0 198 93 359.5t258 253.5t368 92q229 0 415 -96v-97q-85 67 -193 103t-221 36q-152 0 -272 -81.5t-186.5 -230t-66.5 -339.5q0 -289 146.5 -470t378.5 -181q129 0 247 49.5t204 132.5z
" />
    <glyph glyph-name="D" unicode="D" horiz-adv-x="1301" 
d="M127 0v1358h363q204 0 372 -85t267 -241t99 -353t-99 -353t-267 -241t-372 -85h-363zM305 54h181q114 0 215 44t176.5 123t119.5 198t44 260t-44 260t-119.5 198t-176.5 123t-215 44h-181v-1250z" />
    <glyph glyph-name="E" unicode="E" horiz-adv-x="1001" 
d="M127 0v1358h773v-54h-595v-584h498v-54h-498v-612h595v-54h-773z" />
    <glyph glyph-name="F" unicode="F" horiz-adv-x="971" 
d="M127 0v1358h773v-54h-595v-584h498v-54h-498v-666h-178z" />
    <glyph glyph-name="G" unicode="G" horiz-adv-x="1462" 
d="M1337 693v-570q-211 -149 -529 -149q-200 0 -366 91t-262.5 253t-96.5 361q0 198 96.5 360.5t262.5 253.5t366 91q259 0 454 -112v-97q-85 74 -204.5 114.5t-249.5 40.5q-226 0 -378.5 -183.5t-152.5 -467.5q0 -188 70.5 -337.5t191.5 -231.5t269 -82q210 0 352 89v576
h177z" />
    <glyph glyph-name="H" unicode="H" horiz-adv-x="1363" 
d="M127 0v1358h178v-638h753v638h178v-1358h-178v666h-753v-666h-178z" />
    <glyph glyph-name="I" unicode="I" horiz-adv-x="456" 
d="M139 0v1358h178v-1358h-178z" />
    <glyph glyph-name="J" unicode="J" horiz-adv-x="456" 
d="M139 204v1154h178v-1080q0 -105 -15.5 -198.5t-41.5 -162.5t-59.5 -128t-70.5 -99t-74 -72t-70.5 -50.5t-59.5 -30.5t-42 -17l-15 -4v54q60 38 102 80.5t83.5 114t63 182t21.5 257.5z" />
    <glyph glyph-name="K" unicode="K" horiz-adv-x="1204" 
d="M127 0v1358h178v-822l636 822h71l-393 -506l552 -852h-211l-453 707l-202 -261v-446h-178z" />
    <glyph glyph-name="L" unicode="L" horiz-adv-x="906" 
d="M127 0v1358h178v-1304h524v-54h-702z" />
    <glyph glyph-name="M" unicode="M" horiz-adv-x="1873" 
d="M107 0l217 1381l624 -1159l601 1159l217 -1381h-185l-159 1013l-538 -1036l-564 1038l-158 -1015h-55z" />
    <glyph glyph-name="N" unicode="N" horiz-adv-x="1311" 
d="M127 0v1381l1003 -1087v1064h54v-1381l-1003 1087v-1064h-54z" />
    <glyph glyph-name="O" unicode="O" horiz-adv-x="1614" 
d="M83 679q0 148 56.5 279t153.5 224.5t231 147.5t283 54q200 0 366 -92t262 -254t96 -359q0 -151 -56.5 -283t-153.5 -224t-230.5 -145t-283.5 -53q-200 0 -365.5 89.5t-262 252t-96.5 363.5zM277 679q0 -190 65.5 -338t186.5 -230.5t278 -82.5q238 0 384.5 181t146.5 470
q0 288 -146.5 469.5t-384.5 181.5q-237 0 -383.5 -181.5t-146.5 -469.5z" />
    <glyph glyph-name="P" unicode="P" horiz-adv-x="1030" 
d="M127 0v1358h355q80 0 151 -13.5t132.5 -43t106 -72.5t70 -105.5t25.5 -139.5q0 -96 -38.5 -169t-106 -117t-153.5 -66t-187 -22h-177v-610h-178zM305 664h127q181 0 263.5 79t82.5 241q0 161 -82.5 240.5t-263.5 79.5h-127v-640z" />
    <glyph glyph-name="Q" unicode="Q" horiz-adv-x="1614" 
d="M1634 -186l-440 181q-57 23 -101 23q-21 0 -47 -8q-117 -36 -239 -36q-200 0 -365.5 89.5t-262 252t-96.5 363.5q0 148 56.5 279t153.5 224.5t231 147.5t283 54q200 0 366 -92t262 -254t96 -359q0 -208 -102.5 -373t-275.5 -252q39 -4 79 -20l538 -220h-136zM277 679
q0 -190 65.5 -338t186.5 -230.5t278 -82.5q238 0 384.5 181t146.5 470q0 288 -146.5 469.5t-384.5 181.5q-237 0 -383.5 -181.5t-146.5 -469.5z" />
    <glyph glyph-name="R" unicode="R" horiz-adv-x="1106" 
d="M127 0v1358h370q80 0 151 -13.5t132.5 -43t106 -72.5t70 -105.5t25.5 -139.5q0 -96 -38.5 -169t-106 -117t-153.5 -66t-187 -22h-156l740 -610h-81l-695 573v-573h-178zM305 664h142q181 0 263.5 79t82.5 241q0 161 -82.5 240.5t-263.5 79.5h-142v-640z" />
    <glyph glyph-name="S" unicode="S" horiz-adv-x="1008" 
d="M89 106v93q6 -7 18 -17.5t51 -38.5t81.5 -49t106.5 -38.5t129 -17.5q132 0 212.5 65.5t80.5 176.5q0 93 -62.5 169.5t-216.5 186.5q-61 43 -91.5 65.5t-77.5 59t-70 59.5t-52.5 56.5t-42.5 61.5t-23 63t-10 72q0 76 34.5 136t92.5 95.5t127 54t145 18.5q68 0 135.5 -14
t101.5 -28l34 -14v-87q-5 4 -13.5 10t-37.5 21t-59 27t-75 21.5t-89 9.5q-107 0 -180 -52t-73 -142q0 -36 13 -68t30 -56t59 -58.5t72 -55.5t97 -67q53 -36 81.5 -56t73 -53t68.5 -55.5t56 -54t49 -59t34 -61.5t24 -69.5t7 -74.5q0 -78 -28.5 -140.5t-74 -102t-107 -66
t-122.5 -37.5t-125 -11q-67 0 -131 12.5t-107.5 30.5t-77.5 36t-50 31z" />
    <glyph glyph-name="T" unicode="T" horiz-adv-x="1175" 
d="M499 0v1304h-416v54h1009v-54h-415v-1304h-178z" />
    <glyph glyph-name="U" unicode="U" horiz-adv-x="1205" 
d="M1098 1358v-807q0 -158 -29 -266t-111 -191q-114 -117 -330 -117q-232 0 -358 115q-95 86 -129 209.5t-34 337.5v719h178v-758q0 -196 14.5 -292.5t61.5 -160.5q84 -116 267 -116q188 0 290 99q74 72 99.5 176.5t25.5 247.5v804h55z" />
    <glyph glyph-name="V" unicode="V" horiz-adv-x="1238" 
d="M619 -23l-560 1381h187l437 -1083l439 1083h57z" />
    <glyph glyph-name="W" unicode="W" horiz-adv-x="2018" 
d="M591 -23l-522 1381h186l399 -1060l409 1083l448 -1089l382 1066h56l-493 -1381l-455 1095z" />
    <glyph glyph-name="X" unicode="X" horiz-adv-x="1198" 
d="M73 0l444 675l-440 683h205l338 -525l346 525h65l-378 -575l505 -783h-205l-404 625l-411 -625h-65z" />
    <glyph glyph-name="Y" unicode="Y" horiz-adv-x="1190" 
d="M503 0v609l-442 749h201l402 -685l402 685h63l-448 -765v-593h-178z" />
    <glyph glyph-name="Z" unicode="Z" horiz-adv-x="1061" 
d="M65 0l687 1304h-606v54h824l-686 -1304h706v-54h-925z" />
    <glyph glyph-name="bracketleft" unicode="[" horiz-adv-x="556" 
d="M109 -458v1816h394v-54h-228v-1708h228v-54h-394z" />
    <glyph glyph-name="backslash" unicode="\" horiz-adv-x="839" 
d="M744 -148h-55l-649 1655h55z" />
    <glyph glyph-name="bracketright" unicode="]" horiz-adv-x="556" 
d="M53 -458v54h228v1708h-228v54h394v-1816h-394z" />
    <glyph glyph-name="asciicircum" unicode="^" horiz-adv-x="625" 
d="M81 834l232 547l231 -547h-156l-126 298l-126 -298h-55z" />
    <glyph glyph-name="underscore" unicode="_" horiz-adv-x="1171" 
d="M119 0v54h933v-54h-933z" />
    <glyph glyph-name="grave" unicode="`" horiz-adv-x="548" 
d="M448 1017l-50 -9l-250 188q-38 30 -38 62q0 23 16.5 39t41.5 16q32 0 63 -37z" />
    <glyph glyph-name="a" unicode="a" horiz-adv-x="990" 
d="M930 70v-47q-26 -23 -83 -23q-59 0 -113 34.5t-84 109.5q-78 -158 -285 -158q-127 0 -205.5 61t-78.5 176q0 36 9 66.5t22.5 54t40.5 46.5t51 39t67 36t74.5 33t87.5 34q62 24 98 43.5t55 41t24.5 41.5t5.5 52q0 63 -30.5 101.5t-117.5 38.5q-51 0 -98.5 -14t-79 -33
t-57.5 -41.5t-36.5 -35t-13.5 -17.5v99q4 4 12 10.5t36 22.5t60 28.5t84.5 23t108.5 10.5q304 0 304 -284v-367q0 -198 84 -198q14 0 28.5 4t21.5 8zM622 317v226q0 51 -1 72q-16 -41 -49 -65t-126 -72q-104 -53 -149 -107t-45 -143q0 -85 42 -136.5t118 -51.5q77 0 135 43
t87 115q-12 51 -12 119z" />
    <glyph glyph-name="b" unicode="b" horiz-adv-x="1052" 
d="M123 0v1358h166v-600q83 145 268 145q179 0 298 -133t119 -326t-119 -325.5t-295 -132.5q-188 0 -271 144v-130h-166zM289 443q0 -83 14.5 -154t43.5 -127.5t79.5 -89t116.5 -32.5q88 0 148 56.5t86 144.5t26 202t-26 203t-86 146.5t-148 57.5t-146.5 -57.5t-83 -146
t-24.5 -203.5z" />
    <glyph glyph-name="c" unicode="c" horiz-adv-x="932" 
d="M833 177v-103q-4 -4 -11.5 -9.5t-34 -21t-57 -27t-81 -21t-104.5 -9.5q-201 0 -334 125.5t-133 330.5q0 198 130 329.5t328 131.5q52 0 99.5 -8t78.5 -20t54.5 -24t33.5 -20l11 -8v-102q-3 5 -9.5 14t-31 31t-53.5 39t-78.5 31t-104.5 14q-96 0 -162 -57.5t-95 -147
t-29 -202.5q0 -181 80 -292t233 -111q53 0 100.5 14t77.5 34t51.5 40.5t31.5 34.5z" />
    <glyph glyph-name="d" unicode="d" horiz-adv-x="1052" 
d="M763 0v130q-84 -144 -271 -144q-176 0 -295 132.5t-119 325.5t118.5 326t298.5 133q183 0 268 -145v600h166v-1358h-166zM249 443q0 -84 15 -155.5t45.5 -127.5t81.5 -88t117 -32q67 0 117 32.5t79.5 89t44 127t14.5 154.5q0 115 -24.5 203.5t-83 146t-146.5 57.5
t-148 -57.5t-86 -146.5t-26 -203z" />
    <glyph glyph-name="e" unicode="e" horiz-adv-x="966" 
d="M825 206v-100q-4 -5 -11.5 -13t-35 -28.5t-60 -36.5t-87 -29t-114.5 -13q-203 0 -321 132t-118 326q0 198 116 328.5t300 130.5q177 0 282 -123.5t115 -319.5h-641v-15q0 -62 7.5 -116.5t27.5 -108.5t51 -93t81.5 -63t116.5 -24q58 0 110 19t88 48.5t57.5 53t35.5 45.5z
M252 514h463q-11 160 -62 248t-158 88q-106 0 -169 -88t-74 -248z" />
    <glyph glyph-name="f" unicode="f" horiz-adv-x="705" 
d="M215 0v833h-150v53h150v105q0 92 21 162.5t53.5 111.5t77 67.5t85.5 35.5t85 9q37 0 75 -8.5t58 -16.5l19 -9v-88q-2 3 -6 7.5t-18 16t-30 20.5t-43.5 16.5t-58.5 7.5q-71 0 -111.5 -50t-40.5 -174v-213h264v-53h-264v-833h-166z" />
    <glyph glyph-name="g" unicode="g" horiz-adv-x="1028" 
d="M827 919h154q0 -53 -43 -102.5t-103 -69.5q61 -86 61 -193q0 -154 -98.5 -241.5t-265.5 -111.5q-263 -38 -263 -85q0 -32 79 -54.5t222 -43.5q397 -59 397 -246q0 -71 -63 -127.5t-167 -86.5t-228 -30t-230.5 30t-171.5 86.5t-65 127.5q0 89 97 152t247 74
q-48 5 -91.5 14t-86.5 23t-69 35t-26 46q0 73 272 104q-127 35 -197.5 124t-70.5 210q0 153 110 251t279 98q180 0 293 -113q28 41 28 129zM506 259q115 0 168.5 83t53.5 212t-53.5 212.5t-168.5 83.5q-59 0 -103 -24t-68.5 -66t-36.5 -93.5t-12 -112.5q0 -129 53 -212
t167 -83zM204 -228q0 -84 84.5 -137t219.5 -53q134 0 215.5 52.5t81.5 137.5q0 84 -81.5 136.5t-214.5 52.5q-135 0 -220 -52.5t-85 -136.5z" />
    <glyph glyph-name="h" unicode="h" horiz-adv-x="1006" 
d="M123 0v1358h166v-752q8 41 20.5 78t36.5 78.5t56 71.5t81 49.5t109 19.5q137 0 217 -91.5t80 -243.5v-568h-166v568q0 47 -2.5 81.5t-12.5 75t-27 66t-48 42.5t-74 17q-90 0 -153 -70t-90 -170.5t-27 -217.5v-392h-166z" />
    <glyph glyph-name="i" unicode="i" horiz-adv-x="436" 
d="M218 1046q-40 0 -68.5 28t-28.5 68t28.5 68t68.5 28q39 0 67.5 -28t28.5 -68t-28.5 -68t-67.5 -28zM135 0v886h166v-886h-166z" />
    <glyph glyph-name="j" unicode="j" horiz-adv-x="436" 
d="M218 1046q-40 0 -68.5 28t-28.5 68t28.5 68t68.5 28q39 0 67.5 -28t28.5 -68t-28.5 -68t-67.5 -28zM135 230v656h166v-582q0 -137 -20.5 -252.5t-53.5 -191.5t-72.5 -136t-79 -93t-72.5 -54.5t-53 -28.5l-21 -6v48q25 20 40 34t39.5 43t40 59t33.5 79.5t28.5 107
t17.5 139t7 178.5z" />
    <glyph glyph-name="k" unicode="k" horiz-adv-x="953" 
d="M123 0v1358h166v-1008l451 536h71l-271 -321l388 -565h-194l-302 437l-143 -169v-268h-166z" />
    <glyph glyph-name="l" unicode="l" horiz-adv-x="436" 
d="M135 0v1358h166v-1358h-166z" />
    <glyph glyph-name="m" unicode="m" horiz-adv-x="1566" 
d="M123 0v886h166v-282q8 43 21.5 82t38 80t55.5 70t77 48t101 19q127 0 202.5 -82t83.5 -222q10 55 29.5 104t53.5 96.5t88.5 75.5t123.5 28q134 0 210 -91t76 -244v-568h-166v568q0 58 -5.5 102t-20.5 88t-47 68t-81 24q-85 0 -146 -74t-87.5 -179t-26.5 -222v-375h-166
v568q0 58 -5.5 102t-20.5 88t-47.5 68t-80.5 24q-85 0 -146 -73t-87.5 -177.5t-26.5 -224.5v-375h-166z" />
    <glyph glyph-name="n" unicode="n" horiz-adv-x="1006" 
d="M123 0v886h166v-280q8 41 20.5 78t36.5 78.5t56 71.5t81 49.5t109 19.5q137 0 217 -91.5t80 -243.5v-568h-166v568q0 47 -2.5 81.5t-12.5 75t-27 66t-48 42.5t-74 17q-90 0 -153 -70t-90 -170.5t-27 -217.5v-392h-166z" />
    <glyph glyph-name="o" unicode="o" horiz-adv-x="1018" 
d="M78 441q0 196 122.5 329t308.5 133t308.5 -133t122.5 -329t-122.5 -325.5t-308.5 -129.5q-187 0 -309 129.5t-122 325.5zM250 441q0 -115 25 -202.5t85 -143t149 -55.5t148.5 55.5t85.5 143t26 202.5q0 114 -25.5 203.5t-86 147.5t-148.5 58q-67 0 -118.5 -32.5
t-81.5 -90t-44.5 -129.5t-14.5 -157z" />
    <glyph glyph-name="p" unicode="p" horiz-adv-x="1052" 
d="M289 131v-589h-166v1344h166v-127q84 144 271 144q176 0 295 -132t119 -325q0 -194 -119 -327t-298 -133q-185 0 -268 145zM289 446q0 -114 24.5 -202.5t83 -146t146.5 -57.5t148 57.5t86 146.5t26 202q0 114 -26 202.5t-86 145t-148 56.5t-146.5 -57.5t-83 -145.5
t-24.5 -201z" />
    <glyph glyph-name="q" unicode="q" horiz-adv-x="1052" 
d="M763 -458v589q-85 -145 -268 -145q-180 0 -298.5 133t-118.5 327q0 193 119 325t295 132q186 0 271 -145v128h166v-1344h-166zM509 40q88 0 146.5 57.5t83 146t24.5 202.5q0 113 -24.5 201t-83.5 145.5t-147 57.5q-87 0 -147 -56.5t-86 -145t-26 -202.5q0 -113 26 -202
t86 -146.5t148 -57.5z" />
    <glyph glyph-name="r" unicode="r" horiz-adv-x="676" 
d="M123 0v886h166v-282q7 44 32 98.5t67 100.5q93 101 223 101v-117q-162 0 -242 -102t-80 -295v-390h-166z" />
    <glyph glyph-name="s" unicode="s" horiz-adv-x="873" 
d="M85 84v100q5 -6 14.5 -15.5t42.5 -34.5t69.5 -44t94.5 -34.5t119 -15.5q107 0 164.5 41t57.5 101q0 22 -7 41.5t-26.5 38t-33.5 30.5t-49.5 30t-51 25.5t-60.5 27.5q-67 30 -109 51t-86.5 50t-69 56t-40 63.5t-15.5 78.5q0 59 26.5 104.5t73 72t104 39.5t123.5 13
q50 0 97.5 -7.5t79.5 -17.5t57 -20.5t36 -17.5l12 -8v-91q-4 4 -12.5 11.5t-36.5 26.5t-58.5 33t-78.5 26t-98 12q-87 0 -143.5 -32.5t-56.5 -97.5q0 -52 44 -83.5t158 -78.5q52 -21 79 -32.5t69 -30.5t64 -32.5t51.5 -33.5t44.5 -38.5t30.5 -42.5t21.5 -51.5t6 -58.5
q0 -113 -92 -182.5t-276 -69.5q-66 0 -125.5 10t-97 24.5t-65 29t-39.5 24.5z" />
    <glyph glyph-name="t" unicode="t" horiz-adv-x="694" 
d="M215 370v463h-150v53h150v211l166 119v-330h254v-53h-254v-532q0 -31 0.5 -47.5t3 -47.5t7 -49.5t14 -42t23 -36.5t35 -22.5t48.5 -9.5q20 0 40 3t30 5l9 3v-54q-38 -11 -79 -11q-71 0 -124.5 19.5t-86 52t-52 82t-27 103t-7.5 121.5z" />
    <glyph glyph-name="u" unicode="u" horiz-adv-x="1006" 
d="M117 321v565h166v-565q0 -46 2.5 -81t12.5 -75t27 -65.5t48 -42.5t74 -17q70 0 123.5 41.5t84.5 111.5t46.5 151.5t15.5 170.5v371h166v-886h-166v283q-8 -41 -20.5 -78.5t-37 -79t-56.5 -71t-81 -49t-109 -19.5q-136 0 -216 91.5t-80 243.5z" />
    <glyph glyph-name="v" unicode="v" horiz-adv-x="934" 
d="M467 -21l-408 907h174l290 -648l292 648h60z" />
    <glyph glyph-name="w" unicode="w" horiz-adv-x="1517" 
d="M426 -21l-359 907h172l252 -642l318 663l328 -665l255 644h58l-359 -907l-338 685z" />
    <glyph glyph-name="x" unicode="x" horiz-adv-x="932" 
d="M61 0l325 432l-327 454h195l231 -322l242 322h68l-277 -367l375 -519h-196l-278 386l-291 -386h-67z" />
    <glyph glyph-name="y" unicode="y" horiz-adv-x="938" 
d="M448 41l-380 845h174l292 -650l291 650h59l-600 -1344h-59z" />
    <glyph glyph-name="z" unicode="z" horiz-adv-x="832" 
d="M67 0l479 833h-436v53h641l-480 -832h498v-54h-702z" />
    <glyph glyph-name="braceleft" unicode="{" horiz-adv-x="553" 
d="M109 429v42q20 8 50 8q16 0 42 -6q27 15 27 66q0 45 -23.5 106t-52 114t-52 130t-23.5 151q0 318 423 318v-53q-73 0 -123.5 -20.5t-77.5 -59t-38.5 -85t-11.5 -106.5q0 -84 28.5 -220t28.5 -200q0 -120 -56 -164q56 -45 56 -164q0 -64 -28.5 -200t-28.5 -220
q0 -60 11.5 -106.5t38.5 -85t77.5 -59t123.5 -20.5v-53q-423 0 -423 319q0 74 23.5 150.5t52 129t52 113.5t23.5 107q0 51 -27 66q-19 -6 -42 -6q-13 0 -25.5 2t-18.5 4z" />
    <glyph glyph-name="bar" unicode="|" horiz-adv-x="372" 
d="M159 -417v1943h54v-1943h-54z" />
    <glyph glyph-name="braceright" unicode="}" horiz-adv-x="553" 
d="M53 1305v53q423 0 423 -318q0 -74 -23.5 -151t-52 -130t-52 -114t-23.5 -106q0 -51 26 -66q19 6 42 6q14 0 26.5 -2t18.5 -4l6 -2v-42q-20 -8 -51 -8q-23 0 -41 6q-27 -15 -27 -66q0 -46 23.5 -107t52 -113.5t52 -129t23.5 -150.5q0 -319 -423 -319v53q73 0 123.5 20.5
t77.5 59t38.5 85t11.5 106.5q0 84 -28.5 220t-28.5 200q0 119 55 164q-55 43 -55 164q0 64 28.5 200t28.5 220q0 60 -11.5 106.5t-38.5 85t-77.5 59t-123.5 20.5z" />
    <glyph glyph-name="asciitilde" unicode="~" horiz-adv-x="1177" 
d="M109 358q4 21 13.5 45t29 53.5t45 52.5t65.5 38.5t88 15.5q55 0 125 -23t125.5 -50t119.5 -50t109 -23q42 0 77 17t56.5 43t34 49t17.5 43h54q-4 -21 -13.5 -45t-29 -53.5t-45 -52.5t-66 -38.5t-87.5 -15.5q-55 0 -125 23t-125.5 50t-119.5 50t-109 23q-42 0 -77 -17
t-56.5 -43t-34 -49t-17.5 -43h-54z" />
    <glyph glyph-name="nbspace" unicode="&#xa0;" horiz-adv-x="457" 
 />
    <glyph glyph-name="exclamdown" unicode="&#xa1;" horiz-adv-x="408" 
d="M126 -387l50 976h56l50 -976q0 -96 -78 -96t-78 96zM110 825q0 39 27.5 66.5t66.5 27.5t66.5 -27.5t27.5 -66.5t-27.5 -66t-66.5 -27t-66.5 27t-27.5 66z" />
    <glyph glyph-name="cent" unicode="&#xa2;" horiz-adv-x="932" 
d="M207 -127l80 180q-98 58 -153.5 158.5t-55.5 230.5q0 198 130 329.5t328 131.5q62 0 125 -14l52 117h57l-58 -131q30 -10 55 -23t35 -21l11 -8v-102q-4 7 -13.5 18t-42 37.5t-70.5 43.5l-318 -712q76 -68 194 -68q52 0 99.5 14.5t75 31t52.5 41t31 32t12 17.5v-102
q-4 -4 -11.5 -9.5t-34 -21t-57 -27t-81 -21t-104.5 -9.5q-114 0 -211 43l-70 -156h-57zM331 150l306 687q-49 13 -101 13q-96 0 -162 -57.5t-95 -147t-29 -202.5q0 -185 81 -293z" />
    <glyph glyph-name="sterling" unicode="&#xa3;" horiz-adv-x="1175" 
d="M45 0q11 6 30 17t66.5 51.5t84 87t66.5 123.5t30 160q0 85 -36 213h-169v54h153q-24 76 -35.5 113.5t-23.5 99.5t-12 111q0 156 102.5 255t283.5 99q73 0 134 -17.5t96 -42t59 -49.5t33 -43l9 -17v-120q-54 149 -178 206q-63 29 -138 29q-104 0 -168 -62.5t-64 -200.5
q0 -57 10.5 -115.5t31.5 -134.5t28 -111h357v-54h-347q7 -54 7 -95q0 -221 -163 -389h807l-62 -168h-992z" />
    <glyph glyph-name="currency" unicode="&#xa4;" horiz-adv-x="926" 
d="M158 336l-39 38l158 158q-51 64 -51 147q0 82 51 147l-158 158l39 38l157 -157q64 51 148 51q85 0 148 -52l158 158l38 -38l-158 -159q51 -64 51 -146t-51 -147l158 -158l-38 -38l-158 157q-64 -51 -148 -51t-148 51zM463 496q75 0 127 54t52 129t-52 129t-127 54
q-74 0 -126.5 -54t-52.5 -129t52.5 -129t126.5 -54z" />
    <glyph glyph-name="yen" unicode="&#xa5;" horiz-adv-x="1130" 
d="M473 0v458h-334v54h334v96l-70 127h-264v54h234l-312 569h197l375 -683l374 683h62l-312 -569h239v-54h-269l-76 -140v-83h345v-54h-345v-458h-178z" />
    <glyph glyph-name="brokenbar" unicode="&#xa6;" horiz-adv-x="372" 
d="M159 718v808h54v-808h-54zM159 377h54v-794h-54v794z" />
    <glyph glyph-name="section" unicode="&#xa7;" horiz-adv-x="1047" 
d="M209 -329q14 -10 39 -25t97 -39.5t138 -24.5q107 0 178.5 57.5t71.5 149.5q0 33 -9 64t-32.5 64t-44.5 58t-64 62t-71 60t-85 67q-116 91 -184 158.5t-111 149.5t-43 170q0 87 38 158t102 119q-46 81 -46 163q0 58 22 106.5t60 83t88 58.5t105.5 35.5t113.5 11.5
q65 0 130.5 -14t99.5 -28l33 -14v-87q-5 4 -13.5 10t-36.5 21t-57 27t-72 21.5t-85 9.5q-104 0 -175.5 -53.5t-71.5 -147.5q0 -44 17.5 -83t59 -81.5t87.5 -79.5t126 -98q10 -7 15 -11q83 -63 138.5 -114t104.5 -110.5t72.5 -122t23.5 -131.5q0 -88 -39 -160.5t-103 -119.5
q48 -88 48 -172q0 -76 -33.5 -137t-90 -98t-125.5 -56.5t-144 -19.5q-65 0 -133 14t-104 28l-35 14v87zM518 325q6 -5 33.5 -27.5t39 -32t36.5 -30.5t40 -35t35.5 -34t37.5 -39.5t33 -38.5q45 57 45 142q0 44 -14 84.5t-33 71.5t-61 72.5t-74 69t-97 80.5q-9 8 -46.5 38
t-56.5 46t-50.5 43.5t-56.5 53.5t-47 53q-43 -55 -43 -138q0 -28 4 -53t15.5 -50t20.5 -43.5t32.5 -45t38 -42t49.5 -46t54.5 -46.5t64.5 -53z" />
    <glyph glyph-name="dieresis" unicode="&#xa8;" horiz-adv-x="726" 
d="M521 1056q-37 0 -62.5 25.5t-25.5 62.5q0 36 25.5 61.5t62.5 25.5t62.5 -25.5t25.5 -61.5q0 -37 -25.5 -62.5t-62.5 -25.5zM205 1056q-37 0 -62.5 25.5t-25.5 62.5q0 36 25.5 61.5t62.5 25.5q36 0 61.5 -25.5t25.5 -61.5q0 -37 -25.5 -62.5t-61.5 -25.5z" />
    <glyph glyph-name="copyright" unicode="&#xa9;" horiz-adv-x="1614" 
d="M83 679q0 200 97.5 362.5t263 252.5t363.5 90t363.5 -90t263 -252.5t97.5 -362.5t-97.5 -362.5t-263 -252.5t-363.5 -90t-363.5 90t-263 252.5t-97.5 362.5zM138 679q0 -185 90 -337.5t243.5 -238.5t335.5 -86t335 86t243 238.5t90 337.5t-90 337.5t-243 238.5t-335 86
t-335.5 -86t-243.5 -238.5t-90 -337.5zM1101 412v-66q-50 -43 -125 -67.5t-159 -24.5q-190 0 -313.5 118.5t-123.5 306.5q0 187 123.5 305.5t314.5 118.5q149 0 262 -65v-71q-48 43 -119 68t-139 25q-147 0 -233.5 -105.5t-86.5 -275.5t86.5 -276t233.5 -106q76 0 155 31
t124 84z" />
    <glyph glyph-name="ordfeminine" unicode="&#xaa;" horiz-adv-x="726" 
d="M669 805v-31q-15 -16 -58 -16q-101 0 -146 83q-58 -90 -188 -90q-95 0 -147.5 45t-52.5 122q0 25 7 47t15.5 38t30 32.5t36 26.5t50 26t54.5 23.5t65 25.5q63 25 79.5 43.5t16.5 53.5q0 110 -107 110q-36 0 -67.5 -10t-50.5 -24.5t-32.5 -29t-19.5 -24.5l-5 -10v72
q2 3 6 7.5t19 15.5t33.5 20t51.5 16t71 7q74 0 125.5 -22t74.5 -56t32 -62.5t9 -55.5v-256q0 -138 57 -138q11 0 21.5 3t14.5 5zM435 977v193q-10 -20 -26.5 -32.5t-71.5 -39.5q-76 -38 -106 -75t-30 -99q0 -63 31.5 -98t79.5 -35q87 0 141 76q-18 47 -18 110z" />
    <glyph glyph-name="guillemotleft" unicode="&#xab;" horiz-adv-x="973" 
d="M424 126l-345 320l345 320l39 -38l-305 -282l304 -282zM826 126l-345 320l345 320l39 -38l-305 -282l304 -282z" />
    <glyph glyph-name="logicalnot" unicode="&#xac;" horiz-adv-x="1122" 
d="M109 437v53h904v-353h-54v300h-850z" />
    <glyph glyph-name="uni00AD" unicode="&#xad;" horiz-adv-x="837" 
d="M109 411v54h619v-54h-619z" />
    <glyph glyph-name="registered" unicode="&#xae;" horiz-adv-x="749" 
d="M374 809q-119 0 -203 84.5t-84 203.5t84.5 203t202.5 84q119 0 203.5 -84t84.5 -203t-84.5 -203.5t-203.5 -84.5zM374 841q104 0 176.5 75t72.5 181t-73 180.5t-176 74.5t-175.5 -74.5t-72.5 -180.5t72.5 -181t175.5 -75zM278 940v317h97q50 0 79.5 -23t29.5 -65
q0 -41 -30 -65t-79 -24h-34l159 -140h-32l-141 124v-124h-49zM327 1102h36q68 0 68 68q0 66 -68 66h-36v-134z" />
    <glyph glyph-name="macron" unicode="&#xaf;" horiz-adv-x="707" 
d="M103 1072v71h501v-71h-501z" />
    <glyph glyph-name="degree" unicode="&#xb0;" horiz-adv-x="647" 
d="M321 944q-102 0 -168 60t-66 158t66 158t168 60q106 0 172.5 -60t66.5 -158t-66.5 -158t-172.5 -60zM321 985q58 0 94 50.5t36 126.5t-36 127t-94 51q-57 0 -91.5 -50.5t-34.5 -127.5q0 -76 34.5 -126.5t91.5 -50.5z" />
    <glyph glyph-name="plusminus" unicode="&#xb1;" horiz-adv-x="1109" 
d="M527 204v356h-422v53h422v422h54v-422h423v-53h-423v-356h-54zM105 0v54h899v-54h-899z" />
    <glyph glyph-name="twosuperior" unicode="&#xb2;" horiz-adv-x="556" 
d="M39 960q12 10 31 28t68 75t86.5 115t68.5 141.5t31 161.5q0 134 -94 134q-30 0 -56.5 -12.5t-43 -30.5t-28.5 -35.5t-17 -30.5l-5 -12v74q2 4 5 9.5t17 20.5t32 26.5t49.5 21t68.5 9.5q95 0 143.5 -53.5t48.5 -133.5q0 -60 -27.5 -124t-71.5 -118t-80 -90.5t-71 -65.5
h317l-40 -110h-432z" />
    <glyph glyph-name="threesuperior" unicode="&#xb3;" horiz-adv-x="610" 
d="M125 1497v71q1 4 4.5 9.5t16.5 20.5t30.5 26.5t49 21t69.5 9.5q87 0 132.5 -43t45.5 -106q0 -89 -79 -145q67 -18 111 -70.5t44 -128.5q0 -95 -71.5 -155t-196.5 -60q-63 0 -109 15.5t-60 30.5l-15 15v60q3 -3 8 -8.5t22 -19.5t35.5 -24.5t47.5 -19.5t59 -9
q75 0 115.5 49t40.5 122q0 56 -25.5 105.5t-73.5 62.5q-57 -20 -123 -20l10 43q34 21 94 23q60 39 60 130q0 50 -23 81.5t-74 31.5q-31 0 -57 -12t-41.5 -29.5t-26.5 -35t-15 -29.5z" />
    <glyph glyph-name="acute" unicode="&#xb4;" horiz-adv-x="548" 
d="M150 1008l-50 9l217 259q31 37 63 37q25 0 41.5 -16t16.5 -39q0 -32 -38 -62z" />
    <glyph glyph-name="mu" unicode="&#xb5;" horiz-adv-x="1012" 
d="M289 35v-493h-166v1344h166v-565q0 -46 2.5 -81t12.5 -75t27 -65.5t48 -42.5t74 -17q70 0 123.5 41.5t84.5 111.5t46.5 151.5t15.5 170.5v371h166v-886h-166v283q-8 -41 -20.5 -78.5t-37 -79t-56.5 -71t-81 -49t-109 -19.5q-76 0 -130 49z" />
    <glyph glyph-name="paragraph" unicode="&#xb6;" horiz-adv-x="1346" 
d="M531 623q-99 2 -182 24.5t-148 66t-101.5 114t-36.5 162.5q0 94 38.5 166t106 115.5t153.5 65t187 21.5h743l-36 -54h-79v-1522l-177 -88v1610h-122v-1673l-178 -89v1762h-133q-314 0 -314 -314q0 -313 314 -313z" />
    <glyph glyph-name="periodcentered" unicode="&#xb7;" horiz-adv-x="403" 
d="M107 444q0 39 27.5 66t66.5 27t67 -27t28 -66t-28 -66.5t-67 -27.5t-66.5 27.5t-27.5 66.5z" />
    <glyph glyph-name="cedilla" unicode="&#xb8;" horiz-adv-x="520" 
d="M146 -128l146 136h57l-87 -95q62 -8 109 -51t47 -108q0 -69 -55 -112t-149 -43q-33 0 -61.5 6t-40.5 11l-12 6l-5 46q49 -21 101 -21q59 0 84.5 29.5t25.5 72.5q0 58 -46.5 90.5t-113.5 32.5z" />
    <glyph glyph-name="onesuperior" unicode="&#xb9;" horiz-adv-x="649" 
d="M77 960v40h193v523l-118 -78v48l247 162v-655h193v-40h-515z" />
    <glyph glyph-name="ordmasculine" unicode="&#xba;" horiz-adv-x="701" 
d="M350 745q-131 0 -215.5 89.5t-84.5 228.5t84.5 230t215.5 91t216 -91t85 -230t-85 -228.5t-216 -89.5zM350 785q159 0 159 278q0 281 -159 281q-158 0 -158 -281q0 -278 158 -278z" />
    <glyph glyph-name="guillemotright" unicode="&#xbb;" horiz-adv-x="973" 
d="M148 126l-38 38l302 282l-303 282l39 38l345 -320zM550 126l-38 38l302 282l-303 282l39 38l345 -320z" />
    <glyph glyph-name="onequarter" unicode="&#xbc;" horiz-adv-x="1605" 
d="M77 678v40h193v523l-118 -78v48l247 162v-655h193v-40h-515zM1279 0v162h-301l430 534v-494h136v-40h-136v-162h-129zM1064 202h215v267zM484 -98h-49l848 1555h49z" />
    <glyph glyph-name="onehalf" unicode="&#xbd;" horiz-adv-x="1619" 
d="M77 678v40h193v523l-118 -78v48l247 162v-655h193v-40h-515zM484 -98h-49l848 1555h49zM1102 0q12 10 31 28t68 75t86.5 115t68.5 141.5t31 161.5q0 134 -94 134q-30 0 -56.5 -12.5t-43 -30.5t-28.5 -35.5t-17 -30.5l-5 -12v74q2 4 5 9.5t17 20.5t32 26.5t49.5 21
t68.5 9.5q95 0 143.5 -53.5t48.5 -133.5q0 -60 -27.5 -124t-71.5 -118t-80 -90.5t-71 -65.5h317l-40 -110h-432z" />
    <glyph glyph-name="threequarters" unicode="&#xbe;" horiz-adv-x="1482" 
d="M125 1215v71q1 4 4.5 9.5t16.5 20.5t30.5 26.5t49 21t69.5 9.5q87 0 132.5 -43t45.5 -106q0 -89 -79 -145q67 -18 111 -70.5t44 -128.5q0 -95 -71.5 -155t-196.5 -60q-63 0 -109 15.5t-60 30.5l-15 15v60q3 -3 8 -8.5t22 -19.5t35.5 -24.5t47.5 -19.5t59 -9
q75 0 115.5 49t40.5 122q0 56 -25.5 105.5t-73.5 62.5q-57 -20 -123 -20l10 43q34 21 94 23q60 39 60 130q0 50 -23 81.5t-74 31.5q-31 0 -57 -12t-41.5 -29.5t-26.5 -35t-15 -29.5zM1156 0v162h-301l430 534v-494h136v-40h-136v-162h-129zM941 202h215v267zM361 -98h-49
l848 1555h49z" />
    <glyph glyph-name="questiondown" unicode="&#xbf;" horiz-adv-x="952" 
d="M590 732q-40 0 -67.5 27t-27.5 66t27.5 66.5t67.5 27.5q39 0 66.5 -27.5t27.5 -66.5t-27.5 -66t-66.5 -27zM889 -194v-116q-4 -7 -12 -18.5t-39.5 -41.5t-71 -53t-110 -41.5t-152.5 -18.5q-212 0 -329.5 112t-117.5 283q0 78 27 150t65 123t96 99t101 75t100.5 54
t74.5 33t42 15v128h54v-174q-8 -3 -21 -8t-51 -26t-73 -46t-77 -68.5t-72.5 -93t-51.5 -120.5t-21 -149q0 -51 8 -97t28.5 -90t51.5 -76t80.5 -51t111.5 -19q55 0 105 13t85 33.5t65 45.5t48.5 50.5t31.5 46t19 33.5z" />
    <glyph glyph-name="Agrave" unicode="&#xc0;" horiz-adv-x="1254" 
d="M67 0l560 1393l560 -1393h-187l-165 411h-547l-165 -411h-56zM309 465h504l-252 627zM737 1477l-50 -9l-250 188q-38 30 -38 62q0 23 16.5 39t41.5 16q32 0 63 -37z" />
    <glyph glyph-name="Aacute" unicode="&#xc1;" horiz-adv-x="1254" 
d="M67 0l560 1393l560 -1393h-187l-165 411h-547l-165 -411h-56zM309 465h504l-252 627zM567 1468l-50 9l217 259q31 37 63 37q25 0 41.5 -16t16.5 -39q0 -32 -38 -62z" />
    <glyph glyph-name="Acircumflex" unicode="&#xc2;" horiz-adv-x="1254" 
d="M67 0l560 1393l560 -1393h-187l-165 411h-547l-165 -411h-56zM309 465h504l-252 627zM393 1473l234 300l233 -300l-46 -5l-187 135l-188 -135z" />
    <glyph glyph-name="Atilde" unicode="&#xc3;" horiz-adv-x="1254" 
d="M67 0l560 1393l560 -1393h-187l-165 411h-547l-165 -411h-56zM309 465h504l-252 627zM341 1494q0 81 43.5 132t128.5 51q54 0 142.5 -33.5t131.5 -33.5q33 0 56 19.5t27 60.5h42q0 -81 -44 -134t-129 -53q-55 0 -143 33.5t-126 33.5q-79 0 -87 -76h-42z" />
    <glyph glyph-name="Adieresis" unicode="&#xc4;" horiz-adv-x="1254" 
d="M67 0l560 1393l560 -1393h-187l-165 411h-547l-165 -411h-56zM309 465h504l-252 627zM786 1516q-37 0 -62.5 25.5t-25.5 62.5q0 36 25.5 61.5t62.5 25.5t62.5 -25.5t25.5 -61.5q0 -37 -25.5 -62.5t-62.5 -25.5zM470 1516q-37 0 -62.5 25.5t-25.5 62.5q0 36 25.5 61.5
t62.5 25.5q36 0 61.5 -25.5t25.5 -61.5q0 -37 -25.5 -62.5t-61.5 -25.5z" />
    <glyph glyph-name="Aring" unicode="&#xc5;" horiz-adv-x="1254" 
d="M67 0l560 1393l560 -1393h-187l-165 411h-547l-165 -411h-56zM309 465h504l-252 627zM628 1474q-76 0 -125.5 36.5t-49.5 99.5q0 64 49 101t126 37q76 0 124.5 -37t48.5 -101q0 -63 -48.5 -99.5t-124.5 -36.5zM628 1514q67 0 67 96q0 47 -18 72t-49 25q-32 0 -50 -25
t-18 -72q0 -96 68 -96z" />
    <glyph glyph-name="AE" unicode="&#xc6;" horiz-adv-x="1628" 
d="M55 0l874 1358h598v-54h-420v-584h323v-54h-323v-612h420v-54h-598v522h-473l-336 -522h-65zM491 576h438v680z" />
    <glyph glyph-name="Ccedilla" unicode="&#xc7;" horiz-adv-x="1371" 
d="M647 -128l110 103q-192 10 -346 103.5t-241 251t-87 349.5q0 198 93 359.5t258 253.5t368 92q229 0 415 -96v-97q-85 67 -193 103t-221 36q-152 0 -272 -81.5t-186.5 -230t-66.5 -339.5q0 -289 146.5 -470t378.5 -181q129 0 247 49.5t204 132.5v-103q-174 -128 -436 -133
l-55 -61q62 -8 109 -51t47 -108q0 -69 -55 -112t-149 -43q-33 0 -61.5 6t-40.5 11l-12 6l-5 46q49 -21 101 -21q59 0 84.5 29.5t25.5 72.5q0 58 -46.5 90.5t-113.5 32.5z" />
    <glyph glyph-name="Egrave" unicode="&#xc8;" horiz-adv-x="1001" 
d="M127 0v1358h773v-54h-595v-584h498v-54h-498v-612h595v-54h-773zM632 1477l-50 -9l-250 188q-38 30 -38 62q0 23 16.5 39t41.5 16q32 0 63 -37z" />
    <glyph glyph-name="Eacute" unicode="&#xc9;" horiz-adv-x="1001" 
d="M410 1468l-50 9l217 259q31 37 63 37q25 0 41.5 -16t16.5 -39q0 -32 -38 -62zM127 0v1358h773v-54h-595v-584h498v-54h-498v-612h595v-54h-773z" />
    <glyph glyph-name="Ecircumflex" unicode="&#xca;" horiz-adv-x="1001" 
d="M298 1473l234 300l233 -300l-46 -5l-187 135l-188 -135zM127 0v1358h773v-54h-595v-584h498v-54h-498v-612h595v-54h-773z" />
    <glyph glyph-name="Edieresis" unicode="&#xcb;" horiz-adv-x="1001" 
d="M691 1516q-37 0 -62.5 25.5t-25.5 62.5q0 36 25.5 61.5t62.5 25.5t62.5 -25.5t25.5 -61.5q0 -37 -25.5 -62.5t-62.5 -25.5zM375 1516q-37 0 -62.5 25.5t-25.5 62.5q0 36 25.5 61.5t62.5 25.5q36 0 61.5 -25.5t25.5 -61.5q0 -37 -25.5 -62.5t-61.5 -25.5zM127 0v1358h773
v-54h-595v-584h498v-54h-498v-612h595v-54h-773z" />
    <glyph glyph-name="Igrave" unicode="&#xcc;" horiz-adv-x="456" 
d="M139 0v1358h178v-1358h-178zM333 1477l-50 -9l-250 188q-38 30 -38 62q0 23 16.5 39t41.5 16q32 0 63 -37z" />
    <glyph glyph-name="Iacute" unicode="&#xcd;" horiz-adv-x="456" 
d="M139 0v1358h178v-1358h-178zM171 1468l-50 9l217 259q31 37 63 37q25 0 41.5 -16t16.5 -39q0 -32 -38 -62z" />
    <glyph glyph-name="Icircumflex" unicode="&#xce;" horiz-adv-x="456" 
d="M139 0v1358h178v-1358h-178zM-5 1473l234 300l233 -300l-46 -5l-187 135l-188 -135z" />
    <glyph glyph-name="Idieresis" unicode="&#xcf;" horiz-adv-x="456" 
d="M139 0v1358h178v-1358h-178zM386 1516q-37 0 -62.5 25.5t-25.5 62.5q0 36 25.5 61.5t62.5 25.5t62.5 -25.5t25.5 -61.5q0 -37 -25.5 -62.5t-62.5 -25.5zM70 1516q-37 0 -62.5 25.5t-25.5 62.5q0 36 25.5 61.5t62.5 25.5q36 0 61.5 -25.5t25.5 -61.5q0 -37 -25.5 -62.5
t-61.5 -25.5z" />
    <glyph glyph-name="Eth" unicode="&#xd0;" horiz-adv-x="1308" 
d="M127 0v666h-142v54h142v638h363q204 0 372 -85t267 -241t99 -353t-99 -353t-267 -241t-372 -85h-363zM305 54h181q114 0 215 44t176.5 123t119.5 198t44 260t-44 260t-119.5 198t-176.5 123t-215 44h-181v-584h396v-54h-396v-612z" />
    <glyph glyph-name="Ntilde" unicode="&#xd1;" horiz-adv-x="1311" 
d="M127 0v1381l1003 -1087v1064h54v-1381l-1003 1087v-1064h-54zM385 1494q0 81 43.5 132t128.5 51q54 0 142.5 -33.5t131.5 -33.5q33 0 56 19.5t27 60.5h42q0 -81 -44 -134t-129 -53q-55 0 -143 33.5t-126 33.5q-79 0 -87 -76h-42z" />
    <glyph glyph-name="Ograve" unicode="&#xd2;" horiz-adv-x="1614" 
d="M83 679q0 148 56.5 279t153.5 224.5t231 147.5t283 54q200 0 366 -92t262 -254t96 -359q0 -151 -56.5 -283t-153.5 -224t-230.5 -145t-283.5 -53q-200 0 -365.5 89.5t-262 252t-96.5 363.5zM277 679q0 -190 65.5 -338t186.5 -230.5t278 -82.5q238 0 384.5 181t146.5 470
q0 288 -146.5 469.5t-384.5 181.5q-237 0 -383.5 -181.5t-146.5 -469.5zM942 1477l-50 -9l-250 188q-38 30 -38 62q0 23 16.5 39t41.5 16q32 0 63 -37z" />
    <glyph glyph-name="Oacute" unicode="&#xd3;" horiz-adv-x="1614" 
d="M720 1468l-50 9l217 259q31 37 63 37q25 0 41.5 -16t16.5 -39q0 -32 -38 -62zM83 679q0 148 56.5 279t153.5 224.5t231 147.5t283 54q200 0 366 -92t262 -254t96 -359q0 -151 -56.5 -283t-153.5 -224t-230.5 -145t-283.5 -53q-200 0 -365.5 89.5t-262 252t-96.5 363.5z
M277 679q0 -190 65.5 -338t186.5 -230.5t278 -82.5q238 0 384.5 181t146.5 470q0 288 -146.5 469.5t-384.5 181.5q-237 0 -383.5 -181.5t-146.5 -469.5z" />
    <glyph glyph-name="Ocircumflex" unicode="&#xd4;" horiz-adv-x="1614" 
d="M573 1473l234 300l233 -300l-46 -5l-187 135l-188 -135zM83 679q0 148 56.5 279t153.5 224.5t231 147.5t283 54q200 0 366 -92t262 -254t96 -359q0 -151 -56.5 -283t-153.5 -224t-230.5 -145t-283.5 -53q-200 0 -365.5 89.5t-262 252t-96.5 363.5zM277 679
q0 -190 65.5 -338t186.5 -230.5t278 -82.5q238 0 384.5 181t146.5 470q0 288 -146.5 469.5t-384.5 181.5q-237 0 -383.5 -181.5t-146.5 -469.5z" />
    <glyph glyph-name="Otilde" unicode="&#xd5;" horiz-adv-x="1614" 
d="M83 679q0 148 56.5 279t153.5 224.5t231 147.5t283 54q200 0 366 -92t262 -254t96 -359q0 -151 -56.5 -283t-153.5 -224t-230.5 -145t-283.5 -53q-200 0 -365.5 89.5t-262 252t-96.5 363.5zM277 679q0 -190 65.5 -338t186.5 -230.5t278 -82.5q238 0 384.5 181t146.5 470
q0 288 -146.5 469.5t-384.5 181.5q-237 0 -383.5 -181.5t-146.5 -469.5zM521 1494q0 81 43.5 132t128.5 51q54 0 142.5 -33.5t131.5 -33.5q33 0 56 19.5t27 60.5h42q0 -81 -44 -134t-129 -53q-55 0 -143 33.5t-126 33.5q-79 0 -87 -76h-42z" />
    <glyph glyph-name="Odieresis" unicode="&#xd6;" horiz-adv-x="1614" 
d="M965 1516q-37 0 -62.5 25.5t-25.5 62.5q0 36 25.5 61.5t62.5 25.5t62.5 -25.5t25.5 -61.5q0 -37 -25.5 -62.5t-62.5 -25.5zM649 1516q-37 0 -62.5 25.5t-25.5 62.5q0 36 25.5 61.5t62.5 25.5q36 0 61.5 -25.5t25.5 -61.5q0 -37 -25.5 -62.5t-61.5 -25.5zM83 679
q0 148 56.5 279t153.5 224.5t231 147.5t283 54q200 0 366 -92t262 -254t96 -359q0 -151 -56.5 -283t-153.5 -224t-230.5 -145t-283.5 -53q-200 0 -365.5 89.5t-262 252t-96.5 363.5zM277 679q0 -190 65.5 -338t186.5 -230.5t278 -82.5q238 0 384.5 181t146.5 470
q0 288 -146.5 469.5t-384.5 181.5q-237 0 -383.5 -181.5t-146.5 -469.5z" />
    <glyph glyph-name="multiply" unicode="&#xd7;" horiz-adv-x="949" 
d="M109 135l328 329l-328 329l37 38l328 -330l329 330l37 -38l-328 -329l328 -329l-37 -38l-329 329l-328 -329z" />
    <glyph glyph-name="Oslash" unicode="&#xd8;" horiz-adv-x="1614" 
d="M465 -147l66 170q-203 77 -325.5 251.5t-122.5 404.5q0 148 56.5 279t153.5 224.5t231 147.5t283 54q123 0 242 -39l64 163h44l-69 -177q200 -79 321.5 -254t121.5 -398q0 -151 -56.5 -283t-153.5 -224t-230.5 -145t-283.5 -53q-121 0 -237 36l-61 -157h-44zM558 92
l466 1190q-99 48 -217 48q-237 0 -383.5 -181.5t-146.5 -469.5q0 -202 74.5 -356t206.5 -231zM595 73q95 -45 212 -45q238 0 384.5 181t146.5 470q0 199 -73.5 352t-203.5 231z" />
    <glyph glyph-name="Ugrave" unicode="&#xd9;" horiz-adv-x="1205" 
d="M1098 1358v-807q0 -158 -29 -266t-111 -191q-114 -117 -330 -117q-232 0 -358 115q-95 86 -129 209.5t-34 337.5v719h178v-758q0 -196 14.5 -292.5t61.5 -160.5q84 -116 267 -116q188 0 290 99q74 72 99.5 176.5t25.5 247.5v804h55zM715 1477l-50 -9l-250 188
q-38 30 -38 62q0 23 16.5 39t41.5 16q32 0 63 -37z" />
    <glyph glyph-name="Uacute" unicode="&#xda;" horiz-adv-x="1205" 
d="M540 1468l-50 9l217 259q31 37 63 37q25 0 41.5 -16t16.5 -39q0 -32 -38 -62zM1098 1358v-807q0 -158 -29 -266t-111 -191q-114 -117 -330 -117q-232 0 -358 115q-95 86 -129 209.5t-34 337.5v719h178v-758q0 -196 14.5 -292.5t61.5 -160.5q84 -116 267 -116
q188 0 290 99q74 72 99.5 176.5t25.5 247.5v804h55z" />
    <glyph glyph-name="Ucircumflex" unicode="&#xdb;" horiz-adv-x="1205" 
d="M407 1473l234 300l233 -300l-46 -5l-187 135l-188 -135zM1098 1358v-807q0 -158 -29 -266t-111 -191q-114 -117 -330 -117q-232 0 -358 115q-95 86 -129 209.5t-34 337.5v719h178v-758q0 -196 14.5 -292.5t61.5 -160.5q84 -116 267 -116q188 0 290 99q74 72 99.5 176.5
t25.5 247.5v804h55z" />
    <glyph glyph-name="Udieresis" unicode="&#xdc;" horiz-adv-x="1205" 
d="M800 1516q-37 0 -62.5 25.5t-25.5 62.5q0 36 25.5 61.5t62.5 25.5t62.5 -25.5t25.5 -61.5q0 -37 -25.5 -62.5t-62.5 -25.5zM484 1516q-37 0 -62.5 25.5t-25.5 62.5q0 36 25.5 61.5t62.5 25.5q36 0 61.5 -25.5t25.5 -61.5q0 -37 -25.5 -62.5t-61.5 -25.5zM1098 1358v-807
q0 -158 -29 -266t-111 -191q-114 -117 -330 -117q-232 0 -358 115q-95 86 -129 209.5t-34 337.5v719h178v-758q0 -196 14.5 -292.5t61.5 -160.5q84 -116 267 -116q188 0 290 99q74 72 99.5 176.5t25.5 247.5v804h55z" />
    <glyph glyph-name="Yacute" unicode="&#xdd;" horiz-adv-x="1190" 
d="M503 0v609l-442 749h201l402 -685l402 685h63l-448 -765v-593h-178zM594 1468l-50 9l217 259q31 37 63 37q25 0 41.5 -16t16.5 -39q0 -32 -38 -62z" />
    <glyph glyph-name="Thorn" unicode="&#xde;" horiz-adv-x="1030" 
d="M127 0v1358h178v-243h177q101 0 187 -22t153.5 -66t106 -117t38.5 -169t-38.5 -169t-106 -116.5t-153.5 -65.5t-187 -22h-177v-368h-178zM305 421h127q181 0 263.5 79t82.5 241q0 161 -83 241t-263 80h-127v-641z" />
    <glyph glyph-name="germandbls" unicode="&#xdf;" horiz-adv-x="1045" 
d="M123 0v893q0 108 25 196t74 152.5t127 100t178 35.5q137 0 201 -60t64 -153q0 -53 -21 -98t-51 -75.5t-60 -57.5t-51 -58.5t-21 -65.5q0 -46 40 -90.5t96.5 -86.5t113 -90t96.5 -120t40 -158q0 -136 -90 -209t-227 -73q-47 0 -89 11t-68 26t-45.5 30.5t-28.5 26.5l-8 11
v105q3 -6 8 -16.5t25 -37.5t43.5 -47.5t63 -37.5t83.5 -17q80 0 121 46.5t41 130.5q0 55 -19 104t-49 86.5t-66.5 72t-72.5 66.5t-66 65t-49 73.5t-19 84.5q0 46 20.5 84.5t51 63t66.5 52t66.5 52t51 62.5t20.5 84q0 76 -51 118t-140 42q-55 0 -98 -17.5t-80.5 -59.5
t-58.5 -122.5t-21 -196.5v-927h-166z" />
    <glyph glyph-name="agrave" unicode="&#xe0;" horiz-adv-x="990" 
d="M930 70v-47q-26 -23 -83 -23q-59 0 -113 34.5t-84 109.5q-78 -158 -285 -158q-127 0 -205.5 61t-78.5 176q0 36 9 66.5t22.5 54t40.5 46.5t51 39t67 36t74.5 33t87.5 34q62 24 98 43.5t55 41t24.5 41.5t5.5 52q0 63 -30.5 101.5t-117.5 38.5q-51 0 -98.5 -14t-79 -33
t-57.5 -41.5t-36.5 -35t-13.5 -17.5v99q4 4 12 10.5t36 22.5t60 28.5t84.5 23t108.5 10.5q304 0 304 -284v-367q0 -198 84 -198q14 0 28.5 4t21.5 8zM622 317v226q0 51 -1 72q-16 -41 -49 -65t-126 -72q-104 -53 -149 -107t-45 -143q0 -85 42 -136.5t118 -51.5q77 0 135 43
t87 115q-12 51 -12 119zM610 1017l-50 -9l-250 188q-38 30 -38 62q0 23 16.5 39t41.5 16q32 0 63 -37z" />
    <glyph glyph-name="aacute" unicode="&#xe1;" horiz-adv-x="990" 
d="M930 70v-47q-26 -23 -83 -23q-59 0 -113 34.5t-84 109.5q-78 -158 -285 -158q-127 0 -205.5 61t-78.5 176q0 36 9 66.5t22.5 54t40.5 46.5t51 39t67 36t74.5 33t87.5 34q62 24 98 43.5t55 41t24.5 41.5t5.5 52q0 63 -30.5 101.5t-117.5 38.5q-51 0 -98.5 -14t-79 -33
t-57.5 -41.5t-36.5 -35t-13.5 -17.5v99q4 4 12 10.5t36 22.5t60 28.5t84.5 23t108.5 10.5q304 0 304 -284v-367q0 -198 84 -198q14 0 28.5 4t21.5 8zM622 317v226q0 51 -1 72q-16 -41 -49 -65t-126 -72q-104 -53 -149 -107t-45 -143q0 -85 42 -136.5t118 -51.5q77 0 135 43
t87 115q-12 51 -12 119zM385 1008l-50 9l217 259q31 37 63 37q25 0 41.5 -16t16.5 -39q0 -32 -38 -62z" />
    <glyph glyph-name="acircumflex" unicode="&#xe2;" horiz-adv-x="990" 
d="M930 70v-47q-26 -23 -83 -23q-59 0 -113 34.5t-84 109.5q-78 -158 -285 -158q-127 0 -205.5 61t-78.5 176q0 36 9 66.5t22.5 54t40.5 46.5t51 39t67 36t74.5 33t87.5 34q62 24 98 43.5t55 41t24.5 41.5t5.5 52q0 63 -30.5 101.5t-117.5 38.5q-51 0 -98.5 -14t-79 -33
t-57.5 -41.5t-36.5 -35t-13.5 -17.5v99q4 4 12 10.5t36 22.5t60 28.5t84.5 23t108.5 10.5q304 0 304 -284v-367q0 -198 84 -198q14 0 28.5 4t21.5 8zM622 317v226q0 51 -1 72q-16 -41 -49 -65t-126 -72q-104 -53 -149 -107t-45 -143q0 -85 42 -136.5t118 -51.5q77 0 135 43
t87 115q-12 51 -12 119zM241 1013l234 300l233 -300l-46 -5l-187 135l-188 -135z" />
    <glyph glyph-name="atilde" unicode="&#xe3;" horiz-adv-x="990" 
d="M930 70v-47q-26 -23 -83 -23q-59 0 -113 34.5t-84 109.5q-78 -158 -285 -158q-127 0 -205.5 61t-78.5 176q0 36 9 66.5t22.5 54t40.5 46.5t51 39t67 36t74.5 33t87.5 34q62 24 98 43.5t55 41t24.5 41.5t5.5 52q0 63 -30.5 101.5t-117.5 38.5q-51 0 -98.5 -14t-79 -33
t-57.5 -41.5t-36.5 -35t-13.5 -17.5v99q4 4 12 10.5t36 22.5t60 28.5t84.5 23t108.5 10.5q304 0 304 -284v-367q0 -198 84 -198q14 0 28.5 4t21.5 8zM622 317v226q0 51 -1 72q-16 -41 -49 -65t-126 -72q-104 -53 -149 -107t-45 -143q0 -85 42 -136.5t118 -51.5q77 0 135 43
t87 115q-12 51 -12 119zM205 1035q0 81 43.5 132t128.5 51q54 0 142.5 -33.5t131.5 -33.5q33 0 56 19.5t27 60.5h42q0 -81 -44 -134t-129 -53q-55 0 -143 33.5t-126 33.5q-79 0 -87 -76h-42z" />
    <glyph glyph-name="adieresis" unicode="&#xe4;" horiz-adv-x="990" 
d="M930 70v-47q-26 -23 -83 -23q-59 0 -113 34.5t-84 109.5q-78 -158 -285 -158q-127 0 -205.5 61t-78.5 176q0 36 9 66.5t22.5 54t40.5 46.5t51 39t67 36t74.5 33t87.5 34q62 24 98 43.5t55 41t24.5 41.5t5.5 52q0 63 -30.5 101.5t-117.5 38.5q-51 0 -98.5 -14t-79 -33
t-57.5 -41.5t-36.5 -35t-13.5 -17.5v99q4 4 12 10.5t36 22.5t60 28.5t84.5 23t108.5 10.5q304 0 304 -284v-367q0 -198 84 -198q14 0 28.5 4t21.5 8zM622 317v226q0 51 -1 72q-16 -41 -49 -65t-126 -72q-104 -53 -149 -107t-45 -143q0 -85 42 -136.5t118 -51.5q77 0 135 43
t87 115q-12 51 -12 119zM634 1056q-37 0 -62.5 25.5t-25.5 62.5q0 36 25.5 61.5t62.5 25.5t62.5 -25.5t25.5 -61.5q0 -37 -25.5 -62.5t-62.5 -25.5zM318 1056q-37 0 -62.5 25.5t-25.5 62.5q0 36 25.5 61.5t62.5 25.5q36 0 61.5 -25.5t25.5 -61.5q0 -37 -25.5 -62.5
t-61.5 -25.5z" />
    <glyph glyph-name="aring" unicode="&#xe5;" horiz-adv-x="990" 
d="M930 70v-47q-26 -23 -83 -23q-59 0 -113 34.5t-84 109.5q-78 -158 -285 -158q-127 0 -205.5 61t-78.5 176q0 36 9 66.5t22.5 54t40.5 46.5t51 39t67 36t74.5 33t87.5 34q62 24 98 43.5t55 41t24.5 41.5t5.5 52q0 63 -30.5 101.5t-117.5 38.5q-51 0 -98.5 -14t-79 -33
t-57.5 -41.5t-36.5 -35t-13.5 -17.5v99q4 4 12 10.5t36 22.5t60 28.5t84.5 23t108.5 10.5q304 0 304 -284v-367q0 -198 84 -198q14 0 28.5 4t21.5 8zM622 317v226q0 51 -1 72q-16 -41 -49 -65t-126 -72q-104 -53 -149 -107t-45 -143q0 -85 42 -136.5t118 -51.5q77 0 135 43
t87 115q-12 51 -12 119zM476 1014q-76 0 -125.5 36.5t-49.5 99.5q0 64 49 101t126 37q76 0 124.5 -37t48.5 -101q0 -63 -48.5 -99.5t-124.5 -36.5zM476 1054q67 0 67 96q0 47 -18 72t-49 25q-32 0 -50 -25t-18 -72q0 -96 68 -96z" />
    <glyph glyph-name="ae" unicode="&#xe6;" horiz-adv-x="1464" 
d="M1315 206v-100q-4 -5 -11 -13t-32.5 -28.5t-56 -36.5t-81 -29t-107.5 -13q-254 0 -353 211q-11 -36 -31 -69.5t-55 -67t-92.5 -54t-130.5 -20.5q-127 0 -205.5 61t-78.5 176q0 36 9 66.5t22.5 54t40.5 46.5t51 39t67 36t74.5 33t87.5 34q62 24 98 43.5t55 41t24.5 41.5
t5.5 52q0 63 -30.5 101.5t-117.5 38.5q-51 0 -98.5 -14t-79 -33t-57.5 -41.5t-36.5 -35t-13.5 -17.5v99q4 4 12 10.5t36 22.5t60 28.5t84.5 23t108.5 10.5q182 0 250 -115q107 115 269 115q168 0 269.5 -123t106.5 -320h-600q1 -71 7.5 -129.5t24.5 -114t45.5 -93t73 -60.5
t104.5 -23q58 0 109 19t85 48.5t54 53t33 45.5zM779 514h424q-7 163 -53.5 249.5t-148.5 86.5t-158.5 -91.5t-63.5 -244.5zM252 228q0 -85 42 -136.5t118 -51.5q92 0 156.5 61t82.5 157q-29 93 -29 205q0 131 -1 152q-16 -41 -49 -65t-126 -72q-104 -53 -149 -107t-45 -143z
" />
    <glyph glyph-name="ccedilla" unicode="&#xe7;" horiz-adv-x="932" 
d="M365 -128l125 117q-181 18 -296.5 140.5t-115.5 312.5q0 198 130 329.5t328 131.5q52 0 99.5 -8t78.5 -20t54.5 -24t33.5 -20l11 -8v-102q-3 5 -9.5 14t-31 31t-53.5 39t-78.5 31t-104.5 14q-96 0 -162 -57.5t-95 -147t-29 -202.5q0 -181 80 -292t233 -111
q52 0 99.5 14.5t75 31t52.5 41t31 32t12 17.5v-102q-4 -4 -11.5 -9.5t-34 -20.5t-56.5 -27t-80 -21.5t-104 -9.5l-66 -73q62 -8 109 -51t47 -108q0 -69 -55 -112t-149 -43q-33 0 -61.5 6t-40.5 11l-12 6l-5 46q49 -21 101 -21q59 0 84.5 29.5t25.5 72.5q0 58 -46.5 90.5
t-113.5 32.5z" />
    <glyph glyph-name="egrave" unicode="&#xe8;" horiz-adv-x="966" 
d="M825 206v-100q-4 -5 -11.5 -13t-35 -28.5t-60 -36.5t-87 -29t-114.5 -13q-203 0 -321 132t-118 326q0 198 116 328.5t300 130.5q177 0 282 -123.5t115 -319.5h-641v-15q0 -62 7.5 -116.5t27.5 -108.5t51 -93t81.5 -63t116.5 -24q58 0 110 19t88 48.5t57.5 53t35.5 45.5z
M252 514h463q-11 160 -62 248t-158 88q-106 0 -169 -88t-74 -248zM632 1017l-50 -9l-250 188q-38 30 -38 62q0 23 16.5 39t41.5 16q32 0 63 -37z" />
    <glyph glyph-name="eacute" unicode="&#xe9;" horiz-adv-x="966" 
d="M396 1008l-50 9l217 259q31 37 63 37q25 0 41.5 -16t16.5 -39q0 -32 -38 -62zM825 206v-100q-4 -5 -11.5 -13t-35 -28.5t-60 -36.5t-87 -29t-114.5 -13q-203 0 -321 132t-118 326q0 198 116 328.5t300 130.5q177 0 282 -123.5t115 -319.5h-641v-15q0 -62 7.5 -116.5
t27.5 -108.5t51 -93t81.5 -63t116.5 -24q58 0 110 19t88 48.5t57.5 53t35.5 45.5zM252 514h463q-11 160 -62 248t-158 88q-106 0 -169 -88t-74 -248z" />
    <glyph glyph-name="ecircumflex" unicode="&#xea;" horiz-adv-x="966" 
d="M489 1313l234 -300l-46 -5l-188 135l-187 -135l-46 5zM825 206v-100q-4 -5 -11.5 -13t-35 -28.5t-60 -36.5t-87 -29t-114.5 -13q-203 0 -321 132t-118 326q0 198 116 328.5t300 130.5q177 0 282 -123.5t115 -319.5h-641v-15q0 -62 7.5 -116.5t27.5 -108.5t51 -93
t81.5 -63t116.5 -24q58 0 110 19t88 48.5t57.5 53t35.5 45.5zM252 514h463q-11 160 -62 248t-158 88q-106 0 -169 -88t-74 -248z" />
    <glyph glyph-name="edieresis" unicode="&#xeb;" horiz-adv-x="966" 
d="M332 1056q-37 0 -62.5 25.5t-25.5 62.5q0 36 25.5 61.5t62.5 25.5t62.5 -25.5t25.5 -61.5q0 -37 -25.5 -62.5t-62.5 -25.5zM648 1056q-36 0 -61.5 25.5t-25.5 62.5q0 36 25.5 61.5t61.5 25.5q37 0 62.5 -25.5t25.5 -61.5q0 -37 -25.5 -62.5t-62.5 -25.5zM825 206v-100
q-4 -5 -11.5 -13t-35 -28.5t-60 -36.5t-87 -29t-114.5 -13q-203 0 -321 132t-118 326q0 198 116 328.5t300 130.5q177 0 282 -123.5t115 -319.5h-641v-15q0 -62 7.5 -116.5t27.5 -108.5t51 -93t81.5 -63t116.5 -24q58 0 110 19t88 48.5t57.5 53t35.5 45.5zM252 514h463
q-11 160 -62 248t-158 88q-106 0 -169 -88t-74 -248z" />
    <glyph glyph-name="igrave" unicode="&#xec;" horiz-adv-x="436" 
d="M135 0v886h166v-886h-166zM361 1017l-50 -9l-250 188q-38 30 -38 62q0 23 16.5 39t41.5 16q32 0 63 -37z" />
    <glyph glyph-name="iacute" unicode="&#xed;" horiz-adv-x="436" 
d="M125 1008l-50 9l217 259q31 37 63 37q25 0 41.5 -16t16.5 -39q0 -32 -38 -62zM135 0v886h166v-886h-166z" />
    <glyph glyph-name="icircumflex" unicode="&#xee;" horiz-adv-x="436" 
d="M-16 1013l234 300l233 -300l-46 -5l-187 135l-188 -135zM135 0v886h166v-886h-166z" />
    <glyph glyph-name="idieresis" unicode="&#xef;" horiz-adv-x="436" 
d="M377 1056q-37 0 -62.5 25.5t-25.5 62.5q0 36 25.5 61.5t62.5 25.5t62.5 -25.5t25.5 -61.5q0 -37 -25.5 -62.5t-62.5 -25.5zM61 1056q-37 0 -62.5 25.5t-25.5 62.5q0 36 25.5 61.5t62.5 25.5q36 0 61.5 -25.5t25.5 -61.5q0 -37 -25.5 -62.5t-61.5 -25.5zM135 0v886h166
v-886h-166z" />
    <glyph glyph-name="eth" unicode="&#xf0;" horiz-adv-x="1015" 
d="M866 1310l-271 -135q155 -128 245 -311.5t90 -411.5q0 -207 -119 -336.5t-305 -129.5q-188 0 -308 130t-120 327q0 198 120 329t303 131q93 0 176 -44q-70 153 -177 268l-266 -133l-26 48l251 125q-109 101 -241 157l43 33q157 -51 287 -146l293 146zM504 40
q66 0 116 31.5t80 87.5t44.5 126.5t14.5 155.5q0 114 -25 203t-84 147.5t-147 58.5q-87 0 -145.5 -58t-83 -146.5t-24.5 -202.5t24.5 -202t83.5 -144.5t146 -56.5z" />
    <glyph glyph-name="ntilde" unicode="&#xf1;" horiz-adv-x="1006" 
d="M123 0v886h166v-280q8 41 20.5 78t36.5 78.5t56 71.5t81 49.5t109 19.5q137 0 217 -91.5t80 -243.5v-568h-166v568q0 47 -2.5 81.5t-12.5 75t-27 66t-48 42.5t-74 17q-90 0 -153 -70t-90 -170.5t-27 -217.5v-392h-166zM229 1034q0 81 43.5 132t128.5 51q54 0 142.5 -33.5
t131.5 -33.5q33 0 56 19.5t27 60.5h42q0 -81 -44 -134t-129 -53q-55 0 -143 33.5t-126 33.5q-79 0 -87 -76h-42z" />
    <glyph glyph-name="ograve" unicode="&#xf2;" horiz-adv-x="1018" 
d="M78 441q0 196 122.5 329t308.5 133t308.5 -133t122.5 -329t-122.5 -325.5t-308.5 -129.5q-187 0 -309 129.5t-122 325.5zM250 441q0 -115 25 -202.5t85 -143t149 -55.5t148.5 55.5t85.5 143t26 202.5q0 114 -25.5 203.5t-86 147.5t-148.5 58q-67 0 -118.5 -32.5
t-81.5 -90t-44.5 -129.5t-14.5 -157zM675 1017l-50 -9l-250 188q-38 30 -38 62q0 23 16.5 39t41.5 16q32 0 63 -37z" />
    <glyph glyph-name="oacute" unicode="&#xf3;" horiz-adv-x="1018" 
d="M384 1008l-50 9l217 259q31 37 63 37q25 0 41.5 -16t16.5 -39q0 -32 -38 -62zM78 441q0 196 122.5 329t308.5 133t308.5 -133t122.5 -329t-122.5 -325.5t-308.5 -129.5q-187 0 -309 129.5t-122 325.5zM250 441q0 -115 25 -202.5t85 -143t149 -55.5t148.5 55.5t85.5 143
t26 202.5q0 114 -25.5 203.5t-86 147.5t-148.5 58q-67 0 -118.5 -32.5t-81.5 -90t-44.5 -129.5t-14.5 -157z" />
    <glyph glyph-name="ocircumflex" unicode="&#xf4;" horiz-adv-x="1018" 
d="M275 1013l234 300l233 -300l-46 -5l-187 135l-188 -135zM78 441q0 196 122.5 329t308.5 133t308.5 -133t122.5 -329t-122.5 -325.5t-308.5 -129.5q-187 0 -309 129.5t-122 325.5zM250 441q0 -115 25 -202.5t85 -143t149 -55.5t148.5 55.5t85.5 143t26 202.5
q0 114 -25.5 203.5t-86 147.5t-148.5 58q-67 0 -118.5 -32.5t-81.5 -90t-44.5 -129.5t-14.5 -157z" />
    <glyph glyph-name="otilde" unicode="&#xf5;" horiz-adv-x="1018" 
d="M78 441q0 196 122.5 329t308.5 133t308.5 -133t122.5 -329t-122.5 -325.5t-308.5 -129.5q-187 0 -309 129.5t-122 325.5zM250 441q0 -115 25 -202.5t85 -143t149 -55.5t148.5 55.5t85.5 143t26 202.5q0 114 -25.5 203.5t-86 147.5t-148.5 58q-67 0 -118.5 -32.5
t-81.5 -90t-44.5 -129.5t-14.5 -157zM229 1034q0 81 43.5 132t128.5 51q54 0 142.5 -33.5t131.5 -33.5q33 0 56 19.5t27 60.5h42q0 -81 -44 -134t-129 -53q-55 0 -143 33.5t-126 33.5q-79 0 -87 -76h-42z" />
    <glyph glyph-name="odieresis" unicode="&#xf6;" horiz-adv-x="1018" 
d="M668 1056q-37 0 -62.5 25.5t-25.5 62.5q0 36 25.5 61.5t62.5 25.5t62.5 -25.5t25.5 -61.5q0 -37 -25.5 -62.5t-62.5 -25.5zM352 1056q-37 0 -62.5 25.5t-25.5 62.5q0 36 25.5 61.5t62.5 25.5q36 0 61.5 -25.5t25.5 -61.5q0 -37 -25.5 -62.5t-61.5 -25.5zM78 441
q0 196 122.5 329t308.5 133t308.5 -133t122.5 -329t-122.5 -325.5t-308.5 -129.5q-187 0 -309 129.5t-122 325.5zM250 441q0 -115 25 -202.5t85 -143t149 -55.5t148.5 55.5t85.5 143t26 202.5q0 114 -25.5 203.5t-86 147.5t-148.5 58q-67 0 -118.5 -32.5t-81.5 -90
t-44.5 -129.5t-14.5 -157z" />
    <glyph glyph-name="divide" unicode="&#xf7;" horiz-adv-x="1122" 
d="M560 686q-42 0 -71.5 29.5t-29.5 71.5t29.5 71t71.5 29t71.5 -29t29.5 -71t-30 -71.5t-71 -29.5zM109 437v53h904v-53h-904zM459 142q0 42 29.5 71.5t71.5 29.5q41 0 71 -29.5t30 -71.5t-30 -71.5t-71 -29.5q-42 0 -71.5 29.5t-29.5 71.5z" />
    <glyph glyph-name="oslash" unicode="&#xf8;" horiz-adv-x="1018" 
d="M159 -127l107 186q-88 60 -138 160t-50 222q0 196 122.5 329t308.5 133q116 0 212 -56l91 159h46l-104 -180q87 -62 136.5 -163t49.5 -222q0 -196 -122.5 -325.5t-308.5 -129.5q-116 0 -209 52l-95 -165h-46zM317 146l360 626q-67 78 -168 78q-67 0 -118.5 -32.5
t-81.5 -90t-44.5 -129.5t-14.5 -157q0 -190 67 -295zM342 112q64 -72 167 -72q89 0 148.5 55.5t85.5 143t26 202.5q0 186 -67 295z" />
    <glyph glyph-name="ugrave" unicode="&#xf9;" horiz-adv-x="1006" 
d="M117 321v565h166v-565q0 -46 2.5 -81t12.5 -75t27 -65.5t48 -42.5t74 -17q70 0 123.5 41.5t84.5 111.5t46.5 151.5t15.5 170.5v371h166v-886h-166v283q-8 -41 -20.5 -78.5t-37 -79t-56.5 -71t-81 -49t-109 -19.5q-136 0 -216 91.5t-80 243.5zM682 1017l-50 -9l-250 188
q-38 30 -38 62q0 23 16.5 39t41.5 16q32 0 63 -37z" />
    <glyph glyph-name="uacute" unicode="&#xfa;" horiz-adv-x="1006" 
d="M394 1008l-50 9l217 259q31 37 63 37q25 0 41.5 -16t16.5 -39q0 -32 -38 -62zM117 321v565h166v-565q0 -46 2.5 -81t12.5 -75t27 -65.5t48 -42.5t74 -17q70 0 123.5 41.5t84.5 111.5t46.5 151.5t15.5 170.5v371h166v-886h-166v283q-8 -41 -20.5 -78.5t-37 -79t-56.5 -71
t-81 -49t-109 -19.5q-136 0 -216 91.5t-80 243.5z" />
    <glyph glyph-name="ucircumflex" unicode="&#xfb;" horiz-adv-x="1006" 
d="M266 1013l234 300l233 -300l-46 -5l-187 135l-188 -135zM117 321v565h166v-565q0 -46 2.5 -81t12.5 -75t27 -65.5t48 -42.5t74 -17q70 0 123.5 41.5t84.5 111.5t46.5 151.5t15.5 170.5v371h166v-886h-166v283q-8 -41 -20.5 -78.5t-37 -79t-56.5 -71t-81 -49t-109 -19.5
q-136 0 -216 91.5t-80 243.5z" />
    <glyph glyph-name="udieresis" unicode="&#xfc;" horiz-adv-x="1006" 
d="M659 1056q-37 0 -62.5 25.5t-25.5 62.5q0 36 25.5 61.5t62.5 25.5t62.5 -25.5t25.5 -61.5q0 -37 -25.5 -62.5t-62.5 -25.5zM343 1056q-37 0 -62.5 25.5t-25.5 62.5q0 36 25.5 61.5t62.5 25.5q36 0 61.5 -25.5t25.5 -61.5q0 -37 -25.5 -62.5t-61.5 -25.5zM117 321v565h166
v-565q0 -46 2.5 -81t12.5 -75t27 -65.5t48 -42.5t74 -17q70 0 123.5 41.5t84.5 111.5t46.5 151.5t15.5 170.5v371h166v-886h-166v283q-8 -41 -20.5 -78.5t-37 -79t-56.5 -71t-81 -49t-109 -19.5q-136 0 -216 91.5t-80 243.5z" />
    <glyph glyph-name="yacute" unicode="&#xfd;" horiz-adv-x="938" 
d="M448 41l-380 845h174l292 -650l291 650h59l-600 -1344h-59zM453 1008l-50 9l217 259q31 37 63 37q25 0 41.5 -16t16.5 -39q0 -32 -38 -62z" />
    <glyph glyph-name="thorn" unicode="&#xfe;" horiz-adv-x="1052" 
d="M289 131v-589h-166v1816h166v-599q84 144 271 144q176 0 295 -132t119 -325q0 -194 -119 -327t-298 -133q-185 0 -268 145zM289 446q0 -114 24.5 -202.5t83 -146t146.5 -57.5t148 57.5t86 146.5t26 202q0 114 -26 202.5t-86 145t-148 56.5t-146.5 -57.5t-83 -145.5
t-24.5 -201z" />
    <glyph glyph-name="ydieresis" unicode="&#xff;" horiz-adv-x="938" 
d="M448 41l-380 845h174l292 -650l291 650h59l-600 -1344h-59zM666 1056q-37 0 -62.5 25.5t-25.5 62.5q0 36 25.5 61.5t62.5 25.5t62.5 -25.5t25.5 -61.5q0 -37 -25.5 -62.5t-62.5 -25.5zM350 1056q-37 0 -62.5 25.5t-25.5 62.5q0 36 25.5 61.5t62.5 25.5q36 0 61.5 -25.5
t25.5 -61.5q0 -37 -25.5 -62.5t-61.5 -25.5z" />
    <glyph glyph-name="Amacron" unicode="&#x100;" horiz-adv-x="1254" 
d="M67 0l560 1393l560 -1393h-187l-165 411h-547l-165 -411h-56zM309 465h504l-252 627zM377 1532v71h501v-71h-501z" />
    <glyph glyph-name="amacron" unicode="&#x101;" horiz-adv-x="990" 
d="M930 70v-47q-26 -23 -83 -23q-59 0 -113 34.5t-84 109.5q-78 -158 -285 -158q-127 0 -205.5 61t-78.5 176q0 36 9 66.5t22.5 54t40.5 46.5t51 39t67 36t74.5 33t87.5 34q62 24 98 43.5t55 41t24.5 41.5t5.5 52q0 63 -30.5 101.5t-117.5 38.5q-51 0 -98.5 -14t-79 -33
t-57.5 -41.5t-36.5 -35t-13.5 -17.5v99q4 4 12 10.5t36 22.5t60 28.5t84.5 23t108.5 10.5q304 0 304 -284v-367q0 -198 84 -198q14 0 28.5 4t21.5 8zM622 317v226q0 51 -1 72q-16 -41 -49 -65t-126 -72q-104 -53 -149 -107t-45 -143q0 -85 42 -136.5t118 -51.5q77 0 135 43
t87 115q-12 51 -12 119zM225 1072v71h501v-71h-501z" />
    <glyph glyph-name="Abreve" unicode="&#x102;" horiz-adv-x="1254" 
d="M67 0l560 1393l560 -1393h-187l-165 411h-547l-165 -411h-56zM309 465h504l-252 627zM814 1708l45 14q0 -112 -65.5 -182.5t-166.5 -70.5t-167 70.5t-66 182.5l45 -14q15 -57 63 -90t125 -33q76 0 124.5 33t62.5 90z" />
    <glyph glyph-name="abreve" unicode="&#x103;" horiz-adv-x="990" 
d="M930 70v-47q-26 -23 -83 -23q-59 0 -113 34.5t-84 109.5q-78 -158 -285 -158q-127 0 -205.5 61t-78.5 176q0 36 9 66.5t22.5 54t40.5 46.5t51 39t67 36t74.5 33t87.5 34q62 24 98 43.5t55 41t24.5 41.5t5.5 52q0 63 -30.5 101.5t-117.5 38.5q-51 0 -98.5 -14t-79 -33
t-57.5 -41.5t-36.5 -35t-13.5 -17.5v99q4 4 12 10.5t36 22.5t60 28.5t84.5 23t108.5 10.5q304 0 304 -284v-367q0 -198 84 -198q14 0 28.5 4t21.5 8zM622 317v226q0 51 -1 72q-16 -41 -49 -65t-126 -72q-104 -53 -149 -107t-45 -143q0 -85 42 -136.5t118 -51.5q77 0 135 43
t87 115q-12 51 -12 119zM662 1248l45 14q0 -112 -65.5 -182.5t-166.5 -70.5t-167 70.5t-66 182.5l45 -14q15 -57 63 -90t125 -33q76 0 124.5 33t62.5 90z" />
    <glyph glyph-name="Aogonek" unicode="&#x104;" horiz-adv-x="1254" 
d="M67 0l560 1393l560 -1393h-119q-86 -34 -141.5 -102t-55.5 -134q0 -34 15.5 -56.5t48.5 -22.5q25 0 48.5 9.5t34.5 19.5l11 10v-50q-6 -5 -17 -13t-47 -21t-75 -13q-63 0 -97 31t-34 85q0 78 69.5 145t171.5 112l-165 411h-547l-165 -411h-56zM309 465h504l-252 627z" />
    <glyph glyph-name="aogonek" unicode="&#x105;" horiz-adv-x="990" 
d="M855 -276v-50q-6 -5 -17 -13t-47 -21t-75 -13q-63 0 -97 31t-34 85q0 76 67.5 145t164.5 114q-52 8 -96.5 42t-70.5 100q-78 -158 -285 -158q-127 0 -205.5 61t-78.5 176q0 36 9 66.5t22.5 54t40.5 46.5t51 39t67 36t74.5 33t87.5 34q62 24 98 43.5t55 41t24.5 41.5
t5.5 52q0 63 -30.5 101.5t-117.5 38.5q-51 0 -98.5 -14t-79 -33t-57.5 -41.5t-36.5 -35t-13.5 -17.5v99q4 4 12 10.5t36 22.5t60 28.5t84.5 23t108.5 10.5q304 0 304 -284v-367q0 -198 84 -198q14 0 28.5 4t21.5 8l8 4v-47q-14 -11 -38 -18q-85 -33 -140 -104t-55 -137
q0 -34 15.5 -56.5t48.5 -22.5q25 0 48.5 9.5t34.5 19.5zM622 317v226q0 51 -1 72q-16 -41 -49 -65t-126 -72q-104 -53 -149 -107t-45 -143q0 -85 42 -136.5t118 -51.5q77 0 135 43t87 115q-12 51 -12 119z" />
    <glyph glyph-name="Cacute" unicode="&#x106;" horiz-adv-x="1371" 
d="M697 1468l-50 9l217 259q31 37 63 37q25 0 41.5 -16t16.5 -39q0 -32 -38 -62zM1254 210v-103q-180 -133 -452 -133q-152 0 -285.5 54t-228.5 147t-150 224t-55 280q0 198 93 359.5t258 253.5t368 92q229 0 415 -96v-97q-85 67 -193 103t-221 36q-152 0 -272 -81.5
t-186.5 -230t-66.5 -339.5q0 -289 146.5 -470t378.5 -181q129 0 247 49.5t204 132.5z" />
    <glyph glyph-name="cacute" unicode="&#x107;" horiz-adv-x="932" 
d="M419 1008l-50 9l217 259q31 37 63 37q25 0 41.5 -16t16.5 -39q0 -32 -38 -62zM833 177v-103q-4 -4 -11.5 -9.5t-34 -21t-57 -27t-81 -21t-104.5 -9.5q-201 0 -334 125.5t-133 330.5q0 198 130 329.5t328 131.5q52 0 99.5 -8t78.5 -20t54.5 -24t33.5 -20l11 -8v-102
q-3 5 -9.5 14t-31 31t-53.5 39t-78.5 31t-104.5 14q-96 0 -162 -57.5t-95 -147t-29 -202.5q0 -181 80 -292t233 -111q53 0 100.5 14t77.5 34t51.5 40.5t31.5 34.5z" />
    <glyph glyph-name="Ccircumflex" unicode="&#x108;" horiz-adv-x="1371" 
d="M548 1473l234 300l233 -300l-46 -5l-187 135l-188 -135zM1254 210v-103q-180 -133 -452 -133q-152 0 -285.5 54t-228.5 147t-150 224t-55 280q0 198 93 359.5t258 253.5t368 92q229 0 415 -96v-97q-85 67 -193 103t-221 36q-152 0 -272 -81.5t-186.5 -230t-66.5 -339.5
q0 -289 146.5 -470t378.5 -181q129 0 247 49.5t204 132.5z" />
    <glyph glyph-name="ccircumflex" unicode="&#x109;" horiz-adv-x="932" 
d="M267 1013l234 300l233 -300l-46 -5l-187 135l-188 -135zM833 177v-103q-4 -4 -11.5 -9.5t-34 -21t-57 -27t-81 -21t-104.5 -9.5q-201 0 -334 125.5t-133 330.5q0 198 130 329.5t328 131.5q52 0 99.5 -8t78.5 -20t54.5 -24t33.5 -20l11 -8v-102q-3 5 -9.5 14t-31 31
t-53.5 39t-78.5 31t-104.5 14q-96 0 -162 -57.5t-95 -147t-29 -202.5q0 -181 80 -292t233 -111q53 0 100.5 14t77.5 34t51.5 40.5t31.5 34.5z" />
    <glyph glyph-name="Cdotaccent" unicode="&#x10a;" horiz-adv-x="1371" 
d="M1254 210v-103q-180 -133 -452 -133q-152 0 -285.5 54t-228.5 147t-150 224t-55 280q0 198 93 359.5t258 253.5t368 92q229 0 415 -96v-97q-85 67 -193 103t-221 36q-152 0 -272 -81.5t-186.5 -230t-66.5 -339.5q0 -289 146.5 -470t378.5 -181q129 0 247 49.5t204 132.5z
M782 1535q-37 0 -62.5 25.5t-25.5 62.5q0 36 25.5 61.5t62.5 25.5q36 0 61.5 -25.5t25.5 -61.5q0 -37 -25.5 -62.5t-61.5 -25.5z" />
    <glyph glyph-name="cdotaccent" unicode="&#x10b;" horiz-adv-x="932" 
d="M833 177v-103q-4 -4 -11.5 -9.5t-34 -21t-57 -27t-81 -21t-104.5 -9.5q-201 0 -334 125.5t-133 330.5q0 198 130 329.5t328 131.5q52 0 99.5 -8t78.5 -20t54.5 -24t33.5 -20l11 -8v-102q-3 5 -9.5 14t-31 31t-53.5 39t-78.5 31t-104.5 14q-96 0 -162 -57.5t-95 -147
t-29 -202.5q0 -181 80 -292t233 -111q53 0 100.5 14t77.5 34t51.5 40.5t31.5 34.5zM501 1075q-37 0 -62.5 25.5t-25.5 62.5q0 36 25.5 61.5t62.5 25.5q36 0 61.5 -25.5t25.5 -61.5q0 -37 -25.5 -62.5t-61.5 -25.5z" />
    <glyph glyph-name="Ccaron" unicode="&#x10c;" horiz-adv-x="1371" 
d="M782 1468l-234 300l46 5l188 -134l187 134l46 -5zM1254 210v-103q-180 -133 -452 -133q-152 0 -285.5 54t-228.5 147t-150 224t-55 280q0 198 93 359.5t258 253.5t368 92q229 0 415 -96v-97q-85 67 -193 103t-221 36q-152 0 -272 -81.5t-186.5 -230t-66.5 -339.5
q0 -289 146.5 -470t378.5 -181q129 0 247 49.5t204 132.5z" />
    <glyph glyph-name="ccaron" unicode="&#x10d;" horiz-adv-x="932" 
d="M501 1008l-234 300l46 5l188 -134l187 134l46 -5zM833 177v-103q-4 -4 -11.5 -9.5t-34 -21t-57 -27t-81 -21t-104.5 -9.5q-201 0 -334 125.5t-133 330.5q0 198 130 329.5t328 131.5q52 0 99.5 -8t78.5 -20t54.5 -24t33.5 -20l11 -8v-102q-3 5 -9.5 14t-31 31t-53.5 39
t-78.5 31t-104.5 14q-96 0 -162 -57.5t-95 -147t-29 -202.5q0 -181 80 -292t233 -111q53 0 100.5 14t77.5 34t51.5 40.5t31.5 34.5z" />
    <glyph glyph-name="Dcaron" unicode="&#x10e;" horiz-adv-x="1301" 
d="M560 1468l-234 300l46 5l188 -134l187 134l46 -5zM127 0v1358h363q204 0 372 -85t267 -241t99 -353t-99 -353t-267 -241t-372 -85h-363zM305 54h181q114 0 215 44t176.5 123t119.5 198t44 260t-44 260t-119.5 198t-176.5 123t-215 44h-181v-1250z" />
    <glyph glyph-name="dcaron" unicode="&#x10f;" horiz-adv-x="1055" 
d="M1039 1000l53 326q11 69 62 69q26 0 42 -15.5t16 -40.5q0 -19 -11 -48l-111 -291h-51zM763 0v130q-84 -144 -271 -144q-176 0 -295 132.5t-119 325.5t118.5 326t298.5 133q183 0 268 -145v600h166v-1358h-166zM249 443q0 -84 15 -155.5t45.5 -127.5t81.5 -88t117 -32
q67 0 117 32.5t79.5 89t44 127t14.5 154.5q0 115 -24.5 203.5t-83 146t-146.5 57.5t-148 -57.5t-86 -146.5t-26 -203z" />
    <glyph glyph-name="Dcroat" unicode="&#x110;" horiz-adv-x="1308" 
d="M127 0v666h-142v54h142v638h363q204 0 372 -85t267 -241t99 -353t-99 -353t-267 -241t-372 -85h-363zM305 54h181q114 0 215 44t176.5 123t119.5 198t44 260t-44 260t-119.5 198t-176.5 123t-215 44h-181v-584h396v-54h-396v-612z" />
    <glyph glyph-name="dcroat" unicode="&#x111;" horiz-adv-x="1052" 
d="M763 0v130q-84 -144 -271 -144q-176 0 -295 132.5t-119 325.5t118.5 326t298.5 133q183 0 268 -145v341h-274v54h274v205h166v-205h154v-54h-154v-1099h-166zM249 443q0 -84 15 -155.5t45.5 -127.5t81.5 -88t117 -32q67 0 117 32.5t79.5 89t44 127t14.5 154.5
q0 115 -24.5 203.5t-83 146t-146.5 57.5t-148 -57.5t-86 -146.5t-26 -203z" />
    <glyph glyph-name="Emacron" unicode="&#x112;" horiz-adv-x="1001" 
d="M127 0v1358h773v-54h-595v-584h498v-54h-498v-612h595v-54h-773zM276 1532v71h501v-71h-501z" />
    <glyph glyph-name="emacron" unicode="&#x113;" horiz-adv-x="966" 
d="M825 206v-100q-4 -5 -11.5 -13t-35 -28.5t-60 -36.5t-87 -29t-114.5 -13q-203 0 -321 132t-118 326q0 198 116 328.5t300 130.5q177 0 282 -123.5t115 -319.5h-641v-15q0 -62 7.5 -116.5t27.5 -108.5t51 -93t81.5 -63t116.5 -24q58 0 110 19t88 48.5t57.5 53t35.5 45.5z
M252 514h463q-11 160 -62 248t-158 88q-106 0 -169 -88t-74 -248zM741 1143v-71h-501v71h501z" />
    <glyph glyph-name="Ebreve" unicode="&#x114;" horiz-adv-x="1001" 
d="M127 0v1358h773v-54h-595v-584h498v-54h-498v-612h595v-54h-773zM731 1708l45 14q0 -112 -65.5 -182.5t-166.5 -70.5t-167 70.5t-66 182.5l45 -14q15 -57 63 -90t125 -33q76 0 124.5 33t62.5 90z" />
    <glyph glyph-name="ebreve" unicode="&#x115;" horiz-adv-x="966" 
d="M825 206v-100q-4 -5 -11.5 -13t-35 -28.5t-60 -36.5t-87 -29t-114.5 -13q-203 0 -321 132t-118 326q0 198 116 328.5t300 130.5q177 0 282 -123.5t115 -319.5h-641v-15q0 -62 7.5 -116.5t27.5 -108.5t51 -93t81.5 -63t116.5 -24q58 0 110 19t88 48.5t57.5 53t35.5 45.5z
M252 514h463q-11 160 -62 248t-158 88q-106 0 -169 -88t-74 -248zM258 1262l45 -14q14 -57 62.5 -90t124.5 -33q77 0 125 33t63 90l45 14q0 -112 -66 -182.5t-167 -70.5t-166.5 70.5t-65.5 182.5z" />
    <glyph glyph-name="Edotaccent" unicode="&#x116;" horiz-adv-x="1001" 
d="M127 0v1358h773v-54h-595v-584h498v-54h-498v-612h595v-54h-773zM532 1535q-37 0 -62.5 25.5t-25.5 62.5q0 36 25.5 61.5t62.5 25.5q36 0 61.5 -25.5t25.5 -61.5q0 -37 -25.5 -62.5t-61.5 -25.5z" />
    <glyph glyph-name="edotaccent" unicode="&#x117;" horiz-adv-x="966" 
d="M825 206v-100q-4 -5 -11.5 -13t-35 -28.5t-60 -36.5t-87 -29t-114.5 -13q-203 0 -321 132t-118 326q0 198 116 328.5t300 130.5q177 0 282 -123.5t115 -319.5h-641v-15q0 -62 7.5 -116.5t27.5 -108.5t51 -93t81.5 -63t116.5 -24q58 0 110 19t88 48.5t57.5 53t35.5 45.5z
M252 514h463q-11 160 -62 248t-158 88q-106 0 -169 -88t-74 -248zM487 1075q-36 0 -61.5 25.5t-25.5 62.5q0 36 25.5 61.5t61.5 25.5q37 0 62.5 -25.5t25.5 -61.5q0 -37 -25.5 -62.5t-62.5 -25.5z" />
    <glyph glyph-name="Eogonek" unicode="&#x118;" horiz-adv-x="1001" 
d="M127 0v1358h773v-54h-595v-584h498v-54h-498v-612h595v-54q-86 -34 -141.5 -102t-55.5 -134q0 -34 15.5 -56.5t48.5 -22.5q25 0 48.5 9.5t34.5 19.5l11 10v-50q-6 -5 -17 -13t-47 -21t-75 -13q-63 0 -97 31t-34 85q0 78 69.5 145t171.5 112h-705z" />
    <glyph glyph-name="eogonek" unicode="&#x119;" horiz-adv-x="966" 
d="M599 -276v-50q-6 -5 -17 -13t-47 -21t-75 -13q-63 0 -97 31t-34 85q0 72 59.5 135t151.5 109q-7 -1 -23 -1q-203 0 -321 132t-118 326q0 198 116 328.5t300 130.5q177 0 282 -123.5t115 -319.5h-641v-15q0 -62 7.5 -116.5t27.5 -108.5t51 -93t81.5 -63t116.5 -24
q58 0 110 19t88 48.5t57.5 53t35.5 45.5v-100q-7 -8 -20 -21.5t-61.5 -42t-105.5 -42.5q-86 -34 -141.5 -102t-55.5 -134q0 -34 15.5 -56.5t48.5 -22.5q25 0 48.5 9.5t34.5 19.5zM252 514h463q-11 160 -62 248t-158 88q-106 0 -169 -88t-74 -248z" />
    <glyph glyph-name="Ecaron" unicode="&#x11a;" horiz-adv-x="1001" 
d="M544 1468l-234 300l46 5l188 -134l187 134l46 -5zM127 0v1358h773v-54h-595v-584h498v-54h-498v-612h595v-54h-773z" />
    <glyph glyph-name="ecaron" unicode="&#x11b;" horiz-adv-x="966" 
d="M723 1308l-234 -300l-233 300l46 5l187 -134l188 134zM825 206v-100q-4 -5 -11.5 -13t-35 -28.5t-60 -36.5t-87 -29t-114.5 -13q-203 0 -321 132t-118 326q0 198 116 328.5t300 130.5q177 0 282 -123.5t115 -319.5h-641v-15q0 -62 7.5 -116.5t27.5 -108.5t51 -93
t81.5 -63t116.5 -24q58 0 110 19t88 48.5t57.5 53t35.5 45.5zM252 514h463q-11 160 -62 248t-158 88q-106 0 -169 -88t-74 -248z" />
    <glyph glyph-name="Gcircumflex" unicode="&#x11c;" horiz-adv-x="1462" 
d="M548 1473l234 300l233 -300l-46 -5l-187 135l-188 -135zM1337 693v-570q-211 -149 -529 -149q-200 0 -366 91t-262.5 253t-96.5 361q0 198 96.5 360.5t262.5 253.5t366 91q259 0 454 -112v-97q-85 74 -204.5 114.5t-249.5 40.5q-226 0 -378.5 -183.5t-152.5 -467.5
q0 -188 70.5 -337.5t191.5 -231.5t269 -82q210 0 352 89v576h177z" />
    <glyph glyph-name="gcircumflex" unicode="&#x11d;" horiz-adv-x="1028" 
d="M271 1013l234 300l233 -300l-46 -5l-187 135l-188 -135zM827 919h154q0 -53 -43 -102.5t-103 -69.5q61 -86 61 -193q0 -154 -98.5 -241.5t-265.5 -111.5q-263 -38 -263 -85q0 -32 79 -54.5t222 -43.5q397 -59 397 -246q0 -71 -63 -127.5t-167 -86.5t-228 -30t-230.5 30
t-171.5 86.5t-65 127.5q0 89 97 152t247 74q-48 5 -91.5 14t-86.5 23t-69 35t-26 46q0 73 272 104q-127 35 -197.5 124t-70.5 210q0 153 110 251t279 98q180 0 293 -113q28 41 28 129zM506 259q115 0 168.5 83t53.5 212t-53.5 212.5t-168.5 83.5q-59 0 -103 -24t-68.5 -66
t-36.5 -93.5t-12 -112.5q0 -129 53 -212t167 -83zM204 -228q0 -84 84.5 -137t219.5 -53q134 0 215.5 52.5t81.5 137.5q0 84 -81.5 136.5t-214.5 52.5q-135 0 -220 -52.5t-85 -136.5z" />
    <glyph glyph-name="Gbreve" unicode="&#x11e;" horiz-adv-x="1462" 
d="M1337 693v-570q-211 -149 -529 -149q-200 0 -366 91t-262.5 253t-96.5 361q0 198 96.5 360.5t262.5 253.5t366 91q259 0 454 -112v-97q-85 74 -204.5 114.5t-249.5 40.5q-226 0 -378.5 -183.5t-152.5 -467.5q0 -188 70.5 -337.5t191.5 -231.5t269 -82q210 0 352 89v576
h177zM969 1708l45 14q0 -112 -65.5 -182.5t-166.5 -70.5t-167 70.5t-66 182.5l45 -14q15 -57 63 -90t125 -33q76 0 124.5 33t62.5 90z" />
    <glyph glyph-name="gbreve" unicode="&#x11f;" horiz-adv-x="1028" 
d="M827 919h154q0 -53 -43 -102.5t-103 -69.5q61 -86 61 -193q0 -154 -98.5 -241.5t-265.5 -111.5q-263 -38 -263 -85q0 -32 79 -54.5t222 -43.5q397 -59 397 -246q0 -71 -63 -127.5t-167 -86.5t-228 -30t-230.5 30t-171.5 86.5t-65 127.5q0 89 97 152t247 74
q-48 5 -91.5 14t-86.5 23t-69 35t-26 46q0 73 272 104q-127 35 -197.5 124t-70.5 210q0 153 110 251t279 98q180 0 293 -113q28 41 28 129zM506 259q115 0 168.5 83t53.5 212t-53.5 212.5t-168.5 83.5q-59 0 -103 -24t-68.5 -66t-36.5 -93.5t-12 -112.5q0 -129 53 -212
t167 -83zM204 -228q0 -84 84.5 -137t219.5 -53q134 0 215.5 52.5t81.5 137.5q0 84 -81.5 136.5t-214.5 52.5q-135 0 -220 -52.5t-85 -136.5zM691 1248l45 14q0 -112 -65.5 -182.5t-166.5 -70.5t-167 70.5t-66 182.5l45 -14q15 -57 63 -90t125 -33q76 0 124.5 33t62.5 90z
" />
    <glyph glyph-name="Gdotaccent" unicode="&#x120;" horiz-adv-x="1462" 
d="M1337 693v-570q-211 -149 -529 -149q-200 0 -366 91t-262.5 253t-96.5 361q0 198 96.5 360.5t262.5 253.5t366 91q259 0 454 -112v-97q-85 74 -204.5 114.5t-249.5 40.5q-226 0 -378.5 -183.5t-152.5 -467.5q0 -188 70.5 -337.5t191.5 -231.5t269 -82q210 0 352 89v576
h177zM782 1535q-37 0 -62.5 25.5t-25.5 62.5q0 36 25.5 61.5t62.5 25.5q36 0 61.5 -25.5t25.5 -61.5q0 -37 -25.5 -62.5t-61.5 -25.5z" />
    <glyph glyph-name="gdotaccent" unicode="&#x121;" horiz-adv-x="1028" 
d="M827 919h154q0 -53 -43 -102.5t-103 -69.5q61 -86 61 -193q0 -154 -98.5 -241.5t-265.5 -111.5q-263 -38 -263 -85q0 -32 79 -54.5t222 -43.5q397 -59 397 -246q0 -71 -63 -127.5t-167 -86.5t-228 -30t-230.5 30t-171.5 86.5t-65 127.5q0 89 97 152t247 74
q-48 5 -91.5 14t-86.5 23t-69 35t-26 46q0 73 272 104q-127 35 -197.5 124t-70.5 210q0 153 110 251t279 98q180 0 293 -113q28 41 28 129zM506 259q115 0 168.5 83t53.5 212t-53.5 212.5t-168.5 83.5q-59 0 -103 -24t-68.5 -66t-36.5 -93.5t-12 -112.5q0 -129 53 -212
t167 -83zM204 -228q0 -84 84.5 -137t219.5 -53q134 0 215.5 52.5t81.5 137.5q0 84 -81.5 136.5t-214.5 52.5q-135 0 -220 -52.5t-85 -136.5zM505 1075q-37 0 -62.5 25.5t-25.5 62.5q0 36 25.5 61.5t62.5 25.5q36 0 61.5 -25.5t25.5 -61.5q0 -37 -25.5 -62.5t-61.5 -25.5z
" />
    <glyph glyph-name="Gcommaaccent" unicode="&#x122;" horiz-adv-x="1462" 
d="M756 -423v29q3 1 7.5 3.5t17 12t22 20.5t17 30t7.5 40q0 26 -10 46q-27 -27 -60 -27q-34 0 -57.5 22t-23.5 57q0 36 26 59.5t66 23.5q53 0 86.5 -41t33.5 -101q0 -37 -13.5 -68.5t-33 -50.5t-39 -32t-32.5 -18zM1337 693v-570q-211 -149 -529 -149q-200 0 -366 91
t-262.5 253t-96.5 361q0 198 96.5 360.5t262.5 253.5t366 91q259 0 454 -112v-97q-85 74 -204.5 114.5t-249.5 40.5q-226 0 -378.5 -183.5t-152.5 -467.5q0 -188 70.5 -337.5t191.5 -231.5t269 -82q210 0 352 89v576h177z" />
    <glyph glyph-name="gcommaaccent" unicode="&#x123;" horiz-adv-x="1028" 
d="M516 1295v-29q-3 -1 -7.5 -3.5t-17 -12t-22 -20.5t-17 -30t-7.5 -40q0 -26 10 -46q27 27 60 27q34 0 57.5 -22t23.5 -57q0 -36 -26 -59.5t-66 -23.5q-53 0 -86.5 41t-33.5 101q0 37 13.5 68.5t33 50.5t39 32t32.5 18zM827 919h154q0 -53 -43 -102.5t-103 -69.5
q61 -86 61 -193q0 -154 -98.5 -241.5t-265.5 -111.5q-263 -38 -263 -85q0 -32 79 -54.5t222 -43.5q397 -59 397 -246q0 -71 -63 -127.5t-167 -86.5t-228 -30t-230.5 30t-171.5 86.5t-65 127.5q0 89 97 152t247 74q-48 5 -91.5 14t-86.5 23t-69 35t-26 46q0 73 272 104
q-127 35 -197.5 124t-70.5 210q0 153 110 251t279 98q180 0 293 -113q28 41 28 129zM506 259q115 0 168.5 83t53.5 212t-53.5 212.5t-168.5 83.5q-59 0 -103 -24t-68.5 -66t-36.5 -93.5t-12 -112.5q0 -129 53 -212t167 -83zM204 -228q0 -84 84.5 -137t219.5 -53
q134 0 215.5 52.5t81.5 137.5q0 84 -81.5 136.5t-214.5 52.5q-135 0 -220 -52.5t-85 -136.5z" />
    <glyph glyph-name="Hcircumflex" unicode="&#x124;" horiz-adv-x="1363" 
d="M447 1473l234 300l233 -300l-46 -5l-187 135l-188 -135zM127 0v1358h178v-638h753v638h178v-1358h-178v666h-753v-666h-178z" />
    <glyph glyph-name="hcircumflex" unicode="&#x125;" horiz-adv-x="1006" 
d="M-27 1473l234 300l233 -300l-46 -5l-187 135l-188 -135zM123 0v1358h166v-752q8 41 20.5 78t36.5 78.5t56 71.5t81 49.5t109 19.5q137 0 217 -91.5t80 -243.5v-568h-166v568q0 47 -2.5 81.5t-12.5 75t-27 66t-48 42.5t-74 17q-90 0 -153 -70t-90 -170.5t-27 -217.5v-392
h-166z" />
    <glyph glyph-name="Hbar" unicode="&#x126;" horiz-adv-x="1363" 
d="M127 0v1005h-159v54h159v299h178v-299h753v299h178v-299h159v-54h-159v-1005h-178v666h-753v-666h-178zM305 720h753v285h-753v-285z" />
    <glyph glyph-name="hbar" unicode="&#x127;" horiz-adv-x="1006" 
d="M123 0v1099h-154v54h154v205h166v-205h274v-54h-274v-493q8 41 20.5 78t36.5 78.5t56 71.5t81 49.5t109 19.5q137 0 217 -91.5t80 -243.5v-568h-166v568q0 47 -2.5 81.5t-12.5 75t-27 66t-48 42.5t-74 17q-90 0 -153 -70t-90 -170.5t-27 -217.5v-392h-166z" />
    <glyph glyph-name="Itilde" unicode="&#x128;" horiz-adv-x="456" 
d="M139 0v1358h178v-1358h-178zM-57 1494q0 81 43.5 132t128.5 51q54 0 142.5 -33.5t131.5 -33.5q33 0 56 19.5t27 60.5h42q0 -81 -44 -134t-129 -53q-55 0 -143 33.5t-126 33.5q-79 0 -87 -76h-42z" />
    <glyph glyph-name="itilde" unicode="&#x129;" horiz-adv-x="436" 
d="M135 0v886h166v-886h-166zM-68 1034q0 81 43.5 132t128.5 51q54 0 142.5 -33.5t131.5 -33.5q33 0 56 19.5t27 60.5h42q0 -81 -44 -134t-129 -53q-55 0 -143 33.5t-126 33.5q-79 0 -87 -76h-42z" />
    <glyph glyph-name="Imacron" unicode="&#x12a;" horiz-adv-x="456" 
d="M139 0v1358h178v-1358h-178zM-22 1532v71h501v-71h-501z" />
    <glyph glyph-name="imacron" unicode="&#x12b;" horiz-adv-x="436" 
d="M135 0v886h166v-886h-166zM-32 1072v71h501v-71h-501z" />
    <glyph glyph-name="Ibreve" unicode="&#x12c;" horiz-adv-x="456" 
d="M139 0v1358h178v-1358h-178zM416 1708l45 14q0 -112 -65.5 -182.5t-166.5 -70.5t-167 70.5t-66 182.5l45 -14q15 -57 63 -90t125 -33q76 0 124.5 33t62.5 90z" />
    <glyph glyph-name="ibreve" unicode="&#x12d;" horiz-adv-x="436" 
d="M135 0v886h166v-886h-166zM405 1248l45 14q0 -112 -65.5 -182.5t-166.5 -70.5t-167 70.5t-66 182.5l45 -14q15 -57 63 -90t125 -33q76 0 124.5 33t62.5 90z" />
    <glyph glyph-name="Iogonek" unicode="&#x12e;" horiz-adv-x="456" 
d="M139 0v1358h178v-1358q-86 -34 -142 -102.5t-56 -133.5q0 -34 15.5 -56.5t48.5 -22.5q25 0 48.5 9.5t34.5 19.5l11 10v-50q-6 -5 -17 -13t-47 -21t-75 -13q-63 0 -97 31t-34 85q0 78 69.5 145t171.5 112h-109z" />
    <glyph glyph-name="iogonek" unicode="&#x12f;" horiz-adv-x="436" 
d="M218 1046q-40 0 -68.5 28t-28.5 68t28.5 68t68.5 28q39 0 67.5 -28t28.5 -68t-28.5 -68t-67.5 -28zM135 0v886h166v-886q-86 -34 -141.5 -102t-55.5 -134q0 -34 15.5 -56.5t48.5 -22.5q25 0 48.5 9.5t34.5 19.5l11 10v-50q-6 -5 -17 -13t-47 -21t-75 -13q-63 0 -97 31
t-34 85q0 78 69.5 145t171.5 112h-98z" />
    <glyph glyph-name="Idotaccent" unicode="&#x130;" horiz-adv-x="456" 
d="M139 0v1358h178v-1358h-178zM229 1535q-37 0 -62.5 25.5t-25.5 62.5q0 36 25.5 61.5t62.5 25.5q36 0 61.5 -25.5t25.5 -61.5q0 -37 -25.5 -62.5t-61.5 -25.5z" />
    <glyph glyph-name="dotlessi" unicode="&#x131;" horiz-adv-x="436" 
d="M135 0v886h166v-886h-166z" />
    <glyph glyph-name="IJ" unicode="&#x132;" horiz-adv-x="898" 
d="M139 0v1358h178v-1358h-178zM583 204v1154h178v-1080q0 -105 -15.5 -198.5t-41.5 -162.5t-59.5 -128t-70.5 -99t-74 -72t-70.5 -50.5t-59.5 -30.5t-42 -17l-15 -4v54q60 38 102 80.5t83.5 114t63 182t21.5 257.5z" />
    <glyph glyph-name="ij" unicode="&#x133;" horiz-adv-x="871" 
d="M218 1046q-40 0 -68.5 28t-28.5 68t28.5 68t68.5 28q39 0 67.5 -28t28.5 -68t-28.5 -68t-67.5 -28zM135 0v886h166v-886h-166zM654 1046q-40 0 -68.5 28t-28.5 68t28.5 68t68.5 28q39 0 67.5 -28t28.5 -68t-28.5 -68t-67.5 -28zM571 230v656h166v-582
q0 -137 -20.5 -252.5t-53.5 -191.5t-72.5 -136t-79 -93t-72.5 -54.5t-53 -28.5l-21 -6v48q25 20 40 34t39.5 43t40 59t33.5 79.5t28.5 107t17.5 139t7 178.5z" />
    <glyph glyph-name="Jcircumflex" unicode="&#x134;" horiz-adv-x="455" 
d="M-7 1473l234 300l233 -300l-46 -5l-187 135l-188 -135zM139 204v1154h178v-1080q0 -105 -15.5 -198.5t-41.5 -162.5t-59.5 -128t-70.5 -99t-74 -72t-70.5 -50.5t-59.5 -30.5t-42 -17l-15 -4v54q60 38 102 80.5t83.5 114t63 182t21.5 257.5z" />
    <glyph glyph-name="jcircumflex" unicode="&#x135;" horiz-adv-x="436" 
d="M-16 1013l234 300l233 -300l-46 -5l-187 135l-188 -135zM135 230v656h166v-582q0 -137 -20.5 -252.5t-53.5 -191.5t-72.5 -136t-79 -93t-72.5 -54.5t-53 -28.5l-21 -6v48q25 20 40 34t39.5 43t40 59t33.5 79.5t28.5 107t17.5 139t7 178.5z" />
    <glyph glyph-name="Kcommaaccent" unicode="&#x136;" horiz-adv-x="1204" 
d="M571 -423v29q3 1 7.5 3.5t17 12t22 20.5t17 30t7.5 40q0 26 -10 46q-27 -27 -60 -27q-34 0 -57.5 22t-23.5 57q0 36 26 59.5t66 23.5q53 0 86.5 -41t33.5 -101q0 -37 -13.5 -68.5t-33 -50.5t-39 -32t-33.5 -18zM127 0v1358h178v-822l636 822h71l-393 -506l552 -852h-211
l-453 707l-202 -261v-446h-178z" />
    <glyph glyph-name="kcommaaccent" unicode="&#x137;" horiz-adv-x="929" 
d="M442 -423v29q3 1 7.5 3.5t17 12t22 20.5t17 30t7.5 40q0 26 -10 46q-27 -27 -60 -27q-34 0 -57.5 22t-23.5 57q0 36 26 59.5t66 23.5q53 0 86.5 -41t33.5 -101q0 -37 -13.5 -68.5t-33 -50.5t-39 -32t-32.5 -18zM123 0v1358h166v-1008l451 536h71l-271 -321l388 -565h-194
l-302 437l-143 -169v-268h-166z" />
    <glyph glyph-name="kgreenlandic" unicode="&#x138;" horiz-adv-x="953" 
d="M123 0v886h166v-536l451 536h71l-271 -321l388 -565h-194l-302 437l-143 -169v-268h-166z" />
    <glyph glyph-name="Lacute" unicode="&#x139;" horiz-adv-x="906" 
d="M194 1468l-50 9l217 259q31 37 63 37q25 0 41.5 -16t16.5 -39q0 -32 -38 -62zM127 0v1358h178v-1304h524v-54h-702z" />
    <glyph glyph-name="lacute" unicode="&#x13a;" horiz-adv-x="436" 
d="M168 1468l-50 9l217 259q31 37 63 37q25 0 41.5 -16t16.5 -39q0 -32 -38 -62zM135 0v1358h166v-1358h-166z" />
    <glyph glyph-name="Lcommaaccent" unicode="&#x13b;" horiz-adv-x="906" 
d="M463 -423v29q3 1 7.5 3.5t17 12t22 20.5t17 30t7.5 40q0 26 -10 46q-27 -27 -60 -27q-34 0 -57.5 22t-23.5 57q0 36 26 59.5t66 23.5q53 0 86.5 -41t33.5 -101q0 -37 -13.5 -68.5t-33 -50.5t-39 -32t-33.5 -18zM127 0v1358h178v-1304h524v-54h-702z" />
    <glyph glyph-name="lcommaaccent" unicode="&#x13c;" horiz-adv-x="436" 
d="M194 -423v29q3 1 7.5 3.5t17 12t22 20.5t17 30t7.5 40q0 26 -10 46q-27 -27 -60 -27q-34 0 -57.5 22t-23.5 57q0 36 26 59.5t66 23.5q53 0 86.5 -41t33.5 -101q0 -37 -13.5 -68.5t-33 -50.5t-39 -32t-32.5 -18zM135 0v1358h166v-1358h-166z" />
    <glyph glyph-name="Lcaron" unicode="&#x13d;" horiz-adv-x="906" 
d="M494 1000l53 326q11 69 62 69q26 0 42 -15.5t16 -40.5q0 -19 -11 -48l-111 -291h-51zM127 0v1358h178v-1304h524v-54h-702z" />
    <glyph glyph-name="lcaron" unicode="&#x13e;" horiz-adv-x="436" 
d="M393 1000l53 326q11 69 62 69q26 0 42 -15.5t16 -40.5q0 -19 -11 -48l-111 -291h-51zM135 0v1358h166v-1358h-166z" />
    <glyph glyph-name="Ldot" unicode="&#x13f;" horiz-adv-x="906" 
d="M677 600q-33 0 -56 23t-23 56t23 56t56 23t56 -23t23 -56t-23 -56t-56 -23zM127 0v1358h178v-1304h524v-54h-702z" />
    <glyph glyph-name="ldot" unicode="&#x140;" horiz-adv-x="624" 
d="M135 0v1358h166v-1358h-166zM537 591q-37 0 -62.5 25.5t-25.5 62.5q0 36 25.5 61.5t62.5 25.5q36 0 61.5 -25.5t25.5 -61.5q0 -37 -25.5 -62.5t-61.5 -25.5z" />
    <glyph glyph-name="Lslash" unicode="&#x141;" horiz-adv-x="906" 
d="M127 0v566l-158 -74v57l158 74v735h178v-652l339 160v-57l-339 -160v-595h524v-54h-702z" />
    <glyph glyph-name="lslash" unicode="&#x142;" horiz-adv-x="435" 
d="M135 0v692l-153 -95v59l153 95v607h166v-504l151 94v-59l-151 -94v-795h-166z" />
    <glyph glyph-name="Nacute" unicode="&#x143;" horiz-adv-x="1311" 
d="M613 1468l-50 9l217 259q31 37 63 37q25 0 41.5 -16t16.5 -39q0 -32 -38 -62zM127 0v1381l1003 -1087v1064h54v-1381l-1003 1087v-1064h-54z" />
    <glyph glyph-name="nacute" unicode="&#x144;" horiz-adv-x="1006" 
d="M425 1008l-50 9l217 259q31 37 63 37q25 0 41.5 -16t16.5 -39q0 -32 -38 -62zM123 0v886h166v-280q8 41 20.5 78t36.5 78.5t56 71.5t81 49.5t109 19.5q137 0 217 -91.5t80 -243.5v-568h-166v568q0 47 -2.5 81.5t-12.5 75t-27 66t-48 42.5t-74 17q-90 0 -153 -70
t-90 -170.5t-27 -217.5v-392h-166z" />
    <glyph glyph-name="Ncommaaccent" unicode="&#x145;" horiz-adv-x="1311" 
d="M629 -423v29q3 1 7.5 3.5t17 12t22 20.5t17 30t7.5 40q0 26 -10 46q-27 -27 -60 -27q-34 0 -57.5 22t-23.5 57q0 36 26 59.5t66 23.5q53 0 86.5 -41t33.5 -101q0 -37 -13.5 -68.5t-33 -50.5t-39 -32t-33.5 -18zM127 0v1381l1003 -1087v1064h54v-1381l-1003 1087v-1064
h-54z" />
    <glyph glyph-name="ncommaaccent" unicode="&#x146;" horiz-adv-x="1006" 
d="M492 -423v29q3 1 7.5 3.5t17 12t22 20.5t17 30t7.5 40q0 26 -10 46q-27 -27 -60 -27q-34 0 -57.5 22t-23.5 57q0 36 26 59.5t66 23.5q53 0 86.5 -41t33.5 -101q0 -37 -13.5 -68.5t-33 -50.5t-39 -32t-32.5 -18zM123 0v886h166v-280q8 41 20.5 78t36.5 78.5t56 71.5
t81 49.5t109 19.5q137 0 217 -91.5t80 -243.5v-568h-166v568q0 47 -2.5 81.5t-12.5 75t-27 66t-48 42.5t-74 17q-90 0 -153 -70t-90 -170.5t-27 -217.5v-392h-166z" />
    <glyph glyph-name="Ncaron" unicode="&#x147;" horiz-adv-x="1311" 
d="M671 1468l-234 300l46 5l188 -134l187 134l46 -5zM127 0v1381l1003 -1087v1064h54v-1381l-1003 1087v-1064h-54z" />
    <glyph glyph-name="ncaron" unicode="&#x148;" horiz-adv-x="1006" 
d="M515 1008l-234 300l46 5l188 -134l187 134l46 -5zM123 0v886h166v-280q8 41 20.5 78t36.5 78.5t56 71.5t81 49.5t109 19.5q137 0 217 -91.5t80 -243.5v-568h-166v568q0 47 -2.5 81.5t-12.5 75t-27 66t-48 42.5t-74 17q-90 0 -153 -70t-90 -170.5t-27 -217.5v-392h-166z
" />
    <glyph glyph-name="Eng" unicode="&#x14a;" horiz-adv-x="1311" 
d="M127 0v1381l880 -954v931h177v-1080q0 -134 -24.5 -248.5t-64 -190t-87.5 -136t-95.5 -94.5t-87 -56t-63.5 -29l-25 -8v54q44 30 73.5 55t69 74.5t63.5 108t42 152t21 208.5l-825 896v-1064h-54z" />
    <glyph glyph-name="eng" unicode="&#x14b;" horiz-adv-x="1006" 
d="M123 0v886h166v-280q8 41 20.5 78t36.5 78.5t56 71.5t81 49.5t109 19.5q137 0 217 -91.5t80 -243.5v-264q0 -137 -20.5 -252.5t-53.5 -191.5t-72.5 -136t-79 -93t-72.5 -54.5t-53 -28.5l-21 -6v48q35 28 57 49.5t53.5 72.5t50 113t32 166.5t13.5 238.5v338
q0 47 -2.5 81.5t-12.5 75t-27 66t-48 42.5t-74 17q-90 0 -153 -70t-90 -170.5t-27 -217.5v-392h-166z" />
    <glyph glyph-name="Omacron" unicode="&#x14c;" horiz-adv-x="1614" 
d="M556 1532v71h501v-71h-501zM83 679q0 148 56.5 279t153.5 224.5t231 147.5t283 54q200 0 366 -92t262 -254t96 -359q0 -151 -56.5 -283t-153.5 -224t-230.5 -145t-283.5 -53q-200 0 -365.5 89.5t-262 252t-96.5 363.5zM277 679q0 -190 65.5 -338t186.5 -230.5t278 -82.5
q238 0 384.5 181t146.5 470q0 288 -146.5 469.5t-384.5 181.5q-237 0 -383.5 -181.5t-146.5 -469.5z" />
    <glyph glyph-name="omacron" unicode="&#x14d;" horiz-adv-x="1018" 
d="M259 1072v71h501v-71h-501zM78 441q0 196 122.5 329t308.5 133t308.5 -133t122.5 -329t-122.5 -325.5t-308.5 -129.5q-187 0 -309 129.5t-122 325.5zM250 441q0 -115 25 -202.5t85 -143t149 -55.5t148.5 55.5t85.5 143t26 202.5q0 114 -25.5 203.5t-86 147.5t-148.5 58
q-67 0 -118.5 -32.5t-81.5 -90t-44.5 -129.5t-14.5 -157z" />
    <glyph glyph-name="Obreve" unicode="&#x14e;" horiz-adv-x="1614" 
d="M83 679q0 148 56.5 279t153.5 224.5t231 147.5t283 54q200 0 366 -92t262 -254t96 -359q0 -151 -56.5 -283t-153.5 -224t-230.5 -145t-283.5 -53q-200 0 -365.5 89.5t-262 252t-96.5 363.5zM277 679q0 -190 65.5 -338t186.5 -230.5t278 -82.5q238 0 384.5 181t146.5 470
q0 288 -146.5 469.5t-384.5 181.5q-237 0 -383.5 -181.5t-146.5 -469.5zM994 1708l45 14q0 -112 -65.5 -182.5t-166.5 -70.5t-167 70.5t-66 182.5l45 -14q15 -57 63 -90t125 -33q76 0 124.5 33t62.5 90z" />
    <glyph glyph-name="obreve" unicode="&#x14f;" horiz-adv-x="1018" 
d="M78 441q0 196 122.5 329t308.5 133t308.5 -133t122.5 -329t-122.5 -325.5t-308.5 -129.5q-187 0 -309 129.5t-122 325.5zM250 441q0 -115 25 -202.5t85 -143t149 -55.5t148.5 55.5t85.5 143t26 202.5q0 114 -25.5 203.5t-86 147.5t-148.5 58q-67 0 -118.5 -32.5
t-81.5 -90t-44.5 -129.5t-14.5 -157zM696 1248l45 14q0 -112 -65.5 -182.5t-166.5 -70.5t-167 70.5t-66 182.5l45 -14q15 -57 63 -90t125 -33q76 0 124.5 33t62.5 90z" />
    <glyph glyph-name="Ohungarumlaut" unicode="&#x150;" horiz-adv-x="1614" 
d="M792 1477l217 259q31 37 63 37q25 0 41.5 -16t16.5 -39q0 -32 -38 -62l-249 -188zM579 1468l-50 9l217 259q31 37 63 37q25 0 41.5 -16t16.5 -39q0 -32 -38 -62zM83 679q0 148 56.5 279t153.5 224.5t231 147.5t283 54q200 0 366 -92t262 -254t96 -359q0 -151 -56.5 -283
t-153.5 -224t-230.5 -145t-283.5 -53q-200 0 -365.5 89.5t-262 252t-96.5 363.5zM277 679q0 -190 65.5 -338t186.5 -230.5t278 -82.5q238 0 384.5 181t146.5 470q0 288 -146.5 469.5t-384.5 181.5q-237 0 -383.5 -181.5t-146.5 -469.5z" />
    <glyph glyph-name="ohungarumlaut" unicode="&#x151;" horiz-adv-x="1018" 
d="M489 1017l217 259q31 37 63 37q25 0 41.5 -16t16.5 -39q0 -32 -38 -62l-249 -188zM276 1008l-50 9l217 259q31 37 63 37q25 0 41.5 -16t16.5 -39q0 -32 -38 -62zM78 441q0 196 122.5 329t308.5 133t308.5 -133t122.5 -329t-122.5 -325.5t-308.5 -129.5q-187 0 -309 129.5
t-122 325.5zM250 441q0 -115 25 -202.5t85 -143t149 -55.5t148.5 55.5t85.5 143t26 202.5q0 114 -25.5 203.5t-86 147.5t-148.5 58q-67 0 -118.5 -32.5t-81.5 -90t-44.5 -129.5t-14.5 -157z" />
    <glyph glyph-name="OE" unicode="&#x152;" horiz-adv-x="2212" 
d="M1338 0v205q-97 -110 -235 -170.5t-296 -60.5q-200 0 -365.5 89.5t-262 252t-96.5 363.5q0 148 56.5 279t153.5 224.5t231 147.5t283 54q157 0 295.5 -62.5t235.5 -173.5v210h773v-54h-595v-584h498v-54h-498v-612h595v-54h-773zM277 679q0 -190 65.5 -338t186.5 -230.5
t278 -82.5q238 0 384.5 181t146.5 470q0 288 -146.5 469.5t-384.5 181.5q-237 0 -383.5 -181.5t-146.5 -469.5z" />
    <glyph glyph-name="oe" unicode="&#x153;" horiz-adv-x="1571" 
d="M1422 206v-100q-4 -5 -11 -13t-32.5 -28.5t-56 -36.5t-81 -29t-107.5 -13q-269 0 -363 234q-11 -42 -30.5 -79t-53 -74t-87.5 -59t-122 -22q-172 0 -281 126.5t-109 327.5q0 206 114.5 334.5t301.5 128.5q193 0 301 -161q52 77 131 119t174 42q168 0 269.5 -123
t106.5 -320h-600q1 -71 7.5 -129.5t24.5 -114t45.5 -93t73 -60.5t104.5 -23q58 0 109 19t85 48.5t54 53t33 45.5zM886 514h424q-7 163 -53.5 249.5t-148.5 86.5t-158.5 -91.5t-63.5 -244.5zM729 463v4q0 66 -11 127.5t-35 122t-71.5 97t-112.5 36.5q-83 0 -138 -57.5
t-78 -147t-23 -208.5q0 -117 21.5 -202.5t75.5 -140t138 -54.5q111 0 174.5 78t71.5 205q-12 67 -12 140z" />
    <glyph glyph-name="Racute" unicode="&#x154;" horiz-adv-x="1106" 
d="M422 1468l-50 9l217 259q31 37 63 37q25 0 41.5 -16t16.5 -39q0 -32 -38 -62zM127 0v1358h370q80 0 151 -13.5t132.5 -43t106 -72.5t70 -105.5t25.5 -139.5q0 -96 -38.5 -169t-106 -117t-153.5 -66t-187 -22h-156l740 -610h-81l-695 573v-573h-178zM305 664h142
q181 0 263.5 79t82.5 241q0 161 -82.5 240.5t-263.5 79.5h-142v-640z" />
    <glyph glyph-name="racute" unicode="&#x155;" horiz-adv-x="676" 
d="M252 1008l-50 9l217 259q31 37 63 37q25 0 41.5 -16t16.5 -39q0 -32 -38 -62zM123 0v886h166v-282q7 44 32 98.5t67 100.5q93 101 223 101v-117q-162 0 -242 -102t-80 -295v-390h-166z" />
    <glyph glyph-name="Rcommaaccent" unicode="&#x156;" horiz-adv-x="1106" 
d="M526 -423v29q3 1 7.5 3.5t17 12t22 20.5t17 30t7.5 40q0 26 -10 46q-27 -27 -60 -27q-34 0 -57.5 22t-23.5 57q0 36 26 59.5t66 23.5q53 0 86.5 -41t33.5 -101q0 -37 -13.5 -68.5t-33 -50.5t-39 -32t-32.5 -18zM127 0v1358h370q80 0 151 -13.5t132.5 -43t106 -72.5
t70 -105.5t25.5 -139.5q0 -96 -38.5 -169t-106 -117t-153.5 -66t-187 -22h-156l740 -610h-81l-695 573v-573h-178zM305 664h142q181 0 263.5 79t82.5 241q0 161 -82.5 240.5t-263.5 79.5h-142v-640z" />
    <glyph glyph-name="rcommaaccent" unicode="&#x157;" horiz-adv-x="676" 
d="M186 -423v29q3 1 7.5 3.5t17 12t22 20.5t17 30t7.5 40q0 26 -10 46q-27 -27 -60 -27q-34 0 -57.5 22t-23.5 57q0 36 26 59.5t66 23.5q53 0 86.5 -41t33.5 -101q0 -37 -13.5 -68.5t-33 -50.5t-39 -32t-32.5 -18zM123 0v886h166v-282q7 44 32 98.5t67 100.5q93 101 223 101
v-117q-162 0 -242 -102t-80 -295v-390h-166z" />
    <glyph glyph-name="Rcaron" unicode="&#x158;" horiz-adv-x="1106" 
d="M492 1468l-234 300l46 5l188 -134l187 134l46 -5zM127 0v1358h370q80 0 151 -13.5t132.5 -43t106 -72.5t70 -105.5t25.5 -139.5q0 -96 -38.5 -169t-106 -117t-153.5 -66t-187 -22h-156l740 -610h-81l-695 573v-573h-178zM305 664h142q181 0 263.5 79t82.5 241
q0 161 -82.5 240.5t-263.5 79.5h-142v-640z" />
    <glyph glyph-name="rcaron" unicode="&#x159;" horiz-adv-x="676" 
d="M367 1008l-234 300l46 5l188 -134l187 134l46 -5zM123 0v886h166v-282q7 44 32 98.5t67 100.5q93 101 223 101v-117q-162 0 -242 -102t-80 -295v-390h-166z" />
    <glyph glyph-name="Sacute" unicode="&#x15a;" horiz-adv-x="1008" 
d="M414 1468l-50 9l217 259q31 37 63 37q25 0 41.5 -16t16.5 -39q0 -32 -38 -62zM89 106v93q6 -7 18 -17.5t51 -38.5t81.5 -49t106.5 -38.5t129 -17.5q132 0 212.5 65.5t80.5 176.5q0 93 -62.5 169.5t-216.5 186.5q-61 43 -91.5 65.5t-77.5 59t-70 59.5t-52.5 56.5
t-42.5 61.5t-23 63t-10 72q0 76 34.5 136t92.5 95.5t127 54t145 18.5q68 0 135.5 -14t101.5 -28l34 -14v-87q-5 4 -13.5 10t-37.5 21t-59 27t-75 21.5t-89 9.5q-107 0 -180 -52t-73 -142q0 -36 13 -68t30 -56t59 -58.5t72 -55.5t97 -67q53 -36 81.5 -56t73 -53t68.5 -55.5
t56 -54t49 -59t34 -61.5t24 -69.5t7 -74.5q0 -78 -28.5 -140.5t-74 -102t-107 -66t-122.5 -37.5t-125 -11q-67 0 -131 12.5t-107.5 30.5t-77.5 36t-50 31z" />
    <glyph glyph-name="sacute" unicode="&#x15b;" horiz-adv-x="873" 
d="M360 1008l-50 9l217 259q31 37 63 37q25 0 41.5 -16t16.5 -39q0 -32 -38 -62zM85 84v100q5 -6 14.5 -15.5t42.5 -34.5t69.5 -44t94.5 -34.5t119 -15.5q107 0 164.5 41t57.5 101q0 22 -7 41.5t-26.5 38t-33.5 30.5t-49.5 30t-51 25.5t-60.5 27.5q-67 30 -109 51t-86.5 50
t-69 56t-40 63.5t-15.5 78.5q0 59 26.5 104.5t73 72t104 39.5t123.5 13q50 0 97.5 -7.5t79.5 -17.5t57 -20.5t36 -17.5l12 -8v-91q-4 4 -12.5 11.5t-36.5 26.5t-58.5 33t-78.5 26t-98 12q-87 0 -143.5 -32.5t-56.5 -97.5q0 -52 44 -83.5t158 -78.5q52 -21 79 -32.5t69 -30.5
t64 -32.5t51.5 -33.5t44.5 -38.5t30.5 -42.5t21.5 -51.5t6 -58.5q0 -113 -92 -182.5t-276 -69.5q-66 0 -125.5 10t-97 24.5t-65 29t-39.5 24.5z" />
    <glyph glyph-name="Scircumflex" unicode="&#x15c;" horiz-adv-x="1008" 
d="M253 1473l234 300l233 -300l-46 -5l-187 135l-188 -135zM89 106v93q6 -7 18 -17.5t51 -38.5t81.5 -49t106.5 -38.5t129 -17.5q132 0 212.5 65.5t80.5 176.5q0 93 -62.5 169.5t-216.5 186.5q-61 43 -91.5 65.5t-77.5 59t-70 59.5t-52.5 56.5t-42.5 61.5t-23 63t-10 72
q0 76 34.5 136t92.5 95.5t127 54t145 18.5q68 0 135.5 -14t101.5 -28l34 -14v-87q-5 4 -13.5 10t-37.5 21t-59 27t-75 21.5t-89 9.5q-107 0 -180 -52t-73 -142q0 -36 13 -68t30 -56t59 -58.5t72 -55.5t97 -67q53 -36 81.5 -56t73 -53t68.5 -55.5t56 -54t49 -59t34 -61.5
t24 -69.5t7 -74.5q0 -78 -28.5 -140.5t-74 -102t-107 -66t-122.5 -37.5t-125 -11q-67 0 -131 12.5t-107.5 30.5t-77.5 36t-50 31z" />
    <glyph glyph-name="scircumflex" unicode="&#x15d;" horiz-adv-x="873" 
d="M190 1013l234 300l233 -300l-46 -5l-187 135l-188 -135zM85 84v100q5 -6 14.5 -15.5t42.5 -34.5t69.5 -44t94.5 -34.5t119 -15.5q107 0 164.5 41t57.5 101q0 22 -7 41.5t-26.5 38t-33.5 30.5t-49.5 30t-51 25.5t-60.5 27.5q-67 30 -109 51t-86.5 50t-69 56t-40 63.5
t-15.5 78.5q0 59 26.5 104.5t73 72t104 39.5t123.5 13q50 0 97.5 -7.5t79.5 -17.5t57 -20.5t36 -17.5l12 -8v-91q-4 4 -12.5 11.5t-36.5 26.5t-58.5 33t-78.5 26t-98 12q-87 0 -143.5 -32.5t-56.5 -97.5q0 -52 44 -83.5t158 -78.5q52 -21 79 -32.5t69 -30.5t64 -32.5
t51.5 -33.5t44.5 -38.5t30.5 -42.5t21.5 -51.5t6 -58.5q0 -113 -92 -182.5t-276 -69.5q-66 0 -125.5 10t-97 24.5t-65 29t-39.5 24.5z" />
    <glyph glyph-name="Scedilla" unicode="&#x15e;" horiz-adv-x="1008" 
d="M89 106v93q6 -7 18 -17.5t51 -38.5t81.5 -49t106.5 -38.5t129 -17.5q132 0 212.5 65.5t80.5 176.5q0 93 -62.5 169.5t-216.5 186.5q-61 43 -91.5 65.5t-77.5 59t-70 59.5t-52.5 56.5t-42.5 61.5t-23 63t-10 72q0 76 34.5 136t92.5 95.5t127 54t145 18.5q68 0 135.5 -14
t101.5 -28l34 -14v-87q-5 4 -13.5 10t-37.5 21t-59 27t-75 21.5t-89 9.5q-107 0 -180 -52t-73 -142q0 -36 13 -68t30 -56t59 -58.5t72 -55.5t97 -67q53 -36 81.5 -56t73 -53t68.5 -55.5t56 -54t49 -59t34 -61.5t24 -69.5t7 -74.5q0 -83 -31.5 -148.5t-86 -106t-117 -64
t-134.5 -32.5l-70 -77q62 -8 109 -51t47 -108q0 -69 -55 -112t-149 -43q-33 0 -61.5 6t-40.5 11l-12 6l-5 46q49 -21 101 -21q59 0 84.5 29.5t25.5 72.5q0 58 -46.5 90.5t-113.5 32.5l120 112h-22q-67 0 -131 12.5t-107.5 30.5t-77.5 36t-50 31z" />
    <glyph glyph-name="scedilla" unicode="&#x15f;" horiz-adv-x="873" 
d="M85 84v99q6 -7 17 -18t43.5 -35t69.5 -42.5t93.5 -33t116.5 -14.5q107 0 164.5 41t57.5 101q0 22 -7 41.5t-26.5 38t-33.5 30.5t-49.5 30t-51 25.5t-60.5 27.5q-67 30 -109 51t-86.5 50t-69 56t-40 63.5t-15.5 78.5q0 59 26.5 104.5t73 72t104 39.5t123.5 13
q50 0 97.5 -7.5t79.5 -17.5t57 -20.5t36 -17.5l12 -8v-91q-4 4 -12.5 11.5t-36.5 26.5t-58.5 33t-78.5 26t-98 12q-87 0 -143.5 -32.5t-56.5 -97.5q0 -52 44 -83.5t158 -78.5q52 -21 79 -32.5t69 -30.5t64 -32.5t51.5 -33.5t44.5 -38.5t30.5 -42.5t21.5 -51.5t6 -58.5
q0 -103 -77.5 -171t-233.5 -79l-68 -75q62 -8 109 -51t47 -108q0 -69 -55 -112t-149 -43q-33 0 -61.5 6t-40.5 11l-12 6l-5 46q49 -21 101 -21q59 0 84.5 29.5t25.5 72.5q0 58 -46.5 90.5t-113.5 32.5l122 114q-66 1 -124.5 11t-95 24.5t-64 28.5t-39.5 24z" />
    <glyph glyph-name="Scaron" unicode="&#x160;" horiz-adv-x="1008" 
d="M487 1468l-234 300l46 5l188 -134l187 134l46 -5zM89 106v93q6 -7 18 -17.5t51 -38.5t81.5 -49t106.5 -38.5t129 -17.5q132 0 212.5 65.5t80.5 176.5q0 93 -62.5 169.5t-216.5 186.5q-61 43 -91.5 65.5t-77.5 59t-70 59.5t-52.5 56.5t-42.5 61.5t-23 63t-10 72
q0 76 34.5 136t92.5 95.5t127 54t145 18.5q68 0 135.5 -14t101.5 -28l34 -14v-87q-5 4 -13.5 10t-37.5 21t-59 27t-75 21.5t-89 9.5q-107 0 -180 -52t-73 -142q0 -36 13 -68t30 -56t59 -58.5t72 -55.5t97 -67q53 -36 81.5 -56t73 -53t68.5 -55.5t56 -54t49 -59t34 -61.5
t24 -69.5t7 -74.5q0 -78 -28.5 -140.5t-74 -102t-107 -66t-122.5 -37.5t-125 -11q-67 0 -131 12.5t-107.5 30.5t-77.5 36t-50 31z" />
    <glyph glyph-name="scaron" unicode="&#x161;" horiz-adv-x="873" 
d="M424 1008l-234 300l46 5l188 -134l187 134l46 -5zM85 84v100q5 -6 14.5 -15.5t42.5 -34.5t69.5 -44t94.5 -34.5t119 -15.5q107 0 164.5 41t57.5 101q0 22 -7 41.5t-26.5 38t-33.5 30.5t-49.5 30t-51 25.5t-60.5 27.5q-67 30 -109 51t-86.5 50t-69 56t-40 63.5t-15.5 78.5
q0 59 26.5 104.5t73 72t104 39.5t123.5 13q50 0 97.5 -7.5t79.5 -17.5t57 -20.5t36 -17.5l12 -8v-91q-4 4 -12.5 11.5t-36.5 26.5t-58.5 33t-78.5 26t-98 12q-87 0 -143.5 -32.5t-56.5 -97.5q0 -52 44 -83.5t158 -78.5q52 -21 79 -32.5t69 -30.5t64 -32.5t51.5 -33.5
t44.5 -38.5t30.5 -42.5t21.5 -51.5t6 -58.5q0 -113 -92 -182.5t-276 -69.5q-66 0 -125.5 10t-97 24.5t-65 29t-39.5 24.5z" />
    <glyph glyph-name="Tcommaaccent" unicode="&#x162;" horiz-adv-x="1175" 
d="M556 -423v29q3 1 7.5 3.5t17 12t22 20.5t17 30t7.5 40q0 26 -10 46q-27 -27 -60 -27q-34 0 -57.5 22t-23.5 57q0 36 26 59.5t66 23.5q53 0 86.5 -41t33.5 -101q0 -37 -13.5 -68.5t-33 -50.5t-39 -32t-32.5 -18zM499 0v1304h-416v54h1009v-54h-415v-1304h-178z" />
    <glyph glyph-name="tcommaaccent" unicode="&#x163;" horiz-adv-x="694" 
d="M340 -423v29q3 1 7.5 3.5t17 12t22 20.5t17 30t7.5 40q0 26 -10 46q-27 -27 -60 -27q-34 0 -57.5 22t-23.5 57q0 36 26 59.5t66 23.5q53 0 86.5 -41t33.5 -101q0 -37 -13.5 -68.5t-33 -50.5t-39 -32t-32.5 -18zM215 370v463h-150v53h150v211l166 119v-330h254v-53h-254
v-532q0 -31 0.5 -47.5t3 -47.5t7 -49.5t14 -42t23 -36.5t35 -22.5t48.5 -9.5q20 0 40 3t30 5l9 3v-54q-38 -11 -79 -11q-71 0 -124.5 19.5t-86 52t-52 82t-27 103t-7.5 121.5z" />
    <glyph glyph-name="Tcaron" unicode="&#x164;" horiz-adv-x="1175" 
d="M587 1468l-234 300l46 5l188 -134l187 134l46 -5zM499 0v1304h-416v54h1009v-54h-415v-1304h-178z" />
    <glyph glyph-name="tcaron" unicode="&#x165;" horiz-adv-x="694" 
d="M486 1019l53 326q11 69 62 69q26 0 42 -15.5t16 -40.5q0 -19 -11 -48l-111 -291h-51zM215 370v463h-150v53h150v211l166 119v-330h254v-53h-254v-532q0 -31 0.5 -47.5t3 -47.5t7 -49.5t14 -42t23 -36.5t35 -22.5t48.5 -9.5q20 0 40 3t30 5l9 3v-54q-38 -11 -79 -11
q-71 0 -124.5 19.5t-86 52t-52 82t-27 103t-7.5 121.5z" />
    <glyph glyph-name="Tbar" unicode="&#x166;" horiz-adv-x="1175" 
d="M499 0v764h-303v54h303v486h-416v54h1009v-54h-416v-486h303v-54h-303v-764h-177z" />
    <glyph glyph-name="tbar" unicode="&#x167;" horiz-adv-x="694" 
d="M215 370v158h-179v54h179v251h-150v53h150v211l166 119v-330h254v-53h-254v-251h254v-54h-254v-227q0 -31 0.5 -47.5t3 -47.5t7 -49.5t14 -42t23 -36.5t35 -22.5t48.5 -9.5q20 0 40 3t30 5l9 3v-54q-38 -11 -79 -11q-71 0 -124.5 19.5t-86 52t-52 82t-27 103t-7.5 121.5z
" />
    <glyph glyph-name="Utilde" unicode="&#x168;" horiz-adv-x="1205" 
d="M1098 1358v-807q0 -158 -29 -266t-111 -191q-114 -117 -330 -117q-232 0 -358 115q-95 86 -129 209.5t-34 337.5v719h178v-758q0 -196 14.5 -292.5t61.5 -160.5q84 -116 267 -116q188 0 290 99q74 72 99.5 176.5t25.5 247.5v804h55zM355 1494q0 81 43.5 132t128.5 51
q54 0 142.5 -33.5t131.5 -33.5q33 0 56 19.5t27 60.5h42q0 -81 -44 -134t-129 -53q-55 0 -143 33.5t-126 33.5q-79 0 -87 -76h-42z" />
    <glyph glyph-name="utilde" unicode="&#x169;" horiz-adv-x="1006" 
d="M117 321v565h166v-565q0 -46 2.5 -81t12.5 -75t27 -65.5t48 -42.5t74 -17q70 0 123.5 41.5t84.5 111.5t46.5 151.5t15.5 170.5v371h166v-886h-166v283q-8 -41 -20.5 -78.5t-37 -79t-56.5 -71t-81 -49t-109 -19.5q-136 0 -216 91.5t-80 243.5zM223 1034q0 81 43.5 132
t128.5 51q54 0 142.5 -33.5t131.5 -33.5q33 0 56 19.5t27 60.5h42q0 -81 -44 -134t-129 -53q-55 0 -143 33.5t-126 33.5q-79 0 -87 -76h-42z" />
    <glyph glyph-name="Umacron" unicode="&#x16a;" horiz-adv-x="1205" 
d="M1098 1358v-807q0 -158 -29 -266t-111 -191q-114 -117 -330 -117q-232 0 -358 115q-95 86 -129 209.5t-34 337.5v719h178v-758q0 -196 14.5 -292.5t61.5 -160.5q84 -116 267 -116q188 0 290 99q74 72 99.5 176.5t25.5 247.5v804h55zM391 1532v71h501v-71h-501z" />
    <glyph glyph-name="umacron" unicode="&#x16b;" horiz-adv-x="1006" 
d="M117 321v565h166v-565q0 -46 2.5 -81t12.5 -75t27 -65.5t48 -42.5t74 -17q70 0 123.5 41.5t84.5 111.5t46.5 151.5t15.5 170.5v371h166v-886h-166v283q-8 -41 -20.5 -78.5t-37 -79t-56.5 -71t-81 -49t-109 -19.5q-136 0 -216 91.5t-80 243.5zM250 1072v71h501v-71h-501z
" />
    <glyph glyph-name="Ubreve" unicode="&#x16c;" horiz-adv-x="1205" 
d="M1098 1358v-807q0 -158 -29 -266t-111 -191q-114 -117 -330 -117q-232 0 -358 115q-95 86 -129 209.5t-34 337.5v719h178v-758q0 -196 14.5 -292.5t61.5 -160.5q84 -116 267 -116q188 0 290 99q74 72 99.5 176.5t25.5 247.5v804h55zM828 1708l45 14q0 -112 -65.5 -182.5
t-166.5 -70.5t-167 70.5t-66 182.5l45 -14q15 -57 63 -90t125 -33q76 0 124.5 33t62.5 90z" />
    <glyph glyph-name="ubreve" unicode="&#x16d;" horiz-adv-x="1006" 
d="M117 321v565h166v-565q0 -46 2.5 -81t12.5 -75t27 -65.5t48 -42.5t74 -17q70 0 123.5 41.5t84.5 111.5t46.5 151.5t15.5 170.5v371h166v-886h-166v283q-8 -41 -20.5 -78.5t-37 -79t-56.5 -71t-81 -49t-109 -19.5q-136 0 -216 91.5t-80 243.5zM687 1248l45 14
q0 -112 -65.5 -182.5t-166.5 -70.5t-167 70.5t-66 182.5l45 -14q15 -57 63 -90t125 -33q76 0 124.5 33t62.5 90z" />
    <glyph glyph-name="Uring" unicode="&#x16e;" horiz-adv-x="1205" 
d="M642 1474q-76 0 -125.5 36.5t-49.5 99.5q0 64 49 101t126 37q76 0 124.5 -37t48.5 -101q0 -63 -48.5 -99.5t-124.5 -36.5zM642 1514q67 0 67 96q0 47 -18 72t-49 25q-32 0 -50 -25t-18 -72q0 -96 68 -96zM1098 1358v-807q0 -158 -29 -266t-111 -191q-114 -117 -330 -117
q-232 0 -358 115q-95 86 -129 209.5t-34 337.5v719h178v-758q0 -196 14.5 -292.5t61.5 -160.5q84 -116 267 -116q188 0 290 99q74 72 99.5 176.5t25.5 247.5v804h55z" />
    <glyph glyph-name="uring" unicode="&#x16f;" horiz-adv-x="1006" 
d="M501 1014q-76 0 -125.5 36.5t-49.5 99.5q0 64 49 101t126 37q76 0 124.5 -37t48.5 -101q0 -63 -48.5 -99.5t-124.5 -36.5zM501 1054q67 0 67 96q0 47 -18 72t-49 25q-32 0 -50 -25t-18 -72q0 -96 68 -96zM117 321v565h166v-565q0 -46 2.5 -81t12.5 -75t27 -65.5t48 -42.5
t74 -17q70 0 123.5 41.5t84.5 111.5t46.5 151.5t15.5 170.5v371h166v-886h-166v283q-8 -41 -20.5 -78.5t-37 -79t-56.5 -71t-81 -49t-109 -19.5q-136 0 -216 91.5t-80 243.5z" />
    <glyph glyph-name="Uhungarumlaut" unicode="&#x170;" horiz-adv-x="1205" 
d="M1098 1358v-807q0 -158 -29 -266t-111 -191q-114 -117 -330 -117q-232 0 -358 115q-95 86 -129 209.5t-34 337.5v719h178v-758q0 -196 14.5 -292.5t61.5 -160.5q84 -116 267 -116q188 0 290 99q74 72 99.5 176.5t25.5 247.5v804h55zM631 1477l217 259q31 37 63 37
q25 0 41.5 -16t16.5 -39q0 -32 -38 -62l-249 -188zM418 1468l-50 9l217 259q31 37 63 37q25 0 41.5 -16t16.5 -39q0 -32 -38 -62z" />
    <glyph glyph-name="uhungarumlaut" unicode="&#x171;" horiz-adv-x="1006" 
d="M117 321v565h166v-565q0 -46 2.5 -81t12.5 -75t27 -65.5t48 -42.5t74 -17q70 0 123.5 41.5t84.5 111.5t46.5 151.5t15.5 170.5v371h166v-886h-166v283q-8 -41 -20.5 -78.5t-37 -79t-56.5 -71t-81 -49t-109 -19.5q-136 0 -216 91.5t-80 243.5zM479 1017l217 259
q31 37 63 37q25 0 41.5 -16t16.5 -39q0 -32 -38 -62l-249 -188zM266 1008l-50 9l217 259q31 37 63 37q25 0 41.5 -16t16.5 -39q0 -32 -38 -62z" />
    <glyph glyph-name="Uogonek" unicode="&#x172;" horiz-adv-x="1205" 
d="M760 -276v-50q-6 -5 -17 -13t-47 -21t-75 -13q-63 0 -97 31t-34 85q0 69 55.5 130t142.5 107q-28 -3 -60 -3q-232 0 -358 115q-95 86 -129 209.5t-34 337.5v719h178v-758q0 -196 14.5 -292.5t61.5 -160.5q84 -116 267 -116q188 0 290 99q74 72 99.5 176.5t25.5 247.5v804
h55v-807q0 -158 -29 -266t-111 -191q-63 -65 -159 -94q-86 -34 -141.5 -102t-55.5 -134q0 -34 15.5 -56.5t48.5 -22.5q25 0 48.5 9.5t34.5 19.5z" />
    <glyph glyph-name="uogonek" unicode="&#x173;" horiz-adv-x="1006" 
d="M117 321v565h166v-565q0 -46 2.5 -81t12.5 -75t27 -65.5t48 -42.5t74 -17q70 0 123.5 41.5t84.5 111.5t46.5 151.5t15.5 170.5v371h166v-886h-98q-86 -34 -141.5 -102t-55.5 -134q0 -34 15.5 -56.5t48.5 -22.5q25 0 48.5 9.5t34.5 19.5l11 10v-50q-6 -5 -17 -13t-47 -21
t-75 -13q-63 0 -97 31t-34 85q0 78 69.5 145t171.5 112v283q-8 -41 -20.5 -78.5t-37 -79t-56.5 -71t-81 -49t-109 -19.5q-136 0 -216 91.5t-80 243.5z" />
    <glyph glyph-name="Wcircumflex" unicode="&#x174;" horiz-adv-x="2018" 
d="M805 1473l234 300l233 -300l-46 -5l-187 135l-188 -135zM591 -23l-522 1381h186l399 -1060l409 1083l448 -1089l382 1066h56l-493 -1381l-455 1095z" />
    <glyph glyph-name="wcircumflex" unicode="&#x175;" horiz-adv-x="1517" 
d="M554 1013l234 300l233 -300l-46 -5l-187 135l-188 -135zM426 -21l-359 907h172l252 -642l318 663l328 -665l255 644h58l-359 -907l-338 685z" />
    <glyph glyph-name="Ycircumflex" unicode="&#x176;" horiz-adv-x="1190" 
d="M503 0v609l-442 749h201l402 -685l402 685h63l-448 -765v-593h-178zM388 1473l234 300l233 -300l-46 -5l-187 135l-188 -135z" />
    <glyph glyph-name="ycircumflex" unicode="&#x177;" horiz-adv-x="938" 
d="M448 41l-380 845h174l292 -650l291 650h59l-600 -1344h-59zM273 1013l234 300l233 -300l-46 -5l-187 135l-188 -135z" />
    <glyph glyph-name="Ydieresis" unicode="&#x178;" horiz-adv-x="1190" 
d="M503 0v609l-442 749h201l402 -685l402 685h63l-448 -765v-593h-178zM781 1516q-37 0 -62.5 25.5t-25.5 62.5q0 36 25.5 61.5t62.5 25.5t62.5 -25.5t25.5 -61.5q0 -37 -25.5 -62.5t-62.5 -25.5zM465 1516q-37 0 -62.5 25.5t-25.5 62.5q0 36 25.5 61.5t62.5 25.5
q36 0 61.5 -25.5t25.5 -61.5q0 -37 -25.5 -62.5t-61.5 -25.5z" />
    <glyph glyph-name="Zacute" unicode="&#x179;" horiz-adv-x="1061" 
d="M450 1468l-50 9l217 259q31 37 63 37q25 0 41.5 -16t16.5 -39q0 -32 -38 -62zM65 0l687 1304h-606v54h824l-686 -1304h706v-54h-925z" />
    <glyph glyph-name="zacute" unicode="&#x17a;" horiz-adv-x="832" 
d="M315 1008l-50 9l217 259q31 37 63 37q25 0 41.5 -16t16.5 -39q0 -32 -38 -62zM67 0l479 833h-436v53h641l-480 -832h498v-54h-702z" />
    <glyph glyph-name="Zdotaccent" unicode="&#x17b;" horiz-adv-x="1061" 
d="M65 0l687 1304h-606v54h824l-686 -1304h706v-54h-925zM533 1535q-37 0 -62.5 25.5t-25.5 62.5q0 36 25.5 61.5t62.5 25.5q36 0 61.5 -25.5t25.5 -61.5q0 -37 -25.5 -62.5t-61.5 -25.5z" />
    <glyph glyph-name="zdotaccent" unicode="&#x17c;" horiz-adv-x="832" 
d="M67 0l479 833h-436v53h641l-480 -832h498v-54h-702zM422 1075q-37 0 -62.5 25.5t-25.5 62.5q0 36 25.5 61.5t62.5 25.5q36 0 61.5 -25.5t25.5 -61.5q0 -37 -25.5 -62.5t-61.5 -25.5z" />
    <glyph glyph-name="Zcaron" unicode="&#x17d;" horiz-adv-x="1061" 
d="M533 1468l-234 300l46 5l188 -134l187 134l46 -5zM65 0l687 1304h-606v54h824l-686 -1304h706v-54h-925z" />
    <glyph glyph-name="zcaron" unicode="&#x17e;" horiz-adv-x="832" 
d="M422 1008l-234 300l46 5l188 -134l187 134l46 -5zM67 0l479 833h-436v53h641l-480 -832h498v-54h-702z" />
    <glyph glyph-name="florin" unicode="&#x192;" horiz-adv-x="1076" 
d="M-53 -333l5 -10t15 -21t26.5 -27t39.5 -21.5t54 -9.5q42 0 77.5 20.5t62.5 54t50 86.5t39 109.5t30.5 131.5t23 142.5t17.5 153.5t15 154t13.5 154t13.5 144h-307v54h313q13 110 31 194t48.5 157.5t72.5 120.5t102.5 73.5t137.5 26.5q38 0 69.5 -6t49.5 -14t31 -16
t17 -14l5 -6v-87q-2 6 -5 11.5t-15.5 21.5t-28.5 27t-45 20.5t-64 9.5q-113 0 -161.5 -111t-70.5 -408h293v-54h-297q-7 -88 -14.5 -161.5t-21 -172.5t-28.5 -180t-38.5 -173.5t-50 -164t-64 -140t-80 -113.5t-98 -72t-117.5 -27q-47 0 -83.5 14t-49.5 28l-13 14v87z" />
    <glyph glyph-name="Aringacute" unicode="&#x1fa;" horiz-adv-x="1254" 
d="M527 1687l137 181q27 35 60 35q25 0 42 -16.5t17 -39.5q0 -36 -39 -61l-167 -108zM67 0l547 1361q-71 4 -116 40t-45 96q0 64 49 101t126 37q76 0 124.5 -37t48.5 -101q0 -61 -45 -97t-117 -39l548 -1361h-187l-165 411h-547l-165 -411h-56zM628 1401q67 0 67 96
q0 47 -18 72t-49 25q-32 0 -50 -25t-18 -72q0 -96 68 -96zM309 465h504l-252 627z" />
    <glyph glyph-name="aringacute" unicode="&#x1fb;" horiz-adv-x="990" 
d="M403 1307l138 181q23 29 51 29q22 0 36.5 -14t14.5 -35q0 -29 -33 -52l-175 -114zM930 70v-47q-26 -23 -83 -23q-59 0 -113 34.5t-84 109.5q-78 -158 -285 -158q-127 0 -205.5 61t-78.5 176q0 36 9 66.5t22.5 54t40.5 46.5t51 39t67 36t74.5 33t87.5 34q62 24 98 43.5
t55 41t24.5 41.5t5.5 52q0 63 -30.5 101.5t-117.5 38.5q-51 0 -98.5 -14t-79 -33t-57.5 -41.5t-36.5 -35t-13.5 -17.5v99q4 4 12 10.5t36 22.5t60 28.5t84.5 23t108.5 10.5q304 0 304 -284v-367q0 -198 84 -198q14 0 28.5 4t21.5 8zM622 317v226q0 51 -1 72q-16 -41 -49 -65
t-126 -72q-104 -53 -149 -107t-45 -143q0 -85 42 -136.5t118 -51.5q77 0 135 43t87 115q-12 51 -12 119zM476 977q-76 0 -125.5 36.5t-49.5 99.5q0 64 49 101t126 37q76 0 124.5 -37t48.5 -101q0 -63 -48.5 -99.5t-124.5 -36.5zM476 1017q67 0 67 96q0 47 -18 72t-49 25
q-32 0 -50 -25t-18 -72q0 -96 68 -96z" />
    <glyph glyph-name="AEacute" unicode="&#x1fc;" horiz-adv-x="1628" 
d="M1053 1468l-50 9l217 259q31 37 63 37q25 0 41.5 -16t16.5 -39q0 -32 -38 -62zM55 0l874 1358h598v-54h-420v-584h323v-54h-323v-612h420v-54h-598v522h-473l-336 -522h-65zM491 576h438v680z" />
    <glyph glyph-name="aeacute" unicode="&#x1fd;" horiz-adv-x="1464" 
d="M663 1008l-50 9l217 259q31 37 63 37q25 0 41.5 -16t16.5 -39q0 -32 -38 -62zM1315 206v-100q-4 -5 -11 -13t-32.5 -28.5t-56 -36.5t-81 -29t-107.5 -13q-254 0 -353 211q-11 -36 -31 -69.5t-55 -67t-92.5 -54t-130.5 -20.5q-127 0 -205.5 61t-78.5 176q0 36 9 66.5
t22.5 54t40.5 46.5t51 39t67 36t74.5 33t87.5 34q62 24 98 43.5t55 41t24.5 41.5t5.5 52q0 63 -30.5 101.5t-117.5 38.5q-51 0 -98.5 -14t-79 -33t-57.5 -41.5t-36.5 -35t-13.5 -17.5v99q4 4 12 10.5t36 22.5t60 28.5t84.5 23t108.5 10.5q182 0 250 -115q107 115 269 115
q168 0 269.5 -123t106.5 -320h-600q1 -71 7.5 -129.5t24.5 -114t45.5 -93t73 -60.5t104.5 -23q58 0 109 19t85 48.5t54 53t33 45.5zM779 514h424q-7 163 -53.5 249.5t-148.5 86.5t-158.5 -91.5t-63.5 -244.5zM252 228q0 -85 42 -136.5t118 -51.5q92 0 156.5 61t82.5 157
q-29 93 -29 205q0 131 -1 152q-16 -41 -49 -65t-126 -72q-104 -53 -149 -107t-45 -143z" />
    <glyph glyph-name="Oslashacute" unicode="&#x1fe;" horiz-adv-x="1614" 
d="M465 -147l66 170q-203 77 -325.5 251.5t-122.5 404.5q0 148 56.5 279t153.5 224.5t231 147.5t283 54q123 0 242 -39l64 163h44l-69 -177q200 -79 321.5 -254t121.5 -398q0 -151 -56.5 -283t-153.5 -224t-230.5 -145t-283.5 -53q-121 0 -237 36l-61 -157h-44zM558 92
l466 1190q-99 48 -217 48q-237 0 -383.5 -181.5t-146.5 -469.5q0 -202 74.5 -356t206.5 -231zM595 73q95 -45 212 -45q238 0 384.5 181t146.5 470q0 199 -73.5 352t-203.5 231zM720 1468l-50 9l217 259q31 37 63 37q25 0 41.5 -16t16.5 -39q0 -32 -38 -62z" />
    <glyph glyph-name="oslashacute" unicode="&#x1ff;" horiz-adv-x="1018" 
d="M159 -127l107 186q-88 60 -138 160t-50 222q0 196 122.5 329t308.5 133q116 0 212 -56l91 159h46l-104 -180q87 -62 136.5 -163t49.5 -222q0 -196 -122.5 -325.5t-308.5 -129.5q-116 0 -209 52l-95 -165h-46zM317 146l360 626q-67 78 -168 78q-67 0 -118.5 -32.5
t-81.5 -90t-44.5 -129.5t-14.5 -157q0 -190 67 -295zM342 112q64 -72 167 -72q89 0 148.5 55.5t85.5 143t26 202.5q0 186 -67 295zM384 1008l-50 9l217 259q31 37 63 37q25 0 41.5 -16t16.5 -39q0 -32 -38 -62z" />
    <glyph glyph-name="Scommaaccent" unicode="&#x218;" horiz-adv-x="1008" 
d="M463 -423v29q3 1 7.5 3.5t17 12t22 20.5t17 30t7.5 40q0 26 -10 46q-27 -27 -60 -27q-34 0 -57.5 22t-23.5 57q0 36 26 59.5t66 23.5q53 0 86.5 -41t33.5 -101q0 -37 -13.5 -68.5t-33 -50.5t-39 -32t-33.5 -18zM89 106v93q6 -7 18 -17.5t51 -38.5t81.5 -49t106.5 -38.5
t129 -17.5q132 0 212.5 65.5t80.5 176.5q0 93 -62.5 169.5t-216.5 186.5q-61 43 -91.5 65.5t-77.5 59t-70 59.5t-52.5 56.5t-42.5 61.5t-23 63t-10 72q0 76 34.5 136t92.5 95.5t127 54t145 18.5q68 0 135.5 -14t101.5 -28l34 -14v-87q-5 4 -13.5 10t-37.5 21t-59 27
t-75 21.5t-89 9.5q-107 0 -180 -52t-73 -142q0 -36 13 -68t30 -56t59 -58.5t72 -55.5t97 -67q53 -36 81.5 -56t73 -53t68.5 -55.5t56 -54t49 -59t34 -61.5t24 -69.5t7 -74.5q0 -78 -28.5 -140.5t-74 -102t-107 -66t-122.5 -37.5t-125 -11q-67 0 -131 12.5t-107.5 30.5
t-77.5 36t-50 31z" />
    <glyph glyph-name="scommaaccent" unicode="&#x219;" horiz-adv-x="873" 
d="M398 -423v29q3 1 7.5 3.5t17 12t22 20.5t17 30t7.5 40q0 26 -10 46q-27 -27 -60 -27q-34 0 -57.5 22t-23.5 57q0 36 26 59.5t66 23.5q53 0 86.5 -41t33.5 -101q0 -37 -13.5 -68.5t-33 -50.5t-39 -32t-32.5 -18zM85 84v100q5 -6 14.5 -15.5t42.5 -34.5t69.5 -44
t94.5 -34.5t119 -15.5q107 0 164.5 41t57.5 101q0 22 -7 41.5t-26.5 38t-33.5 30.5t-49.5 30t-51 25.5t-60.5 27.5q-67 30 -109 51t-86.5 50t-69 56t-40 63.5t-15.5 78.5q0 59 26.5 104.5t73 72t104 39.5t123.5 13q50 0 97.5 -7.5t79.5 -17.5t57 -20.5t36 -17.5l12 -8v-91
q-4 4 -12.5 11.5t-36.5 26.5t-58.5 33t-78.5 26t-98 12q-87 0 -143.5 -32.5t-56.5 -97.5q0 -52 44 -83.5t158 -78.5q52 -21 79 -32.5t69 -30.5t64 -32.5t51.5 -33.5t44.5 -38.5t30.5 -42.5t21.5 -51.5t6 -58.5q0 -113 -92 -182.5t-276 -69.5q-66 0 -125.5 10t-97 24.5
t-65 29t-39.5 24.5z" />
    <glyph glyph-name="uni021A" unicode="&#x21a;" horiz-adv-x="1175" 
d="M556 -423v29q3 1 7.5 3.5t17 12t22 20.5t17 30t7.5 40q0 26 -10 46q-27 -27 -60 -27q-34 0 -57.5 22t-23.5 57q0 36 26 59.5t66 23.5q53 0 86.5 -41t33.5 -101q0 -37 -13.5 -68.5t-33 -50.5t-39 -32t-32.5 -18zM499 0v1304h-416v54h1009v-54h-415v-1304h-178z" />
    <glyph glyph-name="uni021B" unicode="&#x21b;" horiz-adv-x="694" 
d="M340 -423v29q3 1 7.5 3.5t17 12t22 20.5t17 30t7.5 40q0 26 -10 46q-27 -27 -60 -27q-34 0 -57.5 22t-23.5 57q0 36 26 59.5t66 23.5q53 0 86.5 -41t33.5 -101q0 -37 -13.5 -68.5t-33 -50.5t-39 -32t-32.5 -18zM215 370v463h-150v53h150v211l166 119v-330h254v-53h-254
v-532q0 -31 0.5 -47.5t3 -47.5t7 -49.5t14 -42t23 -36.5t35 -22.5t48.5 -9.5q20 0 40 3t30 5l9 3v-54q-38 -11 -79 -11q-71 0 -124.5 19.5t-86 52t-52 82t-27 103t-7.5 121.5z" />
    <glyph glyph-name="uni0237" unicode="&#x237;" horiz-adv-x="436" 
d="M135 230v656h166v-582q0 -137 -20.5 -252.5t-53.5 -191.5t-72.5 -136t-79 -93t-72.5 -54.5t-53 -28.5l-21 -6v48q25 20 40 34t39.5 43t40 59t33.5 79.5t28.5 107t17.5 139t7 178.5z" />
    <glyph glyph-name="circumflex" unicode="&#x2c6;" horiz-adv-x="673" 
d="M103 1013l234 300l233 -300l-46 -5l-187 135l-188 -135z" />
    <glyph glyph-name="caron" unicode="&#x2c7;" horiz-adv-x="673" 
d="M337 1008l-234 300l46 5l188 -134l187 134l46 -5z" />
    <glyph glyph-name="uni02C9" unicode="&#x2c9;" horiz-adv-x="707" 
d="M103 1072v71h501v-71h-501z" />
    <glyph glyph-name="breve" unicode="&#x2d8;" horiz-adv-x="662" 
d="M518 1248l45 14q0 -112 -65.5 -182.5t-166.5 -70.5t-167 70.5t-66 182.5l45 -14q15 -57 63 -90t125 -33q76 0 124.5 33t62.5 90z" />
    <glyph glyph-name="dotaccent" unicode="&#x2d9;" horiz-adv-x="381" 
d="M191 1075q-37 0 -62.5 25.5t-25.5 62.5q0 36 25.5 61.5t62.5 25.5q36 0 61.5 -25.5t25.5 -61.5q0 -37 -25.5 -62.5t-61.5 -25.5z" />
    <glyph glyph-name="ring" unicode="&#x2da;" horiz-adv-x="554" 
d="M278 1014q-76 0 -125.5 36.5t-49.5 99.5q0 64 49 101t126 37q76 0 124.5 -37t48.5 -101q0 -63 -48.5 -99.5t-124.5 -36.5zM278 1054q67 0 67 96q0 47 -18 72t-49 25q-32 0 -50 -25t-18 -72q0 -96 68 -96z" />
    <glyph glyph-name="ogonek" unicode="&#x2db;" horiz-adv-x="507" 
d="M365 -276v-50q-6 -5 -17 -13t-47 -21t-75 -13q-63 0 -97 31t-34 85q0 78 69.5 145t171.5 112h68q-86 -34 -141.5 -102t-55.5 -134q0 -34 15.5 -56.5t48.5 -22.5q25 0 48.5 9.5t34.5 19.5z" />
    <glyph glyph-name="tilde" unicode="&#x2dc;" horiz-adv-x="777" 
d="M103 1034q0 81 43.5 132t128.5 51q54 0 142.5 -33.5t131.5 -33.5q33 0 56 19.5t27 60.5h42q0 -81 -44 -134t-129 -53q-55 0 -143 33.5t-126 33.5q-79 0 -87 -76h-42z" />
    <glyph glyph-name="hungarumlaut" unicode="&#x2dd;" horiz-adv-x="811" 
d="M363 1017l217 259q31 37 63 37q25 0 41.5 -16t16.5 -39q0 -32 -38 -62l-249 -188zM150 1008l-50 9l217 259q31 37 63 37q25 0 41.5 -16t16.5 -39q0 -32 -38 -62z" />
    <glyph glyph-name="anoteleia" unicode="&#x387;" horiz-adv-x="403" 
d="M107 444q0 39 27.5 66t66.5 27t67 -27t28 -66t-28 -66.5t-67 -27.5t-66.5 27.5t-27.5 66.5z" />
    <glyph glyph-name="pi" unicode="&#x3c0;" horiz-adv-x="1186" 
d="M273 0v841h-210v54h1050v-54h-210v-541q0 -57 3.5 -93.5t16 -78t41.5 -62.5t74 -21q17 0 35.5 3t28.5 6l11 2v-54q-35 -11 -92 -11q-67 0 -118 21t-82 55t-50.5 84.5t-26.5 103t-7 117.5v469h-298v-841h-166z" />
    <glyph glyph-name="Wgrave" unicode="&#x1e80;" horiz-adv-x="2018" 
d="M591 -23l-522 1381h186l399 -1060l409 1083l448 -1089l382 1066h56l-493 -1381l-455 1095zM1192 1477l-50 -9l-250 188q-38 30 -38 62q0 23 16.5 39t41.5 16q32 0 63 -37z" />
    <glyph glyph-name="wgrave" unicode="&#x1e81;" horiz-adv-x="1517" 
d="M426 -21l-359 907h172l252 -642l318 663l328 -665l255 644h58l-359 -907l-338 685zM919 1017l-50 -9l-250 188q-38 30 -38 62q0 23 16.5 39t41.5 16q32 0 63 -37z" />
    <glyph glyph-name="Wacute" unicode="&#x1e82;" horiz-adv-x="2018" 
d="M959 1468l-50 9l217 259q31 37 63 37q25 0 41.5 -16t16.5 -39q0 -32 -38 -62zM591 -23l-522 1381h186l399 -1060l409 1083l448 -1089l382 1066h56l-493 -1381l-455 1095z" />
    <glyph glyph-name="wacute" unicode="&#x1e83;" horiz-adv-x="1517" 
d="M707 1008l-50 9l217 259q31 37 63 37q25 0 41.5 -16t16.5 -39q0 -32 -38 -62zM426 -21l-359 907h172l252 -642l318 663l328 -665l255 644h58l-359 -907l-338 685z" />
    <glyph glyph-name="Wdieresis" unicode="&#x1e84;" horiz-adv-x="2018" 
d="M1198 1516q-37 0 -62.5 25.5t-25.5 62.5q0 36 25.5 61.5t62.5 25.5t62.5 -25.5t25.5 -61.5q0 -37 -25.5 -62.5t-62.5 -25.5zM882 1516q-37 0 -62.5 25.5t-25.5 62.5q0 36 25.5 61.5t62.5 25.5q36 0 61.5 -25.5t25.5 -61.5q0 -37 -25.5 -62.5t-61.5 -25.5zM591 -23
l-522 1381h186l399 -1060l409 1083l448 -1089l382 1066h56l-493 -1381l-455 1095z" />
    <glyph glyph-name="wdieresis" unicode="&#x1e85;" horiz-adv-x="1517" 
d="M947 1056q-37 0 -62.5 25.5t-25.5 62.5q0 36 25.5 61.5t62.5 25.5t62.5 -25.5t25.5 -61.5q0 -37 -25.5 -62.5t-62.5 -25.5zM631 1056q-37 0 -62.5 25.5t-25.5 62.5q0 36 25.5 61.5t62.5 25.5q36 0 61.5 -25.5t25.5 -61.5q0 -37 -25.5 -62.5t-61.5 -25.5zM426 -21
l-359 907h172l252 -642l318 663l328 -665l255 644h58l-359 -907l-338 685z" />
    <glyph glyph-name="Ygrave" unicode="&#x1ef2;" horiz-adv-x="1190" 
d="M503 0v609l-442 749h201l402 -685l402 685h63l-448 -765v-593h-178zM750 1477l-50 -9l-250 188q-38 30 -38 62q0 23 16.5 39t41.5 16q32 0 63 -37z" />
    <glyph glyph-name="ygrave" unicode="&#x1ef3;" horiz-adv-x="938" 
d="M448 41l-380 845h174l292 -650l291 650h59l-600 -1344h-59zM635 1017l-50 -9l-250 188q-38 30 -38 62q0 23 16.5 39t41.5 16q32 0 63 -37z" />
    <glyph glyph-name="uni2011" unicode="&#x2011;" horiz-adv-x="837" 
d="M109 411v54h619v-54h-619z" />
    <glyph glyph-name="figuredash" unicode="&#x2012;" horiz-adv-x="1151" 
d="M109 411v54h933v-54h-933z" />
    <glyph glyph-name="endash" unicode="&#x2013;" horiz-adv-x="1151" 
d="M109 411v54h933v-54h-933z" />
    <glyph glyph-name="emdash" unicode="&#x2014;" horiz-adv-x="1716" 
d="M109 411v54h1498v-54h-1498z" />
    <glyph glyph-name="uni2015" unicode="&#x2015;" horiz-adv-x="1716" 
d="M109 411v54h1498v-54h-1498z" />
    <glyph glyph-name="quoteleft" unicode="&#x2018;" horiz-adv-x="424" 
d="M309 1396v-33q-6 -3 -16 -8.5t-36 -26t-46 -44t-36 -62t-16 -79.5q0 -46 17 -74q27 29 68 29q39 0 66 -26.5t27 -65.5q0 -42 -29 -70.5t-78 -28.5q-64 0 -103.5 51.5t-39.5 134.5q0 45 12 86t32 71t43.5 55t47 41.5t43.5 28t32 16.5z" />
    <glyph glyph-name="quoteright" unicode="&#x2019;" horiz-adv-x="424" 
d="M115 907v33q6 3 16 8.5t36 26t46 44t36 62t16 79.5q0 45 -17 73q-27 -29 -68 -29q-39 0 -66 26.5t-27 66.5q0 42 29 70.5t78 28.5q64 0 103.5 -51.5t39.5 -134.5q0 -45 -12 -86t-32 -71t-43.5 -55t-47 -41.5t-43.5 -28t-32 -16.5z" />
    <glyph glyph-name="quotesinglbase" unicode="&#x201a;" horiz-adv-x="424" 
d="M115 -319v33q6 3 16 8.5t36 26t46 44t36 62t16 79.5q0 45 -17 73q-27 -29 -68 -29q-39 0 -66 26.5t-27 66.5q0 42 29 70.5t78 28.5q64 0 103.5 -51.5t39.5 -134.5q0 -45 -12 -86t-32 -71t-43.5 -55t-47 -41.5t-43.5 -28t-32 -16.5z" />
    <glyph glyph-name="quotedblleft" unicode="&#x201c;" horiz-adv-x="737" 
d="M309 1396v-33q-6 -3 -16 -8.5t-36 -26t-46 -44t-36 -62t-16 -79.5q0 -46 17 -74q27 29 68 29q39 0 66 -26.5t27 -65.5q0 -42 -29 -70.5t-78 -28.5q-64 0 -103.5 51.5t-39.5 134.5q0 45 12 86t32 71t43.5 55t47 41.5t43.5 28t32 16.5zM622 1396v-33q-6 -3 -16 -8.5
t-36 -26t-46 -44t-36 -62t-16 -79.5q0 -46 17 -74q27 29 68 29q39 0 66 -26.5t27 -65.5q0 -42 -29 -70.5t-78 -28.5q-64 0 -103.5 51.5t-39.5 134.5q0 45 12 86t32 71t43.5 55t47 41.5t43.5 28t32 16.5z" />
    <glyph glyph-name="quotedblright" unicode="&#x201d;" horiz-adv-x="737" 
d="M115 907v33q6 3 16 8.5t36 26t46 44t36 62t16 79.5q0 45 -17 73q-27 -29 -68 -29q-39 0 -66 26.5t-27 66.5q0 42 29 70.5t78 28.5q64 0 103.5 -51.5t39.5 -134.5q0 -45 -12 -86t-32 -71t-43.5 -55t-47 -41.5t-43.5 -28t-32 -16.5zM428 907v33q6 3 16 8.5t36 26t46 44
t36 62t16 79.5q0 45 -17 73q-27 -29 -68 -29q-39 0 -66 26.5t-27 66.5q0 42 29 70.5t78 28.5q64 0 103.5 -51.5t39.5 -134.5q0 -45 -12 -86t-32 -71t-43.5 -55t-47 -41.5t-43.5 -28t-32 -16.5z" />
    <glyph glyph-name="quotedblbase" unicode="&#x201e;" horiz-adv-x="737" 
d="M115 -319v33q6 3 16 8.5t36 26t46 44t36 62t16 79.5q0 45 -17 73q-27 -29 -68 -29q-39 0 -66 26.5t-27 66.5q0 42 29 70.5t78 28.5q64 0 103.5 -51.5t39.5 -134.5q0 -45 -12 -86t-32 -71t-43.5 -55t-47 -41.5t-43.5 -28t-32 -16.5zM428 -319v33q6 3 16 8.5t36 26t46 44
t36 62t16 79.5q0 45 -17 73q-27 -29 -68 -29q-39 0 -66 26.5t-27 66.5q0 42 29 70.5t78 28.5q64 0 103.5 -51.5t39.5 -134.5q0 -45 -12 -86t-32 -71t-43.5 -55t-47 -41.5t-43.5 -28t-32 -16.5z" />
    <glyph glyph-name="dagger" unicode="&#x2020;" horiz-adv-x="1079" 
d="M513 -458l-50 1316h-380l17 54h361l-16 446h189l-17 -446h379l-17 -54h-364l-49 -1316h-53z" />
    <glyph glyph-name="daggerdbl" unicode="&#x2021;" horiz-adv-x="1079" 
d="M83 603l17 54h371l-8 201h-380l17 54h361l-16 446h189l-17 -446h379l-17 -54h-364l-8 -201h389l-17 -54h-374l-39 -1061h-53l-40 1061h-390z" />
    <glyph glyph-name="bullet" unicode="&#x2022;" horiz-adv-x="688" 
d="M344 218q-93 0 -159 66t-66 159t66 159t159 66t159 -66t66 -159t-66 -159t-159 -66z" />
    <glyph glyph-name="ellipsis" unicode="&#x2026;" horiz-adv-x="1208" 
d="M107 76q0 39 27.5 66t66.5 27t67 -27t28 -66t-28 -66.5t-67 -27.5t-66.5 27.5t-27.5 66.5zM510 76q0 39 27.5 66t66.5 27t67 -27t28 -66t-28 -66.5t-67 -27.5t-66.5 27.5t-27.5 66.5zM912 76q0 39 27.5 66t66.5 27t67 -27t28 -66t-28 -66.5t-67 -27.5t-66.5 27.5
t-27.5 66.5z" />
    <glyph glyph-name="perthousand" unicode="&#x2030;" horiz-adv-x="2431" 
d="M361 -98l848 1555h57l-848 -1555h-57zM403 712q-147 0 -243.5 95t-96.5 236t96.5 237t243.5 96q146 0 242.5 -96t96.5 -237t-96.5 -236t-242.5 -95zM403 764q51 0 89 25t58.5 67.5t29.5 89t9 97.5t-9 97.5t-29.5 89.5t-58.5 68.5t-89 25.5t-89 -25.5t-58.5 -68.5
t-29.5 -89.5t-9 -97.5t9 -97.5t29.5 -89t58.5 -67.5t89 -25zM1690 313q0 141 96.5 237t243.5 96q146 0 242 -96t96 -237t-96 -236t-242 -95q-147 0 -243.5 95t-96.5 236zM886 313q0 141 96.5 237t243.5 96t243 -96t96 -237t-96 -236t-243 -95t-243.5 95t-96.5 236zM1843 313
q0 -51 9.5 -97.5t29.5 -88.5t58.5 -67.5t89.5 -25.5t89 25t58.5 67.5t29.5 89t9 97.5t-9 97.5t-29.5 89.5t-58.5 68.5t-89 25.5t-89.5 -25.5t-58.5 -68.5t-29.5 -89.5t-9.5 -97.5zM1040 313q0 -51 9 -97.5t29.5 -89t58.5 -67.5t89 -25t89 25t58.5 67.5t29.5 89t9 97.5
t-9 97.5t-29.5 89.5t-58.5 68.5t-89 25.5t-89 -25.5t-58.5 -68.5t-29.5 -89.5t-9 -97.5z" />
    <glyph glyph-name="guilsinglleft" unicode="&#x2039;" horiz-adv-x="572" 
d="M424 126l-345 320l345 320l39 -38l-305 -282l304 -282z" />
    <glyph glyph-name="guilsinglright" unicode="&#x203a;" horiz-adv-x="572" 
d="M148 126l-38 38l302 282l-303 282l39 38l345 -320z" />
    <glyph glyph-name="fraction" unicode="&#x2044;" horiz-adv-x="285" 
d="M-257 -98h-49l848 1555h49z" />
    <glyph glyph-name="zerosuperior" unicode="&#x2070;" horiz-adv-x="657" 
d="M328 947q-102 0 -175 95t-73 259t73 259t175 95t175.5 -95t73.5 -259t-73.5 -259t-175.5 -95zM328 987q125 0 125 314t-125 314q-124 0 -124 -314t124 -314z" />
    <glyph glyph-name="foursuperior" unicode="&#x2074;" horiz-adv-x="676" 
d="M350 960v162h-301l430 534v-494h136v-40h-136v-162h-129zM135 1162h215v267z" />
    <glyph glyph-name="fivesuperior" unicode="&#x2075;" horiz-adv-x="605" 
d="M162 1532l-21 -149q55 52 147 52q114 0 179 -68t65 -170q0 -101 -65.5 -175.5t-194.5 -74.5q-58 0 -102.5 15.5t-60.5 31.5l-16 15v59q2 -3 6.5 -8.5t19 -19.5t31.5 -24.5t43.5 -19.5t55.5 -9q78 0 118.5 58t40.5 151q0 89 -34.5 144t-106.5 55q-41 0 -76 -19.5
t-49 -38.5l-15 -19h-36l48 324h341l-40 -110h-278z" />
    <glyph glyph-name="sixsuperior" unicode="&#x2076;" horiz-adv-x="617" 
d="M423 1655v-40q-71 -19 -135 -84t-95 -169q44 73 137 73q95 0 162.5 -66t67.5 -173q0 -113 -74.5 -181t-174.5 -68q-99 0 -171.5 70.5t-72.5 203.5q0 81 25 151t62.5 116t87.5 82t94 55.5t87 29.5zM312 987q35 0 60.5 18.5t38.5 50t19 65.5t6 72q0 52 -9 94t-37 75t-72 33
q-35 0 -61 -20t-40 -52.5t-20 -67.5t-6 -73q0 -35 5.5 -66.5t18 -62t37.5 -48.5t60 -18z" />
    <glyph glyph-name="sevensuperior" unicode="&#x2077;" horiz-adv-x="584" 
d="M118 960l274 640h-303v40h454l-292 -680h-133z" />
    <glyph glyph-name="eightsuperior" unicode="&#x2078;" horiz-adv-x="626" 
d="M316 947q-119 0 -189 49t-70 137q0 125 161 200q-96 69 -96 162q0 74 54.5 117t138.5 43q87 0 135 -44t48 -103q0 -81 -91 -134q75 -43 118.5 -94.5t43.5 -131.5q0 -87 -65 -144t-188 -57zM368 1395q52 45 52 114q0 45 -26.5 75.5t-80.5 30.5q-47 0 -72.5 -24t-25.5 -57
q0 -23 11 -42t37 -37.5t45.5 -29t59.5 -30.5zM319 987q71 0 109.5 37.5t38.5 88.5q0 27 -11.5 50.5t-37 44.5t-46.5 34t-61 35t-58 33q-94 -61 -94 -172q0 -76 46 -113.5t114 -37.5z" />
    <glyph glyph-name="ninesuperior" unicode="&#x2079;" horiz-adv-x="617" 
d="M194 947v40q71 18 135 83.5t94 168.5q-44 -72 -136 -72q-95 0 -162.5 66t-67.5 173q0 113 74.5 181t174.5 68q99 0 171.5 -70.5t72.5 -203.5q0 -81 -25 -151t-62.5 -116t-87.5 -82t-94 -55.5t-87 -29.5zM299 1207q35 0 61 20t40 52.5t20 67.5t6 73q0 35 -5.5 66.5t-18 62
t-37.5 48.5t-60 18t-60.5 -18.5t-38.5 -50t-19 -65.5t-6 -72q0 -52 9 -94t37 -75t72 -33z" />
    <glyph glyph-name="uni2080" unicode="&#x2080;" horiz-adv-x="657" 
d="M328 -15q-102 0 -175 95t-73 259t73 259t175 95t175.5 -95t73.5 -259t-73.5 -259t-175.5 -95zM328 25q125 0 125 314t-125 314q-124 0 -124 -314t124 -314z" />
    <glyph glyph-name="uni2081" unicode="&#x2081;" horiz-adv-x="649" 
d="M77 0v40h193v523l-118 -78v48l247 162v-655h193v-40h-515z" />
    <glyph glyph-name="uni2082" unicode="&#x2082;" horiz-adv-x="556" 
d="M39 0q12 10 31 28t68 75t86.5 115t68.5 141.5t31 161.5q0 134 -94 134q-30 0 -56.5 -12.5t-43 -30.5t-28.5 -35.5t-17 -30.5l-5 -12v74q2 4 5 9.5t17 20.5t32 26.5t49.5 21t68.5 9.5q95 0 143.5 -53.5t48.5 -133.5q0 -60 -27.5 -124t-71.5 -118t-80 -90.5t-71 -65.5h317
l-40 -110h-432z" />
    <glyph glyph-name="uni2083" unicode="&#x2083;" horiz-adv-x="610" 
d="M125 535v71q1 4 4.5 9.5t16.5 20.5t30.5 26.5t49 21t69.5 9.5q87 0 132.5 -43t45.5 -106q0 -89 -79 -145q67 -18 111 -70.5t44 -128.5q0 -95 -71.5 -155t-196.5 -60q-39 0 -72.5 6.5t-53.5 15.5t-33.5 17.5t-19.5 15.5l-5 6v60q3 -3 8 -8.5t22 -19.5t35.5 -24.5
t47.5 -19.5t59 -9q75 0 115.5 49t40.5 122q0 56 -25.5 105.5t-73.5 62.5q-57 -20 -123 -20l10 43q34 21 94 23q60 39 60 130q0 50 -23 81.5t-74 31.5q-31 0 -57 -12t-41.5 -29.5t-26.5 -35t-15 -29.5z" />
    <glyph glyph-name="uni2084" unicode="&#x2084;" horiz-adv-x="676" 
d="M350 0v162h-301l430 534v-494h136v-40h-136v-162h-129zM135 202h215v267z" />
    <glyph glyph-name="uni2085" unicode="&#x2085;" horiz-adv-x="605" 
d="M162 572l-21 -149q55 52 147 52q114 0 179 -68t65 -170q0 -101 -65.5 -175.5t-194.5 -74.5q-58 0 -102.5 15.5t-60.5 31.5l-16 15v59q2 -3 6.5 -8.5t19 -19.5t31.5 -24.5t43.5 -19.5t55.5 -9q78 0 118.5 58t40.5 151q0 89 -34.5 144t-106.5 55q-41 0 -76 -19.5t-49 -38.5
l-15 -19h-36l48 324h341l-40 -110h-278z" />
    <glyph glyph-name="uni2086" unicode="&#x2086;" horiz-adv-x="617" 
d="M423 693v-40q-71 -19 -135 -84t-95 -169q44 73 137 73q95 0 162.5 -66t67.5 -173q0 -113 -74.5 -181t-174.5 -68q-99 0 -171.5 70.5t-72.5 203.5q0 81 25 151t62.5 116t87.5 82t94 55.5t87 29.5zM312 25q35 0 60.5 18.5t38.5 50t19 65.5t6 72q0 52 -9 94t-37 75t-72 33
q-35 0 -61 -20t-40 -52.5t-20 -67.5t-6 -73q0 -35 5.5 -66.5t18 -62t37.5 -48.5t60 -18z" />
    <glyph glyph-name="uni2087" unicode="&#x2087;" horiz-adv-x="584" 
d="M118 0l274 640h-303v40h454l-292 -680h-133z" />
    <glyph glyph-name="uni2088" unicode="&#x2088;" horiz-adv-x="626" 
d="M316 -15q-119 0 -189 49t-70 137q0 125 161 200q-96 69 -96 162q0 74 54.5 117t138.5 43q87 0 135 -44t48 -103q0 -81 -91 -134q75 -43 118.5 -94.5t43.5 -131.5q0 -87 -65 -144t-188 -57zM368 433q52 45 52 114q0 45 -26.5 75.5t-80.5 30.5q-47 0 -72.5 -24t-25.5 -57
q0 -23 11 -42t37 -37.5t45.5 -29t59.5 -30.5zM319 25q71 0 109.5 37.5t38.5 88.5q0 27 -11.5 50.5t-37 44.5t-46.5 34t-61 35t-58 33q-94 -61 -94 -172q0 -76 46 -113.5t114 -37.5z" />
    <glyph glyph-name="uni2089" unicode="&#x2089;" horiz-adv-x="617" 
d="M194 -15v40q71 18 135 83.5t94 168.5q-44 -72 -136 -72q-95 0 -162.5 66t-67.5 173q0 113 74.5 181t174.5 68q99 0 171.5 -70.5t72.5 -203.5q0 -81 -25 -151t-62.5 -116t-87.5 -82t-94 -55.5t-87 -29.5zM299 245q35 0 61 20t40 52.5t20 67.5t6 73q0 35 -5.5 66.5t-18 62
t-37.5 48.5t-60 18t-60.5 -18.5t-38.5 -50t-19 -65.5t-6 -72q0 -52 9 -94t37 -75t72 -33z" />
    <glyph glyph-name="Euro" unicode="&#x20ac;" horiz-adv-x="1083" 
d="M49 531l18 54h130q-4 40 -4 94q0 47 3 94h-147l18 54h135q34 252 170.5 404.5t319.5 152.5q44 0 86.5 -9.5t72.5 -23.5t53 -28t34 -23l12 -10v-106q-4 6 -10.5 16t-31 35t-52 44t-72 35t-92.5 16q-140 0 -217.5 -131.5t-94.5 -371.5h502l-19 -54h-486q-2 -30 -2 -93
q0 -65 2 -95h416l-19 -54h-394q17 -240 95 -371.5t219 -131.5q46 0 91 15t74 33.5t55.5 42.5t35.5 35t14 18v-104q-5 -4 -13.5 -10t-36.5 -22.5t-57.5 -29t-73.5 -22.5t-88 -10q-87 0 -168.5 38t-147.5 107.5t-113 175.5t-64 236h-153z" />
    <glyph glyph-name="numero" unicode="&#x2116;" horiz-adv-x="1987" 
d="M1319 1063q0 139 86 230t218 91q133 0 219.5 -91t86.5 -230t-86 -228.5t-220 -89.5q-133 0 -218.5 89.5t-85.5 228.5zM1623 795q45 0 76.5 23t48 63.5t23.5 84.5t7 97t-7 97.5t-23.5 85.5t-48 64.5t-76.5 23.5q-44 0 -75.5 -23.5t-47.5 -64.5t-23 -85.5t-7 -97.5t7 -97
t23 -84.5t47.5 -63.5t75.5 -23zM127 0v1381l1003 -1087v1064h54v-1381l-1003 1087v-1064h-54z" />
    <glyph glyph-name="uni2117" unicode="&#x2117;" horiz-adv-x="1614" 
d="M83 679q0 200 97.5 362.5t263 252.5t363.5 90t363.5 -90t263 -252.5t97.5 -362.5t-97.5 -362.5t-263 -252.5t-363.5 -90t-363.5 90t-263 252.5t-97.5 362.5zM138 679q0 -185 90 -337.5t243.5 -238.5t335.5 -86t335 86t243 238.5t90 337.5t-90 337.5t-243 238.5t-335 86
t-335.5 -86t-243.5 -238.5t-90 -337.5zM582 271v816h264q127 0 205.5 -55.5t78.5 -167.5q0 -115 -79.5 -173.5t-204.5 -58.5h-153v-361h-111zM693 675h126q95 0 142.5 48.5t47.5 140.5q0 180 -190 180h-126v-369z" />
    <glyph glyph-name="trademark" unicode="&#x2122;" horiz-adv-x="824" 
d="M353 1041l55 322l148 -240l139 240l52 -322h-66l-30 190l-112 -196l-123 200l-32 -194h-31zM154 1041v287h-101v30h268v-30h-102v-287h-65z" />
    <glyph glyph-name="Omega" unicode="&#x2126;" horiz-adv-x="1621" 
d="M161 0l-64 168h443l-2 32q-42 18 -83 40.5t-103.5 72.5t-107.5 108t-78.5 149t-33.5 194q0 126 47.5 238.5t133.5 197t215 134.5t283 50t283 -50t215 -134.5t133.5 -197t47.5 -238.5q0 -87 -22 -164.5t-61 -134.5t-81 -102t-92.5 -78.5t-84 -51.5t-67.5 -33l-2 -32h444
l-64 -168h-445l15 232q6 3 15.5 9t37 29t52.5 50.5t56 73.5t53 98t37 124.5t15 152.5q0 116 -28.5 215t-85.5 177.5t-152 123.5t-219 45t-219 -45t-152 -123.5t-85.5 -177.5t-28.5 -215q0 -80 14.5 -152.5t38 -125t52 -97.5t57 -74t52 -49.5t38.5 -29.5l14 -9l15 -232h-446z
" />
    <glyph glyph-name="estimated" unicode="&#x212e;" horiz-adv-x="1789" 
d="M1488 292h131q-115 -153 -298.5 -235.5t-422.5 -82.5q-228 0 -414 88t-295.5 250t-109.5 367q0 150 64 282t173.5 224.5t261 145.5t320.5 53t320 -54t260.5 -146.5t173.5 -224t64 -280.5v-27h-1443q7 -189 89.5 -331.5t221.5 -217.5t314 -75q188 0 343 69t247 195z
M273 706h1249q-9 287 -183 455.5t-441 168.5t-441 -170t-184 -454z" />
    <glyph glyph-name="partialdiff" unicode="&#x2202;" horiz-adv-x="1066" 
d="M346 1110h-50q44 110 135.5 192t212.5 82q325 0 325 -532q0 -243 -63.5 -439.5t-193.5 -317.5t-308 -121q-158 0 -237.5 88t-79.5 247q0 151 66.5 283.5t184 213.5t255.5 81q125 0 196 -66.5t97 -172.5q9 72 9 151q0 230 -75 344.5t-203 114.5q-141 0 -271 -148zM290 319
q0 -23 2 -45t7 -55.5t17 -61t30.5 -53t49 -40t69.5 -14.5q123 0 235.5 130t162.5 342q-17 136 -80 213.5t-167 77.5q-80 0 -144.5 -46t-103 -120t-58.5 -158.5t-20 -169.5z" />
    <glyph glyph-name="Delta" unicode="&#x2206;" horiz-adv-x="1255" 
d="M67 0l560 1393l560 -1393h-1120zM144 54h834l-417 1038z" />
    <glyph glyph-name="product" unicode="&#x220f;" horiz-adv-x="1488" 
d="M380 -191v1495h-297v54h1322v-54h-297v-1495h-177v1495h-374v-1495h-177z" />
    <glyph glyph-name="summation" unicode="&#x2211;" horiz-adv-x="1079" 
d="M37 -191l516 718l-516 831h897l19 -54h-683l421 -678l-467 -649h827l-59 -168h-955z" />
    <glyph glyph-name="minus" unicode="&#x2212;" horiz-adv-x="1122" 
d="M109 437v53h904v-53h-904z" />
    <glyph glyph-name="radical" unicode="&#x221a;" horiz-adv-x="1223" 
d="M49 554l-24 48l333 149l357 -712l416 1634h57l-499 -1957l-460 919z" />
    <glyph glyph-name="infinity" unicode="&#x221e;" horiz-adv-x="1526" 
d="M763 430l-156 -111q-71 -50 -128.5 -72.5t-129.5 -22.5q-121 0 -200.5 65t-79.5 175t79.5 174.5t199.5 64.5q72 0 130 -22.5t129 -72.5l156 -112l156 112q71 50 129 72.5t130 22.5q120 0 199.5 -64.5t79.5 -174.5t-80 -175t-200 -65q-71 0 -129.5 22.5t-128.5 72.5z
M809 463l143 -102q118 -84 210 -84q81 0 121 56t40 130q0 75 -39.5 131t-119.5 56q-94 0 -212 -84zM717 463l-143 103q-118 84 -213 84q-80 0 -119 -55.5t-39 -131.5q0 -75 39 -130.5t120 -55.5q94 0 212 84z" />
    <glyph glyph-name="integral" unicode="&#x222b;" horiz-adv-x="679" 
d="M205 -137v893q0 157 11.5 265t40.5 190.5t80.5 121.5t128.5 39q29 0 53 -5.5t37 -14t21.5 -16.5t11.5 -14l3 -5v-87q-1 4 -3.5 10t-12 21t-21.5 27t-33 21.5t-46 9.5q-62 0 -84 -63.5t-22 -218.5v-893q0 -310 -64.5 -463t-216.5 -153q-29 0 -53 5.5t-37 14t-21.5 16.5
t-11.5 14l-3 5v87q1 -4 3.5 -10t12 -21t21.5 -27t33 -21.5t46 -9.5q65 0 95.5 67.5t30.5 214.5z" />
    <glyph glyph-name="approxequal" unicode="&#x2248;" horiz-adv-x="1177" 
d="M109 501q5 27 20 57.5t42 64.5t74 56t106 22q68 0 159 -35t177 -70t142 -35q42 0 77 16t56.5 41t34 47t17.5 42h54q-4 -21 -13.5 -44t-29 -52t-45.5 -51t-66 -37.5t-88 -15.5q-55 0 -124.5 22t-125 48t-119.5 48t-109 22q-42 0 -77 -16t-56.5 -41t-34 -47t-17.5 -42h-54z
M109 221q5 27 20 57t42 64t74 56t106 22q68 0 159 -35t177 -70t142 -35q42 0 77 16t56.5 41t34 47t17.5 42h54q-5 -27 -20 -57t-42 -64t-74 -56t-106 -22q-55 0 -124.5 21.5t-125 48t-119.5 48t-109 21.5q-42 0 -77 -16t-56.5 -41t-34 -47t-17.5 -41h-54z" />
    <glyph glyph-name="notequal" unicode="&#x2260;" horiz-adv-x="1115" 
d="M109 282v54h369l100 255h-469v54h490l102 258h57l-102 -258h350v-54h-371l-100 -255h471v-54h-492l-101 -257h-57l101 257h-348z" />
    <glyph glyph-name="lessequal" unicode="&#x2264;" horiz-adv-x="1085" 
d="M79 534v54l897 378v-58l-833 -347l833 -347v-58zM79 0v54h897v-54h-897z" />
    <glyph glyph-name="greaterequal" unicode="&#x2265;" horiz-adv-x="1085" 
d="M109 156v58l832 347l-832 347v58l897 -378v-54zM109 0v54h897v-54h-897z" />
    <glyph glyph-name="dotmath" unicode="&#x22c5;" horiz-adv-x="403" 
d="M107 444q0 39 27.5 66t66.5 27t67 -27t28 -66t-28 -66.5t-67 -27.5t-66.5 27.5t-27.5 66.5z" />
    <glyph glyph-name="lozenge" unicode="&#x25ca;" horiz-adv-x="906" 
d="M841 679l-388 -713l-388 713l388 713zM127 679l326 -601l326 601l-326 599z" />
    <glyph glyph-name="uniF638" unicode="&#xf638;" horiz-adv-x="1177" 
d="M588 -26q-95 0 -182.5 48t-156.5 135.5t-110.5 223t-41.5 298.5t41.5 298.5t110.5 223t156.5 135.5t182.5 48t182.5 -48t157 -135.5t111 -223t41.5 -298.5t-41.5 -298.5t-111 -223t-157 -135.5t-182.5 -48zM368 175l412 1052q-74 103 -192 103q-151 0 -229.5 -167.5
t-78.5 -483.5q0 -337 88 -504zM395 131q74 -103 193 -103q152 0 230.5 167.5t78.5 483.5q0 336 -90 504z" />
    <glyph glyph-name="commaaccent" unicode="&#xf6c3;" horiz-adv-x="418" 
d="M183 -423v29q3 1 7.5 3.5t17 12t22 20.5t17 30t7.5 40q0 26 -10 46q-27 -27 -60 -27q-34 0 -57.5 22t-23.5 57q0 36 26 59.5t66 23.5q53 0 86.5 -41t33.5 -101q0 -37 -13.5 -68.5t-33 -50.5t-39 -32t-33.5 -18z" />
    <glyph glyph-name="centsuperior" unicode="&#xf6e0;" horiz-adv-x="560" 
d="M154 599l35 85q-52 27 -81.5 77.5t-29.5 118.5q0 102 67.5 170t170.5 68q22 0 50 -4l25 59h43l-29 -70q14 -5 25 -11.5t16 -10.5l4 -4v-63q-21 31 -61 50l-141 -343q31 -26 71 -26q43 0 78.5 17.5t49.5 34.5l14 17v-64q-5 -5 -16 -12.5t-49.5 -19.5t-83.5 -12
q-48 0 -86 13l-29 -70h-43zM219 757l132 319q-8 2 -26 2q-69 0 -102 -57.5t-33 -134.5t29 -129z" />
    <glyph glyph-name="dollarsuperior" unicode="&#xf6e4;" horiz-adv-x="604" 
d="M233 593l9 93q-41 6 -76.5 20.5t-51.5 25.5l-15 12v58q7 -7 19 -17t50.5 -30.5t77.5 -27.5l26 275q-37 24 -59 41.5t-47.5 44.5t-38 58.5t-12.5 69.5q0 79 55.5 118t136.5 40l9 90h43l-9 -92q25 -3 49.5 -9t36.5 -11l12 -4v-56q-43 30 -102 40l-20 -217q44 -26 68 -42.5
t57 -47.5t48.5 -70t15.5 -87q0 -52 -20 -90t-53.5 -57.5t-70 -28.5t-77.5 -9h-10l-8 -90h-43zM285 1139l18 196q-48 -2 -75 -26.5t-27 -61.5q0 -32 21.5 -57.5t62.5 -50.5zM288 723q65 0 99 30.5t34 77.5q0 42 -28 74.5t-81 69.5z" />
    <glyph glyph-name="apple" unicode="&#xf8ff;" horiz-adv-x="1340" 
d="M285 314v758h770v-758h-770z" />
    <glyph glyph-name="ff" unicode="&#xfb00;" horiz-adv-x="1212" 
d="M215 0v833h-150v53h150v105q0 94 21.5 165t55 112t79.5 66.5t88.5 34t89.5 8.5q104 0 187 -53q-28 -41 -35 -54q-7 6 -20.5 15t-54.5 23.5t-81 14.5q-164 0 -164 -238v-199h369v105q0 94 22 165t55 112t79.5 66.5t89 34t89.5 8.5q104 0 187 -53q-28 -41 -36 -54
q-7 6 -20 15t-54 23.5t-81 14.5q-165 0 -165 -238v-199h243v-53h-243v-833h-166v833h-369v-833h-166z" />
    <glyph glyph-name="fi" unicode="&#xfb01;" horiz-adv-x="1051" 
d="M215 0v833h-150v53h150v105q0 94 21.5 165t55 112t79.5 66.5t88.5 34t89.5 8.5q104 0 187 -53q-28 -41 -35 -54q-7 6 -20.5 15t-54.5 23.5t-81 14.5q-164 0 -164 -238v-199h535v-886h-166v833h-369v-833h-166z" />
    <glyph glyph-name="fl" unicode="&#xfb02;" horiz-adv-x="1051" 
d="M215 0v833h-150v53h150v94q0 98 27 172t67 116t96 67.5t104.5 33.5t101.5 8q83 0 159.5 -19.5t111.5 -39.5l34 -19v-1299h-166v1310q-59 13 -123 13q-48 0 -86.5 -9t-77 -33t-60.5 -75t-22 -127v-193h214v-53h-214v-833h-166z" />
    <glyph glyph-name="ffi" unicode="&#xfb03;" horiz-adv-x="1586" 
d="M215 0v833h-150v53h150v105q0 94 21.5 165t55 112t79.5 66.5t88.5 34t89.5 8.5q104 0 187 -53q-28 -41 -35 -54q-7 6 -20.5 15t-54.5 23.5t-81 14.5q-164 0 -164 -238v-199h369v105q0 94 21.5 165t55 112t79.5 66.5t88.5 34t89.5 8.5q104 0 187 -53q-28 -41 -36 -54
q-7 6 -20 15t-54 23.5t-81 14.5q-164 0 -164 -238v-199h535v-886h-166v833h-369v-833h-166v833h-369v-833h-166z" />
    <glyph glyph-name="ffl" unicode="&#xfb04;" horiz-adv-x="1586" 
d="M215 0v833h-150v53h150v105q0 94 21.5 165t55 112t79.5 66.5t88.5 34t89.5 8.5q104 0 187 -53q-28 -41 -35 -54q-7 6 -20.5 15t-54.5 23.5t-81 14.5q-164 0 -164 -238v-199h369v94q0 98 27 172t67 116t95.5 67.5t104 33.5t102.5 8q83 0 159.5 -19.5t110.5 -39.5l35 -19
v-1299h-166v1310q-59 13 -123 13q-48 0 -86.5 -9t-77 -33t-60.5 -75t-22 -127v-193h214v-53h-214v-833h-166v833h-369v-833h-166z" />
    <glyph glyph-name="st" unicode="&#xfb06;" horiz-adv-x="1480" 
d="M85 84v99q6 -7 17 -18t43.5 -35t69.5 -42.5t93.5 -33t116.5 -14.5q107 0 164.5 41t57.5 101q0 22 -7 41.5t-26.5 38t-33.5 30.5t-49.5 30t-51 25.5t-60.5 27.5q-67 30 -109 51t-86.5 50t-69 56t-40 63.5t-15.5 78.5q0 59 26.5 104.5t73 72t104 39.5t123.5 13
q123 0 221 -41q-53 75 -53 163q0 107 79 171.5t203 64.5q57 0 107.5 -15t92.5 -45.5t66.5 -84t24.5 -124.5v-106h254v-53h-254v-532q0 -31 0.5 -47.5t3 -47.5t7 -49.5t14 -42t23 -36.5t35 -22.5t48.5 -9.5q20 0 40 3t30 5l9 3v-54q-38 -11 -79 -11q-71 0 -124.5 19.5t-86 52
t-52 82t-27 103t-7.5 121.5v463h-125v53q53 8 89 44t36 97q0 70 -45.5 111t-123.5 41q-81 0 -133.5 -46t-52.5 -126q0 -43 15.5 -87t30.5 -66l16 -22v-91q-4 4 -12.5 11.5t-36.5 26.5t-58.5 33t-78.5 26t-98 12q-87 0 -143.5 -32.5t-56.5 -97.5q0 -52 44 -83.5t158 -78.5
q52 -21 79 -32.5t69 -30.5t64 -32.5t51.5 -33.5t44.5 -38.5t30.5 -42.5t21.5 -51.5t6 -58.5q0 -113 -92 -182.5t-276 -69.5q-66 0 -125.5 10t-97 24.5t-65 29t-39.5 24.5z" />
    <glyph glyph-name="A.alt2" horiz-adv-x="1254" 
d="M67 0l560 1393l560 -1393h-187l-201 497h-476l-200 -497h-56zM345 550h433l-217 537z" />
    <glyph glyph-name="AE.alt2" horiz-adv-x="1628" 
d="M55 0l874 1358h598v-54h-420v-584h323v-54h-323v-612h420v-54h-598v666h-380l-429 -666h-65zM584 720h345v536z" />
    <glyph glyph-name="AEacute.alt2" horiz-adv-x="1628" 
d="M1053 1468l-50 9l217 259q31 37 63 37q25 0 41.5 -16t16.5 -39q0 -32 -38 -62zM55 0l874 1358h598v-54h-420v-584h323v-54h-323v-612h420v-54h-598v666h-380l-429 -666h-65zM584 720h345v536z" />
    <glyph glyph-name="Aacute.alt2" horiz-adv-x="1254" 
d="M567 1468l-50 9l217 259q31 37 63 37q25 0 41.5 -16t16.5 -39q0 -32 -38 -62zM67 0l560 1393l560 -1393h-187l-201 497h-476l-200 -497h-56zM345 550h433l-217 537z" />
    <glyph glyph-name="Abreve.alt2" horiz-adv-x="1254" 
d="M67 0l560 1393l560 -1393h-187l-201 497h-476l-200 -497h-56zM345 550h433l-217 537zM814 1708l45 14q0 -112 -65.5 -182.5t-166.5 -70.5t-167 70.5t-66 182.5l45 -14q15 -57 63 -90t125 -33q76 0 124.5 33t62.5 90z" />
    <glyph glyph-name="Acircumflex.alt2" horiz-adv-x="1254" 
d="M393 1473l234 300l233 -300l-46 -5l-187 135l-188 -135zM67 0l560 1393l560 -1393h-187l-201 497h-476l-200 -497h-56zM345 550h433l-217 537z" />
    <glyph glyph-name="Adieresis.alt2" horiz-adv-x="1254" 
d="M786 1516q-37 0 -62.5 25.5t-25.5 62.5q0 36 25.5 61.5t62.5 25.5t62.5 -25.5t25.5 -61.5q0 -37 -25.5 -62.5t-62.5 -25.5zM470 1516q-37 0 -62.5 25.5t-25.5 62.5q0 36 25.5 61.5t62.5 25.5q36 0 61.5 -25.5t25.5 -61.5q0 -37 -25.5 -62.5t-61.5 -25.5zM67 0l560 1393
l560 -1393h-187l-201 497h-476l-200 -497h-56zM345 550h433l-217 537z" />
    <glyph glyph-name="Agrave.alt2" horiz-adv-x="1254" 
d="M721 1477l-50 -9l-250 188q-38 30 -38 62q0 23 16.5 39t41.5 16q32 0 63 -37zM67 0l560 1393l560 -1393h-187l-201 497h-476l-200 -497h-56zM345 550h433l-217 537z" />
    <glyph glyph-name="Amacron.alt2" horiz-adv-x="1254" 
d="M385 1532v71h501v-71h-501zM67 0l560 1393l560 -1393h-187l-201 497h-476l-200 -497h-56zM345 550h433l-217 537z" />
    <glyph glyph-name="Aogonek.alt2" horiz-adv-x="1254" 
d="M67 0l560 1393l560 -1393h-119q-86 -34 -141.5 -102t-55.5 -134q0 -34 15.5 -56.5t48.5 -22.5q25 0 48.5 9.5t34.5 19.5l11 10v-50q-6 -5 -17 -13t-47 -21t-75 -13q-63 0 -97 31t-34 85q0 78 69.5 145t171.5 112l-201 497h-476l-200 -497h-56zM345 550h433l-217 537z" />
    <glyph glyph-name="Aring.alt2" horiz-adv-x="1254" 
d="M628 1474q-76 0 -125.5 36.5t-49.5 99.5q0 64 49 101t126 37q76 0 124.5 -37t48.5 -101q0 -63 -48.5 -99.5t-124.5 -36.5zM628 1514q67 0 67 96q0 47 -18 72t-49 25q-32 0 -50 -25t-18 -72q0 -96 68 -96zM67 0l560 1393l560 -1393h-187l-201 497h-476l-200 -497h-56z
M345 550h433l-217 537z" />
    <glyph glyph-name="Aringacute.alt2" horiz-adv-x="1254" 
d="M527 1687l137 181q27 35 60 35q25 0 42 -16.5t17 -39.5q0 -36 -39 -61l-167 -108zM67 0l547 1361q-71 4 -116 40t-45 96q0 64 49 101t126 37q76 0 124.5 -37t48.5 -101q0 -61 -45 -97t-117 -39l548 -1361h-187l-200 497h-478l-199 -497h-56zM628 1401q67 0 67 96
q0 47 -18 72t-49 25q-32 0 -50 -25t-18 -72q0 -96 68 -96zM343 550h436l-218 542z" />
    <glyph glyph-name="Atilde.alt2" horiz-adv-x="1254" 
d="M67 0l560 1393l560 -1393h-187l-201 497h-476l-200 -497h-56zM345 550h433l-217 537zM341 1494q0 81 43.5 132t128.5 51q54 0 142.5 -33.5t131.5 -33.5q33 0 56 19.5t27 60.5h42q0 -81 -44 -134t-129 -53q-55 0 -143 33.5t-126 33.5q-79 0 -87 -76h-42z" />
    <glyph glyph-name="altcedilla" horiz-adv-x="520" 
d="M146 -128l137 128h58l-79 -87q62 -8 109 -51t47 -108q0 -69 -55 -112t-149 -43q-33 0 -61.5 6t-40.5 11l-12 6l-5 46q49 -21 101 -21q59 0 84.5 29.5t25.5 72.5q0 58 -46.5 90.5t-113.5 32.5z" />
    <glyph glyph-name="H.alt" horiz-adv-x="1318" 
d="M127 0v1358h178v-638h832v638h54v-1358h-54v666h-832v-666h-178z" />
    <glyph glyph-name="Hbar.alt" horiz-adv-x="1318" 
d="M127 0v1005h-159v54h159v299h178v-299h832v299h54v-299h159v-54h-159v-1005h-54v666h-832v-666h-178zM305 720h832v285h-832v-285z" />
    <glyph glyph-name="Hcircumflex.alt" horiz-adv-x="1318" 
d="M466 1473l234 300l233 -300l-46 -5l-187 135l-188 -135zM127 0v1358h178v-638h832v638h54v-1358h-54v666h-832v-666h-178z" />
    <glyph glyph-name="caronSlovak" horiz-adv-x="322" 
d="M105 1000l53 326q11 69 62 69q26 0 42 -15.5t16 -40.5q0 -19 -11 -48l-111 -291h-51z" />
    <glyph glyph-name="Q.alt3" horiz-adv-x="1614" 
d="M1634 -186l-528 218q-143 -58 -299 -58q-200 0 -365.5 89.5t-262 252t-96.5 363.5q0 148 56.5 279t153.5 224.5t231 147.5t283 54q200 0 366 -92t262 -254t96 -359q0 -204 -98.5 -366.5t-266.5 -251.5l604 -247h-136zM620 285l450 -184q126 79 197 230t71 348
q0 288 -146.5 469.5t-384.5 181.5q-155 0 -276 -82t-187.5 -227t-66.5 -327q0 -140 73.5 -233t269.5 -176zM1014 71l-418 173q-120 50 -194 106.5t-105 132.5q46 -209 181 -332t329 -123q112 0 207 43z" />
    <glyph glyph-name="acute.cap" horiz-adv-x="548" 
d="M150 1468l-50 9l217 259q31 37 63 37q25 0 41.5 -16t16.5 -39q0 -32 -38 -62z" />
    <glyph glyph-name="anoteleia.cap" horiz-adv-x="403" 
d="M107 680q0 39 27.5 66t66.5 27t67 -27t28 -66t-28 -66.5t-67 -27.5t-66.5 27.5t-27.5 66.5z" />
    <glyph glyph-name="approxequal.cap" horiz-adv-x="1177" 
d="M109 716q5 27 20 57.5t42 64.5t74 56t106 22q68 0 159 -35t177 -70t142 -35q42 0 77 16t56.5 41t34 47t17.5 42h54q-4 -21 -13.5 -44t-29 -52t-45.5 -51t-66 -37.5t-88 -15.5q-55 0 -124.5 22t-125 48t-119.5 48t-109 22q-42 0 -77 -16t-56.5 -41t-34 -47t-17.5 -42h-54z
M109 436q5 27 20 57t42 64t74 56t106 22q68 0 159 -35t177 -70t142 -35q42 0 77 16t56.5 41t34 47t17.5 42h54q-5 -27 -20 -57t-42 -64t-74 -56t-106 -22q-55 0 -124.5 21.5t-125 48t-119.5 48t-109 21.5q-42 0 -77 -16t-56.5 -41t-34 -47t-17.5 -41h-54z" />
    <glyph glyph-name="approxequal.lt" 
d="M104 716q5 27 20 57.5t42 64.5t74 56t106 22q68 0 159 -35t177 -70t142 -35q42 0 77 16t56.5 41t34 47t17.5 42h54q-4 -21 -13.5 -44t-29 -52t-45.5 -51t-66 -37.5t-88 -15.5q-55 0 -124.5 22t-125 48t-119.5 48t-109 22q-42 0 -77 -16t-56.5 -41t-34 -47t-17.5 -42h-54z
M104 436q5 27 20 57t42 64t74 56t106 22q68 0 159 -35t177 -70t142 -35q42 0 77 16t56.5 41t34 47t17.5 42h54q-5 -27 -20 -57t-42 -64t-74 -56t-106 -22q-55 0 -124.5 21.5t-125 48t-119.5 48t-109 21.5q-42 0 -77 -16t-56.5 -41t-34 -47t-17.5 -41h-54z" />
    <glyph glyph-name="approxequal.op" horiz-adv-x="1177" 
d="M109 501q5 27 20 57.5t42 64.5t74 56t106 22q68 0 159 -35t177 -70t142 -35q42 0 77 16t56.5 41t34 47t17.5 42h54q-4 -21 -13.5 -44t-29 -52t-45.5 -51t-66 -37.5t-88 -15.5q-55 0 -124.5 22t-125 48t-119.5 48t-109 22q-42 0 -77 -16t-56.5 -41t-34 -47t-17.5 -42h-54z
M109 221q5 27 20 57t42 64t74 56t106 22q68 0 159 -35t177 -70t142 -35q42 0 77 16t56.5 41t34 47t17.5 42h54q-5 -27 -20 -57t-42 -64t-74 -56t-106 -22q-55 0 -124.5 21.5t-125 48t-119.5 48t-109 21.5q-42 0 -77 -16t-56.5 -41t-34 -47t-17.5 -41h-54z" />
    <glyph glyph-name="approxequal.ot" 
d="M104 501q5 27 20 57.5t42 64.5t74 56t106 22q68 0 159 -35t177 -70t142 -35q42 0 77 16t56.5 41t34 47t17.5 42h54q-4 -21 -13.5 -44t-29 -52t-45.5 -51t-66 -37.5t-88 -15.5q-55 0 -124.5 22t-125 48t-119.5 48t-109 22q-42 0 -77 -16t-56.5 -41t-34 -47t-17.5 -42h-54z
M104 221q5 27 20 57t42 64t74 56t106 22q68 0 159 -35t177 -70t142 -35q42 0 77 16t56.5 41t34 47t17.5 42h54q-5 -27 -20 -57t-42 -64t-74 -56t-106 -22q-55 0 -124.5 21.5t-125 48t-119.5 48t-109 21.5q-42 0 -77 -16t-56.5 -41t-34 -47t-17.5 -41h-54z" />
    <glyph glyph-name="asciitilde.cap" horiz-adv-x="1177" 
d="M109 573q4 21 13.5 45t29 53.5t45 52.5t65.5 38.5t88 15.5q55 0 125 -23t125.5 -50t119.5 -50t109 -23q42 0 77 17t56.5 43t34 49t17.5 43h54q-4 -21 -13.5 -45t-29 -53.5t-45 -52.5t-66 -38.5t-87.5 -15.5q-55 0 -125 23t-125.5 50t-119.5 50t-109 23q-42 0 -77 -17
t-56.5 -43t-34 -49t-17.5 -43h-54z" />
    <glyph glyph-name="at.cap" horiz-adv-x="1618" 
d="M1342 164l20 -29q-9 -8 -27 -21t-77 -46t-122 -58.5t-160 -46.5t-195 -21q-203 0 -363.5 78t-253.5 227.5t-93 348.5q0 167 66.5 317t179 257t266.5 170t323 63q146 0 266 -47t198.5 -128.5t121.5 -190.5t43 -235q0 -136 -48 -247t-139 -176.5t-208 -65.5
q-185 0 -203 141q-89 -141 -230 -141q-101 0 -162 66.5t-61 196.5q0 117 52 223.5t139.5 170.5t184.5 64q46 0 80.5 -14t53 -37.5t28 -48t13.5 -52.5l41 132h146l-119 -389q-36 -116 -36 -165q0 -88 99 -88q90 0 162.5 63t111 163.5t38.5 216.5q0 240 -161.5 392.5
t-406.5 152.5q-195 0 -355.5 -97t-253 -270.5t-92.5 -388.5q0 -133 38.5 -242.5t113 -191.5t192 -127t267.5 -45q85 0 170 17t146 41.5t109 49t73 41.5zM638 567q0 -182 113 -182q48 0 90 33.5t68.5 83.5t46 110t28 112t8.5 90q0 65 -28.5 113t-90.5 48q-70 0 -125.5 -64.5
t-82.5 -156.5t-27 -187z" />
    <glyph glyph-name="bar.cap" horiz-adv-x="372" 
d="M159 -293v1943h54v-1943h-54z" />
    <glyph glyph-name="braceleft.cap" horiz-adv-x="553" 
d="M109 629v42q20 8 50 8q16 0 42 -6q27 15 27 66q0 45 -23.5 106t-52 114t-52 130t-23.5 151q0 318 423 318v-53q-73 0 -123.5 -20.5t-77.5 -59t-38.5 -85t-11.5 -106.5q0 -84 28.5 -220t28.5 -200q0 -120 -56 -164q56 -46 56 -164q0 -64 -28.5 -200t-28.5 -220
q0 -60 11.5 -106.5t38.5 -85t77.5 -59t123.5 -20.5v-53q-423 0 -423 319q0 74 23.5 150.5t52 129t52 113.5t23.5 107q0 51 -27 66q-19 -6 -42 -6q-13 0 -25.5 2t-18.5 4z" />
    <glyph glyph-name="braceright.cap" horiz-adv-x="553" 
d="M53 1505v53q423 0 423 -318q0 -74 -23.5 -151t-52 -130t-52 -114t-23.5 -106q0 -51 26 -66q19 6 42 6q14 0 26.5 -2t18.5 -4l6 -2v-42q-20 -8 -51 -8q-23 0 -41 6q-27 -15 -27 -66q0 -46 23.5 -107t52 -113.5t52 -129t23.5 -150.5q0 -319 -423 -319v53q73 0 123.5 20.5
t77.5 59t38.5 85t11.5 106.5q0 84 -28.5 220t-28.5 200q0 119 55 164q-55 43 -55 164q0 64 28.5 200t28.5 220q0 60 -11.5 106.5t-38.5 85t-77.5 59t-123.5 20.5z" />
    <glyph glyph-name="bracketleft.cap" horiz-adv-x="556" 
d="M109 -258v1816h394v-54h-228v-1708h228v-54h-394z" />
    <glyph glyph-name="bracketright.cap" horiz-adv-x="556" 
d="M53 -258v54h228v1708h-228v54h394v-1816h-394z" />
    <glyph glyph-name="breve.cap" horiz-adv-x="671" 
d="M523 1708l45 14q0 -112 -65.5 -182.5t-166.5 -70.5t-167 70.5t-66 182.5l45 -14q15 -57 63 -90t125 -33q76 0 124.5 33t62.5 90z" />
    <glyph glyph-name="brokenbar.cap" horiz-adv-x="372" 
d="M159 842v808h54v-808h-54zM159 501h54v-794h-54v794z" />
    <glyph glyph-name="bullet.cap" horiz-adv-x="688" 
d="M344 454q-93 0 -159 66t-66 159t66 159t159 66t159 -66t66 -159t-66 -159t-159 -66z" />
    <glyph glyph-name="caron.cap" horiz-adv-x="673" 
d="M337 1468l-234 300l46 5l188 -134l187 134l46 -5z" />
    <glyph glyph-name="circumflex.cap" horiz-adv-x="673" 
d="M103 1473l234 300l233 -300l-46 -5l-187 135l-188 -135z" />
    <glyph glyph-name="colon.tab" horiz-adv-x="584" 
d="M197 76q0 39 27.5 66t66.5 27t67 -27t28 -66t-28 -66.5t-67 -27.5t-66.5 27.5t-27.5 66.5zM197 810q0 39 27.5 66t66.5 27t67 -27t28 -66t-28 -66.5t-67 -27.5t-66.5 27.5t-27.5 66.5z" />
    <glyph glyph-name="comma.tab" horiz-adv-x="584" 
d="M272 -274v36q3 3 9 8t20.5 22.5t25.5 37t20 50t9 62.5q0 42 -11 71q-27 -31 -67 -31q-39 0 -65.5 24.5t-26.5 64.5q0 43 30 71t76 28q59 0 93.5 -48t34.5 -126q0 -51 -15 -98t-37 -77t-44 -52.5t-37 -32.5z" />
    <glyph glyph-name="ct" horiz-adv-x="1551" 
d="M833 176v-102q-4 -4 -11.5 -9.5t-34 -21t-57 -27t-81 -21t-104.5 -9.5q-201 0 -334 125.5t-133 330.5q0 198 130 329.5t328 131.5q115 0 209 -41q-46 70 -46 156q0 107 73.5 175t191.5 68q115 0 194.5 -67t79.5 -195v-113h254v-53h-254v-532q0 -31 0.5 -47.5t3 -47.5
t7 -49.5t14 -42t23 -36.5t35 -22.5t48.5 -9.5q20 0 40 3t29 5l10 3v-54q-38 -11 -79 -11q-71 0 -124.5 19.5t-86 52t-52 82t-27 103t-7.5 121.5v463h-125v53q125 23 125 147q0 74 -42.5 110t-106.5 36q-77 0 -124.5 -48t-47.5 -127q0 -48 15.5 -93t31.5 -67l15 -21v-102
q-3 5 -9.5 14t-31 31t-53.5 39t-78.5 31t-104.5 14q-96 0 -162 -57.5t-95 -147t-29 -202.5q0 -181 80 -292t233 -111q52 0 99.5 14.5t75 31t52.5 41t31 32t12 17.5z" />
    <glyph glyph-name="dieresis.cap" horiz-adv-x="726" 
d="M521 1516q-37 0 -62.5 25.5t-25.5 62.5q0 36 25.5 61.5t62.5 25.5t62.5 -25.5t25.5 -61.5q0 -37 -25.5 -62.5t-62.5 -25.5zM205 1516q-37 0 -62.5 25.5t-25.5 62.5q0 36 25.5 61.5t62.5 25.5q36 0 61.5 -25.5t25.5 -61.5q0 -37 -25.5 -62.5t-61.5 -25.5z" />
    <glyph glyph-name="divide.cap" horiz-adv-x="1122" 
d="M560 901q-42 0 -71.5 29.5t-29.5 71.5t29.5 71t71.5 29t71.5 -29t29.5 -71t-30 -71.5t-71 -29.5zM109 652v53h904v-53h-904zM459 357q0 42 29.5 71.5t71.5 29.5q41 0 71 -29.5t30 -71.5t-30 -71.5t-71 -29.5q-42 0 -71.5 29.5t-29.5 71.5z" />
    <glyph glyph-name="divide.lt" 
d="M584 901q-41 0 -71 29.5t-30 71.5t29.5 71t71.5 29t71.5 -29t29.5 -71t-29.5 -71.5t-71.5 -29.5zM1035 705v-53h-904v53h904zM685 357q0 -42 -29.5 -71.5t-71.5 -29.5q-41 0 -71 29.5t-30 71.5t30 71.5t71 29.5q42 0 71.5 -29.5t29.5 -71.5z" />
    <glyph glyph-name="divide.op" horiz-adv-x="1122" 
d="M560 686q-42 0 -71.5 29.5t-29.5 71.5t29.5 71t71.5 29t71.5 -29t29.5 -71t-30 -71.5t-71 -29.5zM109 437v53h904v-53h-904zM459 142q0 42 29.5 71.5t71.5 29.5q41 0 71 -29.5t30 -71.5t-30 -71.5t-71 -29.5q-42 0 -71.5 29.5t-29.5 71.5z" />
    <glyph glyph-name="divide.ot" 
d="M584 686q-41 0 -71 29.5t-30 71.5t29.5 71t71.5 29t71.5 -29t29.5 -71t-29.5 -71.5t-71.5 -29.5zM1035 490v-53h-904v53h904zM685 142q0 -42 -29.5 -71.5t-71.5 -29.5q-41 0 -71 29.5t-30 71.5t30 71.5t71 29.5q42 0 71.5 -29.5t29.5 -71.5z" />
    <glyph glyph-name="dollar.alt4" horiz-adv-x="1012" 
d="M99 106v93q9 -10 26 -25.5t72.5 -51t114.5 -55.5l63 653q-126 96 -185 174.5t-59 179.5q0 126 87 201t219 95l17 177h54l-17 -171q11 1 32 1q43 0 96 -7l17 177h55l-18 -188q31 -7 60 -16.5t43 -15.5l13 -6v-87q-49 37 -122 63l-51 -527q77 -55 127 -98t94.5 -96t65 -111
t20.5 -126q0 -85 -33 -151.5t-90 -107t-121.5 -63.5t-137.5 -30l-17 -175h-54l16 172h-12q-64 0 -115 10l-18 -182h-53l18 193q-58 16 -110 41t-74 42zM565 806l48 506q-47 11 -94 11q-17 0 -33 -2l-41 -430zM395 929l36 383q-71 -19 -114 -67t-43 -120q0 -56 29 -101
t92 -95zM364 51q57 -13 114 -13h13l54 557l-120 88zM546 43q100 17 158 79.5t58 159.5q0 73 -38.5 135.5t-127.5 136.5z" />
    <glyph glyph-name="dotaccent.cap" horiz-adv-x="381" 
d="M191 1535q-37 0 -62.5 25.5t-25.5 62.5q0 36 25.5 61.5t62.5 25.5q36 0 61.5 -25.5t25.5 -61.5q0 -37 -25.5 -62.5t-61.5 -25.5z" />
    <glyph glyph-name="dotbelow" horiz-adv-x="381" 
d="M191 -366q-37 0 -62.5 25.5t-25.5 62.5q0 36 25.5 61.5t62.5 25.5q36 0 61.5 -25.5t25.5 -61.5q0 -37 -25.5 -62.5t-61.5 -25.5z" />
    <glyph glyph-name="dotmath.cap" horiz-adv-x="403" 
d="M107 680q0 39 27.5 66t66.5 27t67 -27t28 -66t-28 -66.5t-67 -27.5t-66.5 27.5t-27.5 66.5z" />
    <glyph glyph-name="doublebar" horiz-adv-x="577" 
d="M365 -417v1943h53v-1943h-53zM159 -417v1943h54v-1943h-54z" />
    <glyph glyph-name="doublebar.cap" horiz-adv-x="577" 
d="M365 -293v1943h53v-1943h-53zM159 -293v1943h54v-1943h-54z" />
    <glyph glyph-name="doublegrave" horiz-adv-x="811" 
d="M711 1017l-50 -9l-249 188q-39 30 -39 62q0 23 16.5 39t41.5 16q34 0 64 -37zM448 1017l-50 -9l-250 188q-38 30 -38 62q0 23 16.5 39t41.5 16q32 0 63 -37z" />
    <glyph glyph-name="doublegrave.cap" horiz-adv-x="811" 
d="M711 1477l-50 -9l-249 188q-39 30 -39 62q0 23 16.5 39t41.5 16q34 0 64 -37zM448 1477l-50 -9l-250 188q-38 30 -38 62q0 23 16.5 39t41.5 16q32 0 63 -37z" />
    <glyph glyph-name="eight.dnom" horiz-adv-x="626" 
d="M316 -15q-119 0 -189 49t-70 137q0 125 161 200q-96 69 -96 162q0 74 54.5 117t138.5 43q87 0 135 -44t48 -103q0 -81 -91 -134q75 -43 118.5 -94.5t43.5 -131.5q0 -87 -65 -144t-188 -57zM368 433q52 45 52 114q0 45 -26.5 75.5t-80.5 30.5q-47 0 -72.5 -24t-25.5 -57
q0 -23 11 -42t37 -37.5t45.5 -29t59.5 -30.5zM319 25q71 0 109.5 37.5t38.5 88.5q0 27 -11.5 50.5t-37 44.5t-46.5 34t-61 35t-58 33q-94 -61 -94 -172q0 -76 46 -113.5t114 -37.5z" />
    <glyph glyph-name="eight.numr" horiz-adv-x="626" 
d="M316 665q-119 0 -189 49t-70 137q0 125 161 200q-96 69 -96 162q0 74 54.5 117t138.5 43q87 0 135 -44t48 -103q0 -81 -91 -134q75 -43 118.5 -94.5t43.5 -131.5q0 -87 -65 -144t-188 -57zM368 1113q52 45 52 114q0 45 -26.5 75.5t-80.5 30.5q-47 0 -72.5 -24t-25.5 -57
q0 -23 11 -42t37 -37.5t45.5 -29t59.5 -30.5zM319 705q71 0 109.5 37.5t38.5 88.5q0 27 -11.5 50.5t-37 44.5t-46.5 34t-61 35t-58 33q-94 -61 -94 -172q0 -76 46 -113.5t114 -37.5z" />
    <glyph glyph-name="eight.inf" horiz-adv-x="626" 
d="M316 -297q-119 0 -189 49t-70 137q0 125 161 200q-96 69 -96 162q0 74 54.5 117t138.5 43q87 0 135 -44t48 -103q0 -81 -91 -134q75 -43 118.5 -94.5t43.5 -131.5q0 -87 -65 -144t-188 -57zM368 151q52 45 52 114q0 45 -26.5 75.5t-80.5 30.5q-47 0 -72.5 -24t-25.5 -57
q0 -23 11 -42t37 -37.5t45.5 -29t59.5 -30.5zM319 -257q71 0 109.5 37.5t38.5 88.5q0 27 -11.5 50.5t-37 44.5t-46.5 34t-61 35t-58 33q-94 -61 -94 -172q0 -76 46 -113.5t114 -37.5z" />
    <glyph glyph-name="eight.lt" 
d="M78 341q0 77 28.5 143t82 116t116 87t142.5 69q-115 70 -178 146.5t-63 182.5q0 137 106 218t267 81q177 0 273.5 -85.5t96.5 -203.5q0 -95 -64.5 -169.5t-174.5 -124.5q67 -34 112.5 -60.5t100.5 -69t88 -85t55.5 -102t22.5 -127.5q0 -173 -130.5 -278t-372.5 -105
q-231 0 -369.5 97t-138.5 270zM655 830q183 90 183 268q0 106 -64.5 169t-189.5 63q-107 0 -172.5 -56.5t-65.5 -141.5q0 -41 18 -79t42.5 -65t71 -58t81.5 -50t96 -50zM239 345q0 -81 29 -143.5t79.5 -99.5t113 -55.5t133.5 -18.5q157 0 245.5 80t88.5 199q0 39 -11 75
t-27.5 64t-46.5 57.5t-55.5 50t-68 47t-71 42.5t-78 42.5t-75.5 41.5q-120 -60 -188 -157t-68 -225z" />
    <glyph glyph-name="eight.op" horiz-adv-x="1139" 
d="M64 341q0 77 28.5 143t82 116t116 87t142.5 69q-115 70 -178 146.5t-63 182.5q0 137 106 218t267 81q177 0 273.5 -85.5t96.5 -203.5q0 -95 -64.5 -169.5t-174.5 -124.5q67 -34 112.5 -60.5t100.5 -69t88 -85t55.5 -102t22.5 -127.5q0 -173 -130.5 -278t-372.5 -105
q-231 0 -369.5 97t-138.5 270zM641 830q183 90 183 268q0 106 -64.5 169t-189.5 63q-107 0 -172.5 -56.5t-65.5 -141.5q0 -41 18 -79t42.5 -65t71 -58t81.5 -50t96 -50zM225 345q0 -81 29 -143.5t79.5 -99.5t113 -55.5t133.5 -18.5q157 0 245.5 80t88.5 199q0 39 -11 75
t-27.5 64t-46.5 57.5t-55.5 50t-68 47t-71 42.5t-78 42.5t-75.5 41.5q-120 -60 -188 -157t-68 -225z" />
    <glyph glyph-name="eight.ot" 
d="M78 341q0 77 28.5 143t82 116t116 87t142.5 69q-115 70 -178 146.5t-63 182.5q0 137 106 218t267 81q177 0 273.5 -85.5t96.5 -203.5q0 -95 -64.5 -169.5t-174.5 -124.5q67 -34 112.5 -60.5t100.5 -69t88 -85t55.5 -102t22.5 -127.5q0 -173 -130.5 -278t-372.5 -105
q-231 0 -369.5 97t-138.5 270zM655 830q183 90 183 268q0 106 -64.5 169t-189.5 63q-107 0 -172.5 -56.5t-65.5 -141.5q0 -41 18 -79t42.5 -65t71 -58t81.5 -50t96 -50zM239 345q0 -81 29 -143.5t79.5 -99.5t113 -55.5t133.5 -18.5q157 0 245.5 80t88.5 199q0 39 -11 75
t-27.5 64t-46.5 57.5t-55.5 50t-68 47t-71 42.5t-78 42.5t-75.5 41.5q-120 -60 -188 -157t-68 -225z" />
    <glyph glyph-name="emdash.cap" horiz-adv-x="1716" 
d="M109 652v54h1498v-54h-1498z" />
    <glyph glyph-name="endash.cap" horiz-adv-x="1151" 
d="M109 652v54h933v-54h-933z" />
    <glyph glyph-name="equal.cap" horiz-adv-x="1089" 
d="M96 801v53h897v-53h-897zM96 492v53h897v-53h-897z" />
    <glyph glyph-name="equal.lt" 
d="M1032 859v-53h-897v53h897zM1032 550v-53h-897v53h897z" />
    <glyph glyph-name="equal.op" horiz-adv-x="1115" 
d="M109 592v53h897v-53h-897zM109 283v53h897v-53h-897z" />
    <glyph glyph-name="equal.ot" 
d="M135 592v53h897v-53h-897zM135 283v53h897v-53h-897z" />
    <glyph glyph-name="exclamdown.cap" horiz-adv-x="408" 
d="M126 70l50 976h56l50 -976q0 -96 -78 -96t-78 96zM110 1282q0 39 27.5 66.5t66.5 27.5t66.5 -27.5t27.5 -66.5t-27.5 -66t-66.5 -27t-66.5 27t-27.5 66z" />
    <glyph glyph-name="fb" horiz-adv-x="1679" 
d="M215 0v833h-150v53h150v94q0 98 27 172t67 116t96 67.5t104.5 33.5t101.5 8q83 0 159.5 -19.5t111.5 -39.5l34 -19v-541q83 145 268 145q179 0 298 -133t119 -326t-119 -325.5t-295 -132.5q-188 0 -271 144v-130h-166v1310q-59 13 -123 13q-48 0 -86.5 -9t-77 -33
t-60.5 -75t-22 -127v-193h214v-53h-214v-833h-166zM916 443q0 -83 14.5 -154t43.5 -127.5t79.5 -89t116.5 -32.5q88 0 148 56.5t86 144.5t26 202t-26 203t-86 146.5t-148 57.5t-146.5 -57.5t-83 -146t-24.5 -203.5z" />
    <glyph glyph-name="ffb" horiz-adv-x="2214" 
d="M215 0v833h-150v53h150v105q0 94 21.5 165t55 112t79.5 66.5t88.5 34t89.5 8.5q104 0 187 -53q-28 -41 -35 -54q-7 6 -20.5 15t-54.5 23.5t-81 14.5q-164 0 -164 -238v-199h369v94q0 98 27 172t67 116t95.5 67.5t104 33.5t102.5 8q83 0 159.5 -19.5t110.5 -39.5l35 -19
v-541q83 145 268 145q179 0 298 -133t119 -326t-119 -325.5t-295 -132.5q-188 0 -271 144v-130h-166v1310q-59 13 -123 13q-48 0 -86.5 -9t-77 -33t-60.5 -75t-22 -127v-193h214v-53h-214v-833h-166v833h-369v-833h-166zM1451 443q0 -83 14.5 -154t43.5 -127.5t79.5 -89
t116.5 -32.5q88 0 148 56.5t86 144.5t26 202t-26 203t-86 146.5t-148 57.5t-146.5 -57.5t-83 -146t-24.5 -203.5z" />
    <glyph glyph-name="ffh" horiz-adv-x="2168" 
d="M215 0v833h-150v53h150v105q0 94 21.5 165t55 112t79.5 66.5t88.5 34t89.5 8.5q104 0 187 -53q-28 -41 -35 -54q-7 6 -20.5 15t-54.5 23.5t-81 14.5q-164 0 -164 -238v-199h369v94q0 98 27 172t67 116t95.5 67.5t104 33.5t102.5 8q83 0 159.5 -19.5t110.5 -39.5l35 -19
v-693q8 41 20.5 78t36.5 78.5t56 71.5t81 49.5t109 19.5q137 0 217 -91.5t80 -243.5v-568h-166v568q0 47 -2.5 81.5t-12.5 75t-27 66t-48 42.5t-74 17q-90 0 -153 -70t-90 -170.5t-27 -217.5v-392h-166v1310q-59 13 -123 13q-48 0 -86.5 -9t-77 -33t-60.5 -75t-22 -127v-193
h214v-53h-214v-833h-166v833h-369v-833h-166z" />
    <glyph glyph-name="ffj" horiz-adv-x="1586" 
d="M215 0v833h-150v53h150v105q0 94 21.5 165t55 112t79.5 66.5t88.5 34t89.5 8.5q104 0 187 -53q-28 -41 -35 -54q-7 6 -20.5 15t-54.5 23.5t-81 14.5q-164 0 -164 -238v-199h369v105q0 94 21.5 165t55 112t79.5 66.5t88.5 34t89.5 8.5q104 0 187 -53q-28 -41 -36 -54
q-7 6 -20 15t-54 23.5t-81 14.5q-164 0 -164 -238v-199h535v-582q0 -137 -20.5 -252.5t-53.5 -191.5t-73 -136t-79.5 -93t-72.5 -54.5t-54 -28.5l-20 -6v48q25 20 40.5 34t40 43t40 59t33.5 79.5t28.5 107t17.5 139t7 178.5v603h-369v-833h-166v833h-369v-833h-166z" />
    <glyph glyph-name="ffk" horiz-adv-x="2115" 
d="M215 0v833h-150v53h150v105q0 94 21.5 165t55 112t79.5 66.5t88.5 34t89.5 8.5q104 0 187 -53q-28 -41 -35 -54q-7 6 -20.5 15t-54.5 23.5t-81 14.5q-164 0 -164 -238v-199h369v94q0 98 27 172t67 116t95.5 67.5t104 33.5t102.5 8q83 0 159.5 -19.5t110.5 -39.5l35 -19
v-949l451 536h71l-271 -321l388 -565h-194l-302 437l-143 -169v-268h-166v1310q-59 13 -123 13q-48 0 -86.5 -9t-77 -33t-60.5 -75t-22 -127v-193h214v-53h-214v-833h-166v833h-369v-833h-166z" />
    <glyph glyph-name="ffy" horiz-adv-x="2052" 
d="M215 0v833h-150v53h150v105q0 94 21.5 165t55 112t79.5 66.5t88.5 34t89.5 8.5q104 0 187 -53q-28 -41 -35 -54q-7 6 -20.5 15t-54.5 23.5t-81 14.5q-164 0 -164 -238v-199h369v105q0 94 21.5 165t55 112t79.5 66.5t88.5 34t89.5 8.5q104 0 187 -53q-28 -41 -36 -54
q-7 6 -20 15t-54 23.5t-81 14.5q-164 0 -164 -238v-199h441l292 -650l291 650h58l-600 -1344h-59l223 498l-355 793h-291v-833h-166v833h-369v-833h-166z" />
    <glyph glyph-name="fh" horiz-adv-x="1633" 
d="M215 0v833h-150v53h150v94q0 98 27 172t67 116t96 67.5t104.5 33.5t101.5 8q83 0 159.5 -19.5t111.5 -39.5l34 -19v-693q8 41 20.5 78t36.5 78.5t56 71.5t81 49.5t109 19.5q137 0 217 -91.5t80 -243.5v-568h-166v568q0 47 -2.5 81.5t-12.5 75t-27 66t-48 42.5t-74 17
q-90 0 -153 -70t-90 -170.5t-27 -217.5v-392h-166v1310q-59 13 -123 13q-48 0 -86.5 -9t-77 -33t-60.5 -75t-22 -127v-193h214v-53h-214v-833h-166z" />
    <glyph glyph-name="figuredash.cap" horiz-adv-x="1151" 
d="M109 652v54h933v-54h-933z" />
    <glyph glyph-name="five.dnom" horiz-adv-x="605" 
d="M162 572l-21 -149q55 52 147 52q114 0 179 -68t65 -170q0 -101 -65.5 -175.5t-194.5 -74.5q-58 0 -102.5 15.5t-60.5 31.5l-16 15v59q2 -3 6.5 -8.5t19 -19.5t31.5 -24.5t43.5 -19.5t55.5 -9q78 0 118.5 58t40.5 151q0 89 -34.5 144t-106.5 55q-41 0 -76 -19.5t-49 -38.5
l-15 -19h-36l48 324h341l-40 -110h-278z" />
    <glyph glyph-name="five.numr" horiz-adv-x="605" 
d="M162 1248l-21 -149q55 52 147 52q114 0 179 -68t65 -170q0 -101 -65.5 -175.5t-194.5 -74.5q-58 0 -102.5 15.5t-60.5 31.5l-16 15v59q2 -3 6.5 -8.5t19 -19.5t31.5 -24.5t43.5 -19.5t55.5 -9q78 0 118.5 58t40.5 151q0 89 -34.5 144t-106.5 55q-41 0 -76 -19.5
t-49 -38.5l-15 -19h-36l48 324h341l-40 -110h-278z" />
    <glyph glyph-name="five.inf" horiz-adv-x="605" 
d="M162 290l-21 -149q55 52 147 52q114 0 179 -68t65 -170q0 -101 -65.5 -175.5t-194.5 -74.5q-58 0 -102.5 15.5t-60.5 31.5l-16 15v59q2 -3 6.5 -8.5t19 -19.5t31.5 -24.5t43.5 -19.5t55.5 -9q78 0 118.5 58t40.5 151q0 89 -34.5 144t-106.5 55q-41 0 -76 -19.5t-49 -38.5
l-15 -19h-36l48 324h341l-40 -110h-278z" />
    <glyph glyph-name="five.lt" 
d="M164 96v91q6 -9 15.5 -20t41 -38.5t67 -47.5t93 -36.5t120.5 -16.5q116 0 196 62t115.5 161t35.5 226q0 195 -89.5 304t-249.5 109q-95 0 -175.5 -39.5t-125.5 -119.5h-42l88 626h673l-59 -168h-585l-49 -355q114 110 297 110q216 0 358 -134.5t142 -338.5
q0 -72 -18 -141.5t-58.5 -134.5t-99 -113.5t-146 -78t-192.5 -29.5q-71 0 -133.5 12.5t-101 30.5t-66.5 36t-40 31z" />
    <glyph glyph-name="five.op" horiz-adv-x="1043" 
d="M102 -322v91q6 -9 15.5 -20t41 -38.5t67 -47.5t93 -36.5t120.5 -16.5q116 0 196 62t115.5 161t35.5 226q0 195 -89.5 304t-249.5 109q-95 0 -175.5 -39.5t-125.5 -119.5h-42l88 626h673l-59 -168h-585l-49 -355q114 110 297 110q216 0 358 -134.5t142 -338.5
q0 -72 -18 -141.5t-58.5 -134.5t-99 -113.5t-146 -78t-192.5 -29.5q-71 0 -133.5 12.5t-101 30.5t-66.5 36t-40 31z" />
    <glyph glyph-name="five.ot" 
d="M164 -322v91q6 -9 15.5 -20t41 -38.5t67 -47.5t93 -36.5t120.5 -16.5q116 0 196 62t115.5 161t35.5 226q0 195 -89.5 304t-249.5 109q-95 0 -175.5 -39.5t-125.5 -119.5h-42l88 626h673l-59 -168h-585l-49 -355q114 110 297 110q216 0 358 -134.5t142 -338.5
q0 -72 -18 -141.5t-58.5 -134.5t-99 -113.5t-146 -78t-192.5 -29.5q-71 0 -133.5 12.5t-101 30.5t-66.5 36t-40 31z" />
    <glyph glyph-name="fj" horiz-adv-x="1051" 
d="M215 0v833h-150v53h150v105q0 94 21.5 165t55 112t79.5 66.5t88.5 34t89.5 8.5q104 0 187 -53q-28 -41 -35 -54q-7 6 -20.5 15t-54.5 23.5t-81 14.5q-164 0 -164 -238v-199h535v-582q0 -137 -20.5 -252.5t-53.5 -191.5t-72.5 -136t-79 -93t-72.5 -54.5t-54 -28.5l-20 -6
v48q25 20 40 34t39.5 43t40 59t33.5 79.5t28.5 107t17.5 139t7 178.5v603h-369v-833h-166z" />
    <glyph glyph-name="fk" horiz-adv-x="1580" 
d="M215 0v833h-150v53h150v94q0 98 27 172t67 116t96 67.5t104.5 33.5t101.5 8q83 0 159.5 -19.5t111.5 -39.5l34 -19v-949l451 536h71l-271 -321l388 -565h-194l-302 437l-143 -169v-268h-166v1310q-59 13 -123 13q-48 0 -86.5 -9t-77 -33t-60.5 -75t-22 -127v-193h214v-53
h-214v-833h-166z" />
    <glyph glyph-name="four.dnom" horiz-adv-x="676" 
d="M350 0v162h-301l430 534v-494h136v-40h-136v-162h-129zM135 202h215v267z" />
    <glyph glyph-name="four.numr" horiz-adv-x="676" 
d="M350 678v162h-301l430 534v-494h136v-40h-136v-162h-129zM135 880h215v267z" />
    <glyph glyph-name="four.inf" horiz-adv-x="676" 
d="M350 -282v162h-301l430 534v-494h136v-40h-136v-162h-129zM135 -80h215v267z" />
    <glyph glyph-name="four.lt" 
d="M22 406l794 979v-925h317v-54h-317v-406h-178v406h-616zM138 460h500v620z" />
    <glyph glyph-name="four.op" horiz-adv-x="1201" 
d="M39 0l794 979v-925h317v-54h-317v-406h-178v406h-616zM155 54h500v620z" />
    <glyph glyph-name="four.ot" 
d="M22 0l794 979v-925h317v-54h-317v-406h-178v406h-616zM138 54h500v620z" />
    <glyph glyph-name="grave.cap" horiz-adv-x="548" 
d="M448 1477l-50 -9l-250 188q-38 30 -38 62q0 23 16.5 39t41.5 16q32 0 63 -37z" />
    <glyph glyph-name="greater.cap" horiz-adv-x="1085" 
d="M109 268v58l831 347l-831 347v59l897 -378v-55z" />
    <glyph glyph-name="greater.lt" 
d="M150 273v58l831 347l-831 347v59l897 -378v-55z" />
    <glyph glyph-name="greater.op" horiz-adv-x="1085" 
d="M109 58v58l831 347l-831 347v59l897 -378v-55z" />
    <glyph glyph-name="greater.ot" 
d="M150 58v58l831 347l-831 347v59l897 -378v-55z" />
    <glyph glyph-name="greaterequal.cap" horiz-adv-x="1085" 
d="M109 351v58l832 347l-832 347v58l897 -378v-54zM109 195v54h897v-54h-897z" />
    <glyph glyph-name="greaterequal.lt" 
d="M150 351v58l832 347l-832 347v58l897 -378v-54zM150 195v54h897v-54h-897z" />
    <glyph glyph-name="greaterequal.op" horiz-adv-x="1085" 
d="M109 156v58l832 347l-832 347v58l897 -378v-54zM109 0v54h897v-54h-897z" />
    <glyph glyph-name="greaterequal.ot" 
d="M150 156v58l832 347l-832 347v58l897 -378v-54zM150 0v54h897v-54h-897z" />
    <glyph glyph-name="guillemotleft.cap" horiz-adv-x="973" 
d="M424 359l-345 320l345 320l39 -38l-305 -282l304 -282zM826 359l-345 320l345 320l39 -38l-305 -282l304 -282z" />
    <glyph glyph-name="guillemotright.cap" horiz-adv-x="973" 
d="M148 359l-38 38l302 282l-303 282l39 38l345 -320zM550 359l-38 38l302 282l-303 282l39 38l345 -320z" />
    <glyph glyph-name="guilsinglleft.cap" horiz-adv-x="572" 
d="M424 359l-345 320l345 320l39 -38l-305 -282l304 -282z" />
    <glyph glyph-name="guilsinglright.cap" horiz-adv-x="572" 
d="M148 359l-38 38l302 282l-303 282l39 38l345 -320z" />
    <glyph glyph-name="hcircumflex.alt5" horiz-adv-x="1006" 
d="M240 1473l234 300l233 -300l-46 -5l-187 135l-188 -135zM123 0v1358h166v-752q8 41 20.5 78t36.5 78.5t56 71.5t81 49.5t109 19.5q137 0 217 -91.5t80 -243.5v-568h-166v568q0 47 -2.5 81.5t-12.5 75t-27 66t-48 42.5t-74 17q-90 0 -153 -70t-90 -170.5t-27 -217.5v-392
h-166z" />
    <glyph glyph-name="hungarumlaut.cap" horiz-adv-x="811" 
d="M363 1477l217 259q31 37 63 37q25 0 41.5 -16t16.5 -39q0 -32 -38 -62l-249 -188zM150 1468l-50 9l217 259q31 37 63 37q25 0 41.5 -16t16.5 -39q0 -32 -38 -62z" />
    <glyph glyph-name="hyphen.cap" horiz-adv-x="837" 
d="M109 652v54h619v-54h-619z" />
    <glyph glyph-name="infinity.cap" horiz-adv-x="1526" 
d="M763 645l-156 -111q-71 -50 -128.5 -72.5t-129.5 -22.5q-121 0 -200.5 65t-79.5 175t79.5 174.5t199.5 64.5q72 0 130 -22.5t129 -72.5l156 -112l156 112q71 50 129 72.5t130 22.5q120 0 199.5 -64.5t79.5 -174.5t-80 -175t-200 -65q-71 0 -129.5 22.5t-128.5 72.5z
M809 678l143 -102q118 -84 210 -84q81 0 121 56t40 130q0 75 -39.5 131t-119.5 56q-94 0 -212 -84zM717 678l-143 103q-118 84 -213 84q-80 0 -119 -55.5t-39 -131.5q0 -75 39 -130.5t120 -55.5q94 0 212 84z" />
    <glyph glyph-name="infinity.op" horiz-adv-x="1526" 
d="M763 430l-156 -111q-71 -50 -128.5 -72.5t-129.5 -22.5q-121 0 -200.5 65t-79.5 175t79.5 174.5t199.5 64.5q72 0 130 -22.5t129 -72.5l156 -112l156 112q71 50 129 72.5t130 22.5q120 0 199.5 -64.5t79.5 -174.5t-80 -175t-200 -65q-71 0 -129.5 22.5t-128.5 72.5z
M809 463l143 -102q118 -84 210 -84q81 0 121 56t40 130q0 75 -39.5 131t-119.5 56q-94 0 -212 -84zM717 463l-143 103q-118 84 -213 84q-80 0 -119 -55.5t-39 -131.5q0 -75 39 -130.5t120 -55.5q94 0 212 84z" />
    <glyph glyph-name="infinity.ot" 
d="M584 430l-156 -111q-71 -50 -128.5 -72.5t-129.5 -22.5q-121 0 -200.5 65t-79.5 175t79.5 174.5t199.5 64.5q72 0 130 -22.5t129 -72.5l156 -112l156 112q71 50 129 72.5t130 22.5q120 0 199.5 -64.5t79.5 -174.5t-80 -175t-200 -65q-71 0 -129.5 22.5t-128.5 72.5z
M630 463l143 -102q118 -84 210 -84q81 0 121 56t40 130q0 75 -39.5 131t-119.5 56q-94 0 -212 -84zM538 463l-143 103q-118 84 -213 84q-80 0 -119 -55.5t-39 -131.5q0 -75 39 -130.5t120 -55.5q94 0 212 84z" />
    <glyph glyph-name="invertedbreve" horiz-adv-x="671" 
d="M148 1024l-45 -15q0 113 65.5 183t167.5 70q101 0 166.5 -70t65.5 -183l-45 15q-14 57 -62.5 89.5t-124.5 32.5q-77 0 -125 -32.5t-63 -89.5z" />
    <glyph glyph-name="invertedbreve.cap" horiz-adv-x="671" 
d="M148 1485l-45 -15q0 113 65.5 183t167.5 70q101 0 166.5 -70t65.5 -183l-45 15q-14 57 -62.5 89.5t-124.5 32.5q-77 0 -125 -32.5t-63 -89.5z" />
    <glyph glyph-name="less.cap" horiz-adv-x="1085" 
d="M79 646v55l897 378v-59l-832 -347l832 -347v-58z" />
    <glyph glyph-name="less.lt" 
d="M120 651v55l897 378v-59l-832 -347l832 -347v-58z" />
    <glyph glyph-name="less.op" horiz-adv-x="1085" 
d="M79 436v55l897 378v-59l-832 -347l832 -347v-58z" />
    <glyph glyph-name="less.ot" 
d="M120 436v55l897 378v-59l-832 -347l832 -347v-58z" />
    <glyph glyph-name="lessequal.cap" horiz-adv-x="1085" 
d="M79 729v54l897 378v-58l-833 -347l833 -347v-58zM79 195v54h897v-54h-897z" />
    <glyph glyph-name="lessequal.lt" 
d="M120 729v54l897 378v-58l-833 -347l833 -347v-58zM120 195v54h897v-54h-897z" />
    <glyph glyph-name="lessequal.op" horiz-adv-x="1085" 
d="M79 534v54l897 378v-58l-833 -347l833 -347v-58zM79 0v54h897v-54h-897z" />
    <glyph glyph-name="lessequal.ot" 
d="M120 534v54l897 378v-58l-833 -347l833 -347v-58zM120 0v54h897v-54h-897z" />
    <glyph glyph-name="logicalnot.cap" horiz-adv-x="1122" 
d="M109 647v53h904v-353h-54v300h-850z" />
    <glyph glyph-name="macron.cap" horiz-adv-x="707" 
d="M103 1532v71h501v-71h-501z" />
    <glyph glyph-name="minus.cap" horiz-adv-x="1096" 
d="M96 647v53h904v-53h-904z" />
    <glyph glyph-name="minus.lt" 
d="M1035 705v-53h-904v53h904z" />
    <glyph glyph-name="minus.op" horiz-adv-x="1122" 
d="M109 437v53h904v-53h-904z" />
    <glyph glyph-name="minus.ot" 
d="M131 437v53h904v-53h-904z" />
    <glyph glyph-name="multiply.lt" 
d="M601 678l328 -329l-37 -38l-328 329l-329 -329l-37 38l328 329l-328 329l37 38l329 -330l328 330l37 -38z" />
    <glyph glyph-name="multiply.op" horiz-adv-x="949" 
d="M109 135l328 329l-328 329l37 38l328 -330l329 330l37 -38l-328 -329l328 -329l-37 -38l-329 329l-328 -329z" />
    <glyph glyph-name="multiply.ot" 
d="M601 464l328 -329l-37 -38l-328 329l-329 -329l-37 38l328 329l-328 329l37 38l329 -330l328 330l37 -38z" />
    <glyph glyph-name="nine.dnom" horiz-adv-x="617" 
d="M194 -15v40q71 18 135 83.5t94 168.5q-44 -72 -136 -72q-95 0 -162.5 66t-67.5 173q0 113 74.5 181t174.5 68q99 0 171.5 -70.5t72.5 -203.5q0 -81 -25 -151t-62.5 -116t-87.5 -82t-94 -55.5t-87 -29.5zM299 245q35 0 61 20t40 52.5t20 67.5t6 73q0 35 -5.5 66.5t-18 62
t-37.5 48.5t-60 18t-60.5 -18.5t-38.5 -50t-19 -65.5t-6 -72q0 -52 9 -94t37 -75t72 -33z" />
    <glyph glyph-name="nine.numr" horiz-adv-x="617" 
d="M194 665v40q71 18 135 83.5t94 168.5q-44 -72 -136 -72q-95 0 -162.5 66t-67.5 173q0 113 74.5 181t174.5 68q99 0 171.5 -70.5t72.5 -203.5q0 -81 -25 -151t-62.5 -116t-87.5 -82t-94 -55.5t-87 -29.5zM299 925q35 0 61 20t40 52.5t20 67.5t6 73q0 35 -5.5 66.5t-18 62
t-37.5 48.5t-60 18t-60.5 -18.5t-38.5 -50t-19 -65.5t-6 -72q0 -52 9 -94t37 -75t72 -33z" />
    <glyph glyph-name="nine.inf" horiz-adv-x="617" 
d="M194 -297v40q71 18 135 83.5t94 168.5q-44 -72 -136 -72q-95 0 -162.5 66t-67.5 173q0 113 74.5 181t174.5 68q99 0 171.5 -70.5t72.5 -203.5q0 -81 -25 -151t-62.5 -116t-87.5 -82t-94 -55.5t-87 -29.5zM299 -37q35 0 61 20t40 52.5t20 67.5t6 73q0 35 -5.5 66.5t-18 62
t-37.5 48.5t-60 18t-60.5 -18.5t-38.5 -50t-19 -65.5t-6 -72q0 -52 9 -94t37 -75t72 -33z" />
    <glyph glyph-name="nine.lt" 
d="M360 -26v54q147 37 282 172t203 345q-106 -131 -282 -131q-92 0 -176 33t-150.5 92.5t-106 152.5t-39.5 205q0 146 71.5 259.5t180.5 170.5t231 57q75 0 145.5 -20t134 -63t110.5 -105t74.5 -152.5t27.5 -198.5q0 -119 -25.5 -225t-68.5 -187t-102 -150.5t-122 -119
t-134 -88.5t-132.5 -62.5t-121.5 -38.5zM573 468q150 0 230 118.5t80 318.5q0 197 -77 311t-228 114q-145 0 -224.5 -119.5t-79.5 -311.5q0 -196 76 -313.5t223 -117.5z" />
    <glyph glyph-name="nine.op" horiz-adv-x="1139" 
d="M346 -445v54q147 37 282 172t203 345q-106 -131 -282 -131q-92 0 -176 33t-150.5 92.5t-106 152.5t-39.5 205q0 146 71.5 259.5t180.5 170.5t231 57q75 0 145.5 -20t134 -63t110.5 -105t74.5 -152.5t27.5 -198.5q0 -119 -25.5 -225t-68.5 -187t-102 -150.5t-122 -119
t-134 -88.5t-132.5 -62.5t-121.5 -38.5zM559 49q150 0 230 118.5t80 318.5q0 197 -77 311t-228 114q-145 0 -224.5 -119.5t-79.5 -311.5q0 -196 76 -313.5t223 -117.5z" />
    <glyph glyph-name="nine.ot" 
d="M334 -445v54q147 37 282.5 172t203.5 346q-106 -132 -283 -132q-91 0 -175.5 33t-151 92.5t-106 152.5t-39.5 205q0 110 41.5 203.5t110 154.5t155 95t176.5 34q95 0 181.5 -33t157 -96.5t112 -169.5t41.5 -240q0 -119 -25.5 -225t-68.5 -187t-102 -150.5t-122 -119
t-134 -88.5t-132.5 -62.5t-121.5 -38.5zM857 486q0 198 -76.5 311.5t-228.5 113.5q-145 0 -224.5 -119.5t-79.5 -311.5q0 -196 76 -313.5t223 -117.5q151 0 230.5 118.5t79.5 318.5z" />
    <glyph glyph-name="notequal.cap" horiz-adv-x="1115" 
d="M109 497v54h369l100 255h-469v54h490l102 258h57l-102 -258h350v-54h-371l-100 -255h471v-54h-492l-101 -257h-57l101 257h-348z" />
    <glyph glyph-name="notequal.lt" 
d="M135 497v54h369l100 255h-469v54h490l102 258h57l-102 -258h350v-54h-371l-100 -255h471v-54h-492l-101 -257h-57l101 257h-348z" />
    <glyph glyph-name="notequal.op" horiz-adv-x="1115" 
d="M109 282v54h369l100 255h-469v54h490l102 258h57l-102 -258h350v-54h-371l-100 -255h471v-54h-492l-101 -257h-57l101 257h-348z" />
    <glyph glyph-name="notequal.ot" 
d="M135 282v54h369l100 255h-469v54h490l102 258h57l-102 -258h350v-54h-371l-100 -255h471v-54h-492l-101 -257h-57l101 257h-348z" />
    <glyph glyph-name="numero.alt6" horiz-adv-x="1987" 
d="M1319 1063q0 139 86 230t218 91q133 0 219.5 -91t86.5 -230t-86 -228.5t-220 -89.5q-133 0 -218.5 89.5t-85.5 228.5zM1623 795q45 0 76.5 23t48 63.5t23.5 84.5t7 97t-7 97.5t-23.5 85.5t-48 64.5t-76.5 23.5q-44 0 -75.5 -23.5t-47.5 -64.5t-23 -85.5t-7 -97.5t7 -97
t23 -84.5t47.5 -63.5t75.5 -23zM1369 613v54h509v-54h-509zM127 0v1381l1003 -1087v1064h54v-1381l-1003 1087v-1064h-54z" />
    <glyph glyph-name="one.dnom" horiz-adv-x="649" 
d="M77 0v40h193v523l-118 -78v48l247 162v-655h193v-40h-515z" />
    <glyph glyph-name="one.numr" horiz-adv-x="649" 
d="M77 678v40h193v523l-118 -78v48l247 162v-655h193v-40h-515z" />
    <glyph glyph-name="one.inf" horiz-adv-x="649" 
d="M77 -282v40h193v523l-118 -78v48l247 162v-655h193v-40h-515z" />
    <glyph glyph-name="one.lt" 
d="M83 0v54h422v1152l-271 -176v60l449 294v-1330h421v-54h-1021z" />
    <glyph glyph-name="one.op" horiz-adv-x="1016" 
d="M41 0v54h395v733l-270 -176v60l448 294v-911h395v-54h-968z" />
    <glyph glyph-name="one.ot" 
d="M131 0v54h395v733l-270 -176v60l448 294v-911h395v-54h-968z" />
    <glyph glyph-name="two.numr" horiz-adv-x="556" 
d="M39 678q12 10 31 28t68 75t86.5 115t68.5 141.5t31 161.5q0 134 -94 134q-30 0 -56.5 -12.5t-43 -30.5t-28.5 -35.5t-17 -30.5l-5 -12v74q2 4 5 9.5t17 20.5t32 26.5t49.5 21t68.5 9.5q95 0 143.5 -53.5t48.5 -133.5q0 -60 -27.5 -124t-71.5 -118t-80 -90.5t-71 -65.5
h317l-40 -110h-432z" />
    <glyph glyph-name="paragraph.alt7" horiz-adv-x="1346" 
d="M699 -458v1101q-52 -20 -151 -20q-80 0 -151 13t-132.5 42t-106 71t-70 104t-25.5 137q0 94 38.5 166t106 115.5t153.5 65t187 21.5h743l-36 -54h-79v-1522l-177 -88v1610h-122v-1672z" />
    <glyph glyph-name="parenleft.cap" horiz-adv-x="598" 
d="M109 648v4q0 133 20.5 255t53 210.5t72 164.5t79 125.5t72 84.5t52.5 50l21 16h66q-6 -5 -15.5 -14.5t-36.5 -47t-52 -82.5t-55.5 -122.5t-52.5 -165t-37 -212t-15 -262.5v-4q0 -138 14.5 -262.5t38 -213t51.5 -164t56 -123t51.5 -81.5t37.5 -48l15 -14h-66
q-8 5 -21 15.5t-51.5 50t-73.5 85.5t-78 124.5t-73.5 165.5t-51.5 209.5t-21 255.5z" />
    <glyph glyph-name="parenright.cap" horiz-adv-x="598" 
d="M119 -258h-66q6 5 15.5 14.5t36.5 47t52 82.5t55.5 122.5t52.5 165t37 212t15 262.5v4q0 138 -14.5 262.5t-38 213t-51.5 164t-56 123t-51.5 81.5t-37.5 48l-15 14h66q8 -5 21 -15.5t51.5 -50t73.5 -85.5t78 -124.5t73.5 -165.5t51.5 -209.5t21 -255.5v-4
q0 -133 -20.5 -255t-53 -210.5t-72 -164.5t-79 -125.5t-72 -84.5t-52.5 -50z" />
    <glyph glyph-name="period.tab" horiz-adv-x="584" 
d="M197 76q0 39 27.5 66t66.5 27t67 -27t28 -66t-28 -66.5t-67 -27.5t-66.5 27.5t-27.5 66.5z" />
    <glyph glyph-name="periodcentered.cap" horiz-adv-x="403" 
d="M107 680q0 39 27.5 66t66.5 27t67 -27t28 -66t-28 -66.5t-67 -27.5t-66.5 27.5t-27.5 66.5z" />
    <glyph glyph-name="plus.cap" horiz-adv-x="1096" 
d="M96 647v53h425v421h54v-421h425v-53h-425v-421h-54v421h-425z" />
    <glyph glyph-name="plus.lt" 
d="M131 652v53h425v421h54v-421h425v-53h-425v-421h-54v421h-425z" />
    <glyph glyph-name="plus.op" horiz-adv-x="1122" 
d="M109 437v53h425v421h54v-421h425v-53h-425v-421h-54v421h-425z" />
    <glyph glyph-name="plus.ot" 
d="M131 437v53h425v421h54v-421h425v-53h-425v-421h-54v421h-425z" />
    <glyph glyph-name="plusminus.cap" horiz-adv-x="1109" 
d="M527 367v356h-422v53h422v422h54v-422h423v-53h-423v-356h-54zM105 163v54h899v-54h-899z" />
    <glyph glyph-name="plusminus.lt" 
d="M610 723v-356h-54v356h-423v53h423v422h54v-422h422v-53h-422zM1032 217v-54h-899v54h899z" />
    <glyph glyph-name="plusminus.op" horiz-adv-x="1109" 
d="M527 204v356h-422v53h422v422h54v-422h423v-53h-423v-356h-54zM105 0v54h899v-54h-899z" />
    <glyph glyph-name="plusminus.ot" 
d="M610 560v-356h-54v356h-423v53h423v422h54v-422h422v-53h-422zM1032 54v-54h-899v54h899z" />
    <glyph glyph-name="questiondown.cap" horiz-adv-x="952" 
d="M617 1046v-174q-8 -3 -21 -8t-51 -26t-73 -46t-77 -68.5t-72.5 -93t-51.5 -120.5t-21 -149q0 -65 14 -121t45 -105.5t87.5 -78t133.5 -28.5q56 0 105.5 13t85 33.5t65 45.5t48 50.5t31.5 46t19 33.5l5 13v-116q-4 -7 -11.5 -18.5t-39.5 -41.5t-71.5 -53t-109.5 -41.5
t-152 -18.5q-212 0 -330 112t-118 283q0 78 27 150t65 123t96 99t101 75t100.5 54t74.5 33t42 15v128h54zM684 1282q0 -39 -27.5 -66t-66.5 -27t-66.5 27t-27.5 66t27.5 66.5t66.5 27.5t66.5 -27.5t27.5 -66.5z" />
    <glyph glyph-name="registered.cap" horiz-adv-x="1614" 
d="M83 679q0 200 97.5 362.5t263 252.5t363.5 90t363.5 -90t263 -252.5t97.5 -362.5t-97.5 -362.5t-263 -252.5t-363.5 -90t-363.5 90t-263 252.5t-97.5 362.5zM138 679q0 -185 90 -337.5t243.5 -238.5t335.5 -86t335 86t243 238.5t90 337.5t-90 337.5t-243 238.5t-335 86
t-335.5 -86t-243.5 -238.5t-90 -337.5zM557 271v816h264q127 0 205.5 -55.5t78.5 -167.5q0 -115 -79.5 -173.5t-204.5 -58.5h-122l453 -361h-65l-419 332v-332h-111zM668 675h127q94 0 141.5 48.5t47.5 140.5q0 180 -189 180h-127v-369z" />
    <glyph glyph-name="ring.cap" horiz-adv-x="554" 
d="M278 1474q-76 0 -125.5 36.5t-49.5 99.5q0 64 49 101t126 37q76 0 124.5 -37t48.5 -101q0 -63 -48.5 -99.5t-124.5 -36.5zM278 1514q67 0 67 96q0 47 -18 72t-49 25q-32 0 -50 -25t-18 -72q0 -96 68 -96z" />
    <glyph glyph-name="semicolon.tab" horiz-adv-x="584" 
d="M283 -274v36q3 3 9 8t20.5 22.5t25.5 37t20 50t9 62.5q0 42 -11 71q-27 -31 -67 -31q-39 0 -65.5 24.5t-26.5 64.5q0 43 30 71t76 28q59 0 93.5 -48t34.5 -126q0 -51 -15 -98t-37 -77t-44 -52.5t-37 -32.5zM197 810q0 39 27.5 66t66.5 27t67 -27t28 -66t-28 -66.5
t-67 -27.5t-66.5 27.5t-27.5 66.5z" />
    <glyph glyph-name="seven.dnom" horiz-adv-x="584" 
d="M118 0l274 640h-303v40h454l-292 -680h-133z" />
    <glyph glyph-name="seven.numr" horiz-adv-x="584" 
d="M118 678l274 640h-303v40h454l-292 -680h-133z" />
    <glyph glyph-name="seven.inf" horiz-adv-x="584" 
d="M118 -282l274 640h-303v40h454l-292 -680h-133z" />
    <glyph glyph-name="seven.lt" 
d="M284 0l559 1304h-694v54h897l-582 -1358h-180z" />
    <glyph glyph-name="seven.op" horiz-adv-x="1027" 
d="M214 -419l559 1304h-694v54h897l-582 -1358h-180z" />
    <glyph glyph-name="seven.ot" 
d="M284 -419l559 1304h-694v54h897l-582 -1358h-180z" />
    <glyph glyph-name="six.dnom" horiz-adv-x="617" 
d="M423 693v-40q-71 -19 -135 -84t-95 -169q44 73 137 73q95 0 162.5 -66t67.5 -173q0 -113 -74.5 -181t-174.5 -68q-99 0 -171.5 70.5t-72.5 203.5q0 81 25 151t62.5 116t87.5 82t94 55.5t87 29.5zM312 25q35 0 60.5 18.5t38.5 50t19 65.5t6 72q0 52 -9 94t-37 75t-72 33
q-35 0 -61 -20t-40 -52.5t-20 -67.5t-6 -73q0 -35 5.5 -66.5t18 -62t37.5 -48.5t60 -18z" />
    <glyph glyph-name="six.numr" horiz-adv-x="617" 
d="M423 1373v-40q-71 -19 -135 -84t-95 -169q44 73 137 73q95 0 162.5 -66t67.5 -173q0 -113 -74.5 -181t-174.5 -68q-99 0 -171.5 70.5t-72.5 203.5q0 81 25 151t62.5 116t87.5 82t94 55.5t87 29.5zM312 705q35 0 60.5 18.5t38.5 50t19 65.5t6 72q0 52 -9 94t-37 75t-72 33
q-35 0 -61 -20t-40 -52.5t-20 -67.5t-6 -73q0 -35 5.5 -66.5t18 -62t37.5 -48.5t60 -18z" />
    <glyph glyph-name="six.inf" horiz-adv-x="617" 
d="M423 411v-40q-71 -19 -135 -84t-95 -169q44 73 137 73q95 0 162.5 -66t67.5 -173q0 -113 -74.5 -181t-174.5 -68q-99 0 -171.5 70.5t-72.5 203.5q0 81 25 151t62.5 116t87.5 82t94 55.5t87 29.5zM312 -257q35 0 60.5 18.5t38.5 50t19 65.5t6 72q0 52 -9 94t-37 75t-72 33
q-35 0 -61 -20t-40 -52.5t-20 -67.5t-6 -73q0 -35 5.5 -66.5t18 -62t37.5 -48.5t60 -18z" />
    <glyph glyph-name="six.lt" 
d="M807 1384v-54q-147 -37 -282.5 -172t-203.5 -346q106 132 283 132q91 0 175.5 -33t151 -92.5t106 -152.5t39.5 -205q0 -110 -41.5 -203.5t-110 -154.5t-155 -95t-176.5 -34q-95 0 -181.5 33t-157 96.5t-112 169.5t-41.5 240q0 119 25.5 225t68.5 187t102 150.5t122 119
t134 88.5t132.5 62.5t121.5 38.5zM284 453q0 -198 76.5 -311.5t228.5 -113.5q145 0 224.5 119.5t79.5 311.5q0 196 -76 313.5t-223 117.5q-151 0 -230.5 -118.5t-79.5 -318.5z" />
    <glyph glyph-name="six.op" horiz-adv-x="1139" 
d="M793 1384v-54q-147 -37 -282.5 -172t-203.5 -346q106 132 283 132q91 0 175.5 -33t151 -92.5t106 -152.5t39.5 -205q0 -110 -41.5 -203.5t-110 -154.5t-155 -95t-176.5 -34q-95 0 -181.5 33t-157 96.5t-112 169.5t-41.5 240q0 119 25.5 225t68.5 187t102 150.5t122 119
t134 88.5t132.5 62.5t121.5 38.5zM270 453q0 -198 76.5 -311.5t228.5 -113.5q145 0 224.5 119.5t79.5 311.5q0 196 -76 313.5t-223 117.5q-151 0 -230.5 -118.5t-79.5 -318.5z" />
    <glyph glyph-name="six.ot" 
d="M807 1384v-54q-147 -37 -282.5 -172t-203.5 -346q106 132 283 132q91 0 175.5 -33t151 -92.5t106 -152.5t39.5 -205q0 -110 -41.5 -203.5t-110 -154.5t-155 -95t-176.5 -34q-95 0 -181.5 33t-157 96.5t-112 169.5t-41.5 240q0 119 25.5 225t68.5 187t102 150.5t122 119
t134 88.5t132.5 62.5t121.5 38.5zM284 453q0 -198 76.5 -311.5t228.5 -113.5q145 0 224.5 119.5t79.5 311.5q0 196 -76 313.5t-223 117.5q-151 0 -230.5 -118.5t-79.5 -318.5z" />
    <glyph glyph-name="space.frac" horiz-adv-x="96" 
 />
    <glyph glyph-name="space.tab" horiz-adv-x="584" 
 />
    <glyph glyph-name="space_uni0326" horiz-adv-x="418" 
d="M183 -423v29q3 1 7.5 3.5t17 12t22 20.5t17 30t7.5 40q0 26 -10 46q-27 -27 -60 -27q-34 0 -57.5 22t-23.5 57q0 36 26 59.5t66 23.5q53 0 86.5 -41t33.5 -101q0 -37 -13.5 -68.5t-33 -50.5t-39 -32t-33.5 -18z" />
    <glyph glyph-name="three.dnom" horiz-adv-x="610" 
d="M125 535v71q1 4 4.5 9.5t16.5 20.5t30.5 26.5t49 21t69.5 9.5q87 0 132.5 -43t45.5 -106q0 -89 -79 -145q67 -18 111 -70.5t44 -128.5q0 -95 -71.5 -155t-196.5 -60q-39 0 -72.5 6.5t-53.5 15.5t-33.5 17.5t-19.5 15.5l-5 6v60q3 -3 8 -8.5t22 -19.5t35.5 -24.5
t47.5 -19.5t59 -9q75 0 115.5 49t40.5 122q0 56 -25.5 105.5t-73.5 62.5q-57 -20 -123 -20l10 43q34 21 94 23q60 39 60 130q0 50 -23 81.5t-74 31.5q-31 0 -57 -12t-41.5 -29.5t-26.5 -35t-15 -29.5z" />
    <glyph glyph-name="three.numr" horiz-adv-x="610" 
d="M125 1215v71q1 4 4.5 9.5t16.5 20.5t30.5 26.5t49 21t69.5 9.5q87 0 132.5 -43t45.5 -106q0 -89 -79 -145q67 -18 111 -70.5t44 -128.5q0 -95 -71.5 -155t-196.5 -60q-63 0 -109 15.5t-60 30.5l-15 15v60q3 -3 8 -8.5t22 -19.5t35.5 -24.5t47.5 -19.5t59 -9
q75 0 115.5 49t40.5 122q0 56 -25.5 105.5t-73.5 62.5q-57 -20 -123 -20l10 43q34 21 94 23q60 39 60 130q0 50 -23 81.5t-74 31.5q-31 0 -57 -12t-41.5 -29.5t-26.5 -35t-15 -29.5z" />
    <glyph glyph-name="three.inf" horiz-adv-x="610" 
d="M125 253v71q1 4 4.5 9.5t16.5 20.5t30.5 26.5t49 21t69.5 9.5q87 0 132.5 -43t45.5 -106q0 -89 -79 -145q67 -18 111 -70.5t44 -128.5q0 -95 -71.5 -155t-196.5 -60q-63 0 -109 15.5t-60 30.5l-15 15v60q3 -3 8 -8.5t22 -19.5t35.5 -24.5t47.5 -19.5t59 -9q75 0 115.5 49
t40.5 122q0 56 -25.5 105.5t-73.5 62.5q-57 -20 -123 -20l10 43q34 21 94 23q60 39 60 130q0 50 -23 81.5t-74 31.5q-31 0 -57 -12t-41.5 -29.5t-26.5 -35t-15 -29.5z" />
    <glyph glyph-name="three.lt" 
d="M149 96v93q6 -8 16 -20t42.5 -39t70 -48t99 -37.5t129.5 -16.5q161 0 257 92.5t96 254.5q0 80 -23.5 154.5t-81 135.5t-141.5 77q-111 -37 -250 -37l14 54q8 5 23 12.5t66 21t107 15.5q149 88 149 282q0 111 -50 175.5t-154 64.5q-61 0 -115.5 -24t-88 -55t-61 -69.5
t-36.5 -57.5t-13 -29v117q4 7 11 18.5t36 41t64 52.5t97 41.5t133 18.5q160 0 253 -83.5t93 -213.5q0 -83 -40.5 -161.5t-127.5 -132.5q145 -37 232.5 -144.5t87.5 -261.5q0 -186 -131 -299.5t-373 -113.5q-80 0 -149 12.5t-111.5 30.5t-73.5 36t-43 31z" />
    <glyph glyph-name="three.op" horiz-adv-x="1012" 
d="M57 -323v93q6 -8 16 -20t42.5 -39t70 -48t99 -37.5t129.5 -16.5q161 0 257 92.5t96 254.5q0 80 -23.5 154.5t-81 135.5t-141.5 77q-111 -37 -250 -37l14 54q8 5 23 12.5t66 21t107 15.5q149 88 149 282q0 111 -50 175.5t-154 64.5q-61 0 -115.5 -24t-88 -55t-61 -69.5
t-36.5 -57.5t-13 -29v117q4 7 11 18.5t36 41t64 52.5t97 41.5t133 18.5q160 0 253 -83.5t93 -213.5q0 -83 -40.5 -161.5t-127.5 -132.5q145 -37 232.5 -144.5t87.5 -261.5q0 -186 -131 -299.5t-373 -113.5q-80 0 -149 12.5t-111.5 30.5t-73.5 36t-43 30z" />
    <glyph glyph-name="three.ot" 
d="M145 -323v93q6 -8 16 -20t42.5 -39t70 -48t99 -37.5t129.5 -16.5q161 0 257 92.5t96 254.5q0 80 -23.5 154.5t-81 135.5t-141.5 77q-111 -37 -250 -37l14 54q8 5 23 12.5t66 21t107 15.5q149 88 149 282q0 111 -50 175.5t-154 64.5q-61 0 -115.5 -24t-88 -55t-61 -69.5
t-36.5 -57.5t-13 -29v117q4 7 11 18.5t36 41t64 52.5t97 41.5t133 18.5q160 0 253 -83.5t93 -213.5q0 -83 -40.5 -161.5t-127.5 -132.5q145 -37 232.5 -144.5t87.5 -261.5q0 -186 -131 -299.5t-373 -113.5q-80 0 -149 12.5t-111.5 30.5t-73.5 36t-43 30z" />
    <glyph glyph-name="tilde.cap" horiz-adv-x="777" 
d="M103 1494q0 81 43.5 132t128.5 51q54 0 142.5 -33.5t131.5 -33.5q33 0 56 19.5t27 60.5h42q0 -81 -44 -134t-129 -53q-55 0 -143 33.5t-126 33.5q-79 0 -87 -76h-42z" />
    <glyph glyph-name="two.dnom" horiz-adv-x="556" 
d="M39 0q12 10 31 28t68 75t86.5 115t68.5 141.5t31 161.5q0 134 -94 134q-30 0 -56.5 -12.5t-43 -30.5t-28.5 -35.5t-17 -30.5l-5 -12v74q2 4 5 9.5t17 20.5t32 26.5t49.5 21t68.5 9.5q95 0 143.5 -53.5t48.5 -133.5q0 -60 -27.5 -124t-71.5 -118t-80 -90.5t-71 -65.5h317
l-40 -110h-432z" />
    <glyph glyph-name="two.inf" horiz-adv-x="556" 
d="M39 -282q12 10 31 28t68 75t86.5 115t68.5 141.5t31 161.5q0 134 -94 134q-30 0 -56.5 -12.5t-43 -30.5t-28.5 -35.5t-17 -30.5l-5 -12v74q2 4 5 9.5t17 20.5t32 26.5t49.5 21t68.5 9.5q95 0 143.5 -53.5t48.5 -133.5q0 -60 -27.5 -124t-71.5 -118t-80 -90.5t-71 -65.5
h317l-40 -110h-432z" />
    <glyph glyph-name="two.lt" 
d="M117 0q13 10 35.5 28.5t87 79t123 124.5t130 160t123 190.5t87 211.5t35.5 227q0 150 -58.5 229.5t-170.5 79.5q-62 0 -117 -24.5t-88 -57t-58.5 -69.5t-35 -57.5t-10.5 -26.5v116q4 7 11.5 18.5t37 41.5t65.5 53t98.5 41.5t133.5 18.5q178 0 274.5 -104.5t96.5 -266.5
q0 -84 -29 -174.5t-68 -163t-102.5 -154.5t-107 -130.5t-108.5 -109t-80.5 -73.5t-48.5 -40h663l-63 -168h-856z" />
    <glyph glyph-name="two.op" horiz-adv-x="872" 
d="M49 0q11 6 29.5 18t72.5 50.5t103 80.5t108.5 105.5t102.5 128t72.5 146t29.5 161.5q0 221 -189 221q-58 0 -108.5 -23t-79.5 -51.5t-52.5 -65.5t-30.5 -54.5t-11 -29.5v116q3 7 10 17.5t33.5 38.5t58.5 49.5t87 39t117 17.5q150 0 236.5 -75.5t86.5 -207.5
q0 -68 -27.5 -137t-67.5 -123t-94 -106.5t-97.5 -85.5t-87.5 -62h481l-63 -168h-720z" />
    <glyph glyph-name="two.ot" 
d="M196 0q11 6 29.5 18t72.5 50.5t103 80.5t108.5 105.5t102.5 128t72.5 146t29.5 161.5q0 221 -189 221q-58 0 -108.5 -23t-79.5 -51.5t-52.5 -65.5t-30.5 -54.5t-11 -29.5v116q3 7 10 17.5t33.5 38.5t58.5 49.5t87 39t117 17.5q150 0 236.5 -75.5t86.5 -207.5
q0 -68 -27.5 -137t-67.5 -123t-94 -106.5t-97.5 -85.5t-87.5 -62h481l-63 -168h-720z" />
    <glyph glyph-name="uni2011.cap" horiz-adv-x="837" 
d="M109 652v54h619v-54h-619z" />
    <glyph glyph-name="uni2015.cap" horiz-adv-x="1716" 
d="M109 652v54h1498v-54h-1498z" />
    <glyph glyph-name="zero.numr" horiz-adv-x="657" 
d="M328 665q-102 0 -175 95t-73 259t73 259t175 95t175.5 -95t73.5 -259t-73.5 -259t-175.5 -95zM328 705q125 0 125 314t-125 314q-124 0 -124 -314t124 -314z" />
    <glyph glyph-name="zero.dnom" horiz-adv-x="657" 
d="M328 -15q-102 0 -175 95t-73 259t73 259t175 95t175.5 -95t73.5 -259t-73.5 -259t-175.5 -95zM328 25q125 0 125 314t-125 314q-124 0 -124 -314t124 -314z" />
    <glyph glyph-name="zero.inf" horiz-adv-x="657" 
d="M328 -297q-102 0 -175 95t-73 259t73 259t175 95t175.5 -95t73.5 -259t-73.5 -259t-175.5 -95zM328 -257q125 0 125 314t-125 314q-124 0 -124 -314t124 -314z" />
    <glyph glyph-name="zero.lt" 
d="M583 -26q-95 0 -182.5 48t-156.5 135.5t-110.5 223t-41.5 298.5t41.5 298.5t110.5 223t156.5 135.5t182.5 48t182.5 -48t157 -135.5t111 -223t41.5 -298.5t-41.5 -298.5t-111 -223t-157 -135.5t-182.5 -48zM583 28q152 0 230.5 167.5t78.5 483.5t-79 483.5t-230 167.5
t-229.5 -167.5t-78.5 -483.5q0 -317 78.5 -484t229.5 -167z" />
    <glyph glyph-name="zero.op" horiz-adv-x="1133" 
d="M87 469q0 107 38 200.5t103 158t153 101t185 36.5t185 -36.5t153 -101t103.5 -158t38.5 -200.5q0 -143 -65.5 -257t-174.5 -176t-240 -62q-97 0 -185 36.5t-153 100.5t-103 157.5t-38 200.5zM270 469q0 -198 73.5 -319.5t222.5 -121.5t223 121.5t74 319.5t-74 320
t-223 122t-222.5 -122t-73.5 -320z" />
    <glyph glyph-name="zero.ot" 
d="M104 469q0 107 38 200.5t103 158t153 101t185 36.5t185 -36.5t153 -101t103.5 -158t38.5 -200.5q0 -143 -65.5 -257t-174.5 -176t-240 -62q-97 0 -185 36.5t-153 100.5t-103 157.5t-38 200.5zM287 469q0 -198 73.5 -319.5t222.5 -121.5t223 121.5t74 319.5t-74 320
t-223 122t-222.5 -122t-73.5 -320z" />
    <glyph glyph-name="zero_slash.lt" 
d="M583 -26q-95 0 -182.5 48t-156.5 135.5t-110.5 223t-41.5 298.5t41.5 298.5t110.5 223t156.5 135.5t182.5 48t182.5 -48t157 -135.5t111 -223t41.5 -298.5t-41.5 -298.5t-111 -223t-157 -135.5t-182.5 -48zM363 175l412 1052q-74 103 -192 103q-151 0 -229.5 -167.5
t-78.5 -483.5q0 -337 88 -504zM390 131q74 -103 193 -103q152 0 230.5 167.5t78.5 483.5q0 336 -90 504z" />
    <glyph glyph-name="zero_slash.op" horiz-adv-x="1133" 
d="M87 469q0 107 38 200.5t103 158t153 101t185 36.5t185 -36.5t153 -101t103.5 -158t38.5 -200.5q0 -143 -65.5 -257t-174.5 -176t-240 -62q-97 0 -185 36.5t-153 100.5t-103 157.5t-38 200.5zM395 88l307 788q-60 35 -136 35q-149 0 -222.5 -122t-73.5 -320
q0 -272 125 -381zM428 64q59 -36 138 -36q149 0 223 121.5t74 319.5q0 271 -126 381z" />
    <glyph glyph-name="zero_slash.ot" 
d="M104 469q0 107 38 200.5t103 158t153 101t185 36.5t185 -36.5t153 -101t103.5 -158t38.5 -200.5q0 -143 -65.5 -257t-174.5 -176t-240 -62q-97 0 -185 36.5t-153 100.5t-103 157.5t-38 200.5zM412 88l307 788q-60 35 -136 35q-149 0 -222.5 -122t-73.5 -320
q0 -272 125 -381zM445 64q59 -36 138 -36q149 0 223 121.5t74 319.5q0 271 -126 381z" />
    <glyph glyph-name="idotaccent" horiz-adv-x="436" 
d="M218 1046q-40 0 -68.5 28t-28.5 68t28.5 68t68.5 28q39 0 67.5 -28t28.5 -68t-28.5 -68t-67.5 -28zM135 0v886h166v-886h-166z" />
  </font>
</defs>
</svg>
