<svg xmlns="http://www.w3.org/2000/svg" xmlns:xlink="http://www.w3.org/1999/xlink" width="500" zoomAndPan="magnify" viewBox="0 0 375 374.999991" height="500" preserveAspectRatio="xMidYMid meet" version="1.0"><defs><clipPath id="e00ac72b34"><path d="M 112.5 112.5 L 256 112.5 L 256 262.5 L 112.5 262.5 Z M 112.5 112.5 " clip-rule="nonzero"/></clipPath><clipPath id="b7fe516337"><path d="M 189 117 L 262.5 117 L 262.5 190 L 189 190 Z M 189 117 " clip-rule="nonzero"/></clipPath><clipPath id="e38a6a4189"><path d="M 139 149.648438 L 213 149.648438 L 213 217 L 139 217 Z M 139 149.648438 " clip-rule="nonzero"/></clipPath><clipPath id="c3d2e4de04"><path d="M 182.398438 170.398438 L 198.898438 170.398438 L 198.898438 199.648438 L 182.398438 199.648438 Z M 182.398438 170.398438 " clip-rule="nonzero"/></clipPath><clipPath id="b9c7ade058"><path d="M 182.398438 181 L 198.898438 181 L 198.898438 199.648438 L 182.398438 199.648438 Z M 182.398438 181 " clip-rule="nonzero"/></clipPath><clipPath id="99b294da81"><path d="M 182.398438 178 L 198.898438 178 L 198.898438 199.648438 L 182.398438 199.648438 Z M 182.398438 178 " clip-rule="nonzero"/></clipPath><clipPath id="8c0d4e9be3"><path d="M 182.398438 170.398438 L 198.898438 170.398438 L 198.898438 199.648438 L 182.398438 199.648438 Z M 182.398438 170.398438 " clip-rule="nonzero"/></clipPath><clipPath id="3b12ed84e5"><path d="M 179.363281 196.613281 L 184.613281 196.613281 L 184.613281 201.863281 L 179.363281 201.863281 Z M 179.363281 196.613281 " clip-rule="nonzero"/></clipPath><clipPath id="bbcf3a226b"><path d="M 181.988281 196.613281 C 180.539062 196.613281 179.363281 197.789062 179.363281 199.238281 C 179.363281 200.6875 180.539062 201.863281 181.988281 201.863281 C 183.4375 201.863281 184.613281 200.6875 184.613281 199.238281 C 184.613281 197.789062 183.4375 196.613281 181.988281 196.613281 Z M 181.988281 196.613281 " clip-rule="nonzero"/></clipPath></defs><rect x="-37.5" width="450" fill="#ffffff" y="-37.499999" height="449.999989" fill-opacity="1"/><rect x="-37.5" width="450" fill="#ffffff" y="-37.499999" height="449.999989" fill-opacity="1"/><g clip-path="url(#e00ac72b34)"><path fill="#ae837e" d="M 181.820312 257.285156 C 180.210938 257.214844 178.621094 256.902344 177.039062 256.609375 C 175.472656 256.222656 173.902344 255.882812 172.367188 255.394531 C 171.855469 254.90625 171.28125 254.601562 170.660156 254.378906 C 170.050781 254.136719 169.402344 253.960938 168.738281 253.785156 C 167.574219 253.5 166.398438 253.074219 165.4375 252.136719 C 172.257812 254.519531 179.574219 255.828125 187.203125 255.828125 C 188.582031 255.828125 189.953125 255.769531 191.3125 255.6875 C 188.285156 257.097656 185.023438 257.527344 181.820312 257.285156 Z M 150.132812 244.824219 L 149.175781 244.304688 C 148.550781 243.945312 147.917969 243.578125 147.308594 243.179688 C 144.027344 240.925781 140.863281 238.445312 137.910156 235.699219 C 134.269531 232.351562 130.675781 228.714844 128.097656 224.371094 C 127.652344 223.582031 127.171875 222.816406 126.769531 222 L 125.570312 219.5625 C 124.851562 217.898438 124.136719 216.230469 123.566406 214.515625 C 122.402344 211.089844 121.488281 207.589844 120.894531 204.042969 C 120.824219 203.722656 121.121094 203.324219 121.699219 201.925781 C 123.484375 206.558594 124.175781 210.410156 125.761719 213.984375 C 125.855469 214.1875 125.949219 214.398438 126.042969 214.601562 C 131.28125 227.535156 140.503906 238.425781 152.1875 245.753906 L 151.113281 245.28125 Z M 120.230469 165.207031 C 120.125 165.078125 120.019531 164.882812 120.042969 164.742188 C 120.132812 164.269531 120.203125 163.765625 120.40625 163.332031 C 122.410156 159.09375 124.851562 155.097656 127.582031 151.445312 C 128.730469 152.011719 128.882812 152.648438 128.472656 153.210938 C 125.738281 157.070312 123.316406 161.191406 121.277344 165.800781 C 120.496094 165.367188 120.324219 165.316406 120.230469 165.207031 Z M 159.050781 120.164062 L 159.1875 120.488281 C 158.636719 120.707031 158.085938 120.910156 157.554688 121.164062 L 157.414062 120.839844 C 157.945312 120.589844 158.5 120.382812 159.050781 120.164062 Z M 253.949219 189.855469 C 253.667969 190.417969 253.394531 190.941406 253.128906 191.457031 C 253.148438 190.925781 253.171875 190.394531 253.171875 189.855469 C 253.171875 153.417969 223.632812 123.878906 187.203125 123.878906 C 186.550781 123.878906 185.917969 123.910156 185.277344 123.933594 C 185.21875 123.785156 185.164062 123.652344 185.113281 123.523438 C 186.1875 123.125 187.320312 123.207031 188.472656 123.371094 C 189.636719 123.511719 190.824219 123.621094 192.117188 123.292969 C 191.589844 122.589844 191.359375 122.011719 191.035156 121.941406 C 189.976562 121.714844 188.875 121.671875 187.785156 121.648438 C 184.515625 121.695312 181.242188 121.878906 178.011719 122.398438 C 174.78125 122.882812 171.574219 123.582031 168.457031 124.558594 C 168.019531 124.691406 167.597656 124.902344 167.195312 125.136719 C 166.585938 125.511719 166.457031 126.367188 166.71875 127.140625 C 158.5 129.820312 150.996094 134.070312 144.550781 139.539062 C 144.667969 139.414062 144.773438 139.285156 144.898438 139.167969 C 147.199219 136.957031 149.738281 134.988281 152.367188 133.140625 C 153.855469 132.121094 155.304688 131.007812 156.863281 130.054688 L 156.570312 129.511719 C 153.773438 130.621094 151.074219 132 148.425781 133.496094 L 148.242188 133.203125 C 152.953125 129.769531 158.132812 126.964844 163.589844 124.796875 C 162.746094 124.417969 162.019531 124.511719 161.371094 124.769531 C 153.328125 128.105469 145.898438 132.933594 139.765625 139.035156 C 136.878906 141.902344 133.863281 144.484375 130.632812 147.113281 C 130.867188 146.273438 131.269531 145.5625 131.78125 144.941406 C 134.226562 142.054688 137.101562 139.597656 139.707031 136.914062 C 141.9375 134.636719 144.476562 132.664062 146.988281 130.675781 C 147.621094 130.175781 148.265625 129.703125 148.890625 129.195312 C 149.515625 128.683594 150.136719 128.175781 150.769531 127.671875 C 151.394531 127.15625 152.011719 126.625 152.613281 126.058594 C 153.234375 125.523438 153.84375 124.960938 154.433594 124.363281 C 154.796875 124.015625 155.21875 123.691406 155.667969 123.476562 C 159.097656 121.667969 162.539062 119.8125 166.1875 118.308594 C 169.824219 116.785156 173.699219 115.71875 177.691406 115.585938 C 178.109375 115.574219 178.519531 115.375 179.644531 115.09375 C 178.082031 114.96875 176.675781 115.15625 175.371094 115.261719 C 174.066406 115.402344 172.84375 115.402344 171.5625 114.882812 C 175.769531 113.863281 180.078125 113.195312 184.414062 112.878906 C 183.421875 112.585938 182.425781 112.503906 181.441406 112.5 C 180.457031 112.503906 179.476562 112.539062 178.507812 112.714844 C 167.527344 114.257812 156.914062 118.183594 147.761719 124.183594 C 144.078125 126.613281 140.777344 129.558594 137.796875 132.71875 C 137.328125 133.222656 136.871094 133.753906 136.492188 134.34375 C 136.117188 134.9375 135.800781 135.5625 135.566406 136.199219 C 134.566406 138.929688 132.792969 140.8125 130.785156 142.679688 C 130.152344 143.25 129.554688 143.851562 128.941406 144.4375 C 128.332031 145.035156 127.722656 145.636719 127.203125 146.308594 C 124.808594 149.207031 122.679688 152.332031 120.765625 155.605469 C 119.785156 157.234375 118.945312 158.929688 118.082031 160.632812 C 117.308594 162.367188 116.515625 164.105469 115.875 165.902344 C 115.203125 167.59375 114.777344 169.371094 114.335938 171.140625 C 113.992188 172.925781 113.628906 174.710938 113.40625 176.515625 L 113.167969 178.3125 C 113.101562 178.914062 113.066406 179.515625 113.027344 180.121094 C 112.9375 181.320312 112.863281 182.527344 112.863281 183.726562 C 112.734375 187.5 112.960938 191.265625 113.421875 194.976562 C 113.855469 198.691406 114.648438 202.355469 115.652344 205.933594 C 115.746094 206.261719 115.875 206.570312 115.976562 206.894531 C 117.078125 210.265625 118.410156 213.53125 120.003906 216.65625 C 121.566406 219.789062 123.316406 222.796875 125.242188 225.679688 C 129.203125 231.730469 133.828125 237.378906 139.394531 241.910156 C 143.292969 245.089844 147.730469 247.539062 152.292969 249.390625 C 156.621094 251.125 159.714844 254.085938 163.390625 257.574219 C 162.359375 257.246094 161.457031 256.835938 160.566406 256.496094 C 160.125 256.320312 159.695312 256.152344 159.269531 255.980469 C 158.839844 255.800781 158.425781 255.625 158.011719 255.449219 C 156.949219 255.015625 155.863281 254.464844 154.753906 254.371094 C 152.636719 254.253906 150.875 253.300781 149.152344 252.246094 C 144.464844 249.273438 140.132812 245.765625 136.230469 241.851562 C 136.082031 241.699219 135.832031 241.65625 135.304688 241.367188 C 135.996094 242.148438 136.511719 242.582031 136.882812 243.128906 C 137.199219 243.570312 138.03125 243.886719 137.171875 245.011719 C 131.148438 239.257812 126.144531 232.554688 122.144531 225.328125 C 118.1875 218.0625 115.152344 210.324219 112.984375 202.195312 C 113.066406 203.046875 113.183594 203.910156 113.324219 204.757812 C 113.46875 205.605469 113.679688 206.449219 113.867188 207.292969 C 116.398438 218.390625 121.511719 228.925781 128.742188 237.742188 C 132.367188 242.136719 136.539062 246.078125 141.121094 249.4375 C 143.398438 251.128906 145.824219 252.628906 148.289062 254.015625 C 149.550781 254.660156 150.792969 255.335938 152.082031 255.921875 C 153.375 256.484375 154.648438 257.09375 155.980469 257.5625 C 159.421875 258.914062 162.960938 259.960938 166.53125 260.765625 C 170.097656 261.59375 173.726562 262.070312 177.34375 262.269531 C 181.875 262.507812 186.429688 262.257812 190.765625 261.253906 C 194.390625 260.394531 197.894531 259.328125 201.300781 258.125 C 204.703125 256.882812 208 255.488281 211.234375 254.015625 C 216.105469 251.75 220.679688 248.980469 224.957031 245.878906 C 225.875 245.164062 226.933594 244.632812 227.960938 244.039062 C 228.953125 243.414062 229.96875 242.792969 230.738281 241.925781 C 233.925781 238.390625 237.742188 235.746094 241.042969 232.304688 C 240.234375 233.574219 239.304688 234.757812 238.382812 235.957031 C 237.917969 236.546875 237.414062 237.105469 236.914062 237.675781 C 236.421875 238.246094 235.921875 238.8125 235.382812 239.339844 C 234.835938 239.890625 234.253906 240.410156 233.660156 240.933594 C 233.039062 241.421875 232.414062 241.925781 231.765625 242.441406 C 231.144531 242.976562 230.476562 243.496094 229.828125 244.09375 C 229.175781 244.691406 228.542969 245.363281 227.890625 246.089844 C 229.230469 246.269531 229.972656 246.5625 230.394531 246.324219 C 231.605469 245.644531 232.882812 245 234.054688 244.222656 C 234.644531 243.839844 235.234375 243.453125 235.785156 243.023438 C 236.335938 242.578125 236.855469 242.113281 237.347656 241.617188 C 242.902344 235.910156 247.371094 229.191406 250.390625 221.941406 C 251.785156 218.636719 252.878906 215.21875 253.621094 211.742188 C 254.375 208.273438 254.910156 204.785156 255.121094 201.292969 C 255.203125 200.5 255.226562 199.710938 255.25 198.914062 C 255.273438 198.125 255.324219 197.339844 255.324219 196.550781 C 255.289062 194.96875 255.308594 193.402344 255.136719 191.839844 C 255.089844 191.347656 254.597656 190.882812 253.949219 189.855469 " fill-opacity="1" fill-rule="nonzero"/></g><g clip-path="url(#b7fe516337)"><path fill="#ae837e" d="M 242.265625 140.820312 C 241.417969 139.832031 240.484375 138.917969 239.597656 137.960938 L 239.835938 137.71875 C 240.730469 138.675781 241.667969 139.589844 242.523438 140.585938 Z M 262.089844 180.777344 C 261.78125 176.964844 261.085938 173.183594 260.113281 169.472656 C 259.652344 167.605469 259.042969 165.785156 258.433594 163.964844 C 257.75 162.171875 257.082031 160.371094 256.253906 158.636719 C 251.847656 148.957031 245.34375 140.199219 237.191406 133.445312 C 231.628906 128.789062 225.230469 124.957031 218.253906 123.304688 C 213.277344 122.128906 208.554688 120.71875 203.683594 119.566406 C 199.121094 118.476562 194.425781 118.042969 189.769531 117.972656 C 190.589844 118.121094 191.410156 118.261719 192.222656 118.40625 C 193.039062 118.546875 193.851562 118.644531 194.664062 118.757812 C 196.285156 119.042969 197.917969 119.195312 199.535156 119.507812 C 203.105469 120.085938 206.640625 120.921875 210.070312 122.101562 C 210.691406 122.308594 211.3125 122.542969 211.796875 122.941406 C 212.277344 123.351562 212.636719 123.921875 212.753906 124.757812 C 212.980469 126.425781 214.191406 126.707031 215.460938 127.128906 C 218.03125 127.894531 220.671875 128.785156 222.871094 130.316406 C 227.554688 133.679688 231.722656 137.484375 236.054688 141.199219 C 237.347656 142.351562 238.414062 143.757812 239.449219 145.144531 C 240.914062 147.019531 242.175781 149.027344 243.472656 150.992188 C 243.765625 151.414062 244.40625 151.605469 244.871094 151.929688 C 244.183594 149.496094 242.855469 147.546875 241.421875 145.707031 C 240.621094 144.699219 239.765625 143.742188 238.921875 142.769531 C 238.027344 141.84375 237.167969 140.890625 236.242188 139.992188 C 234.519531 138.300781 232.730469 136.679688 230.867188 135.140625 C 229.921875 134.351562 228.867188 133.683594 227.847656 132.980469 C 227.351562 132.625 226.871094 132.238281 226.433594 131.792969 C 225.980469 131.367188 225.566406 130.886719 225.214844 130.3125 C 228.832031 131.976562 232.363281 133.941406 235.675781 136.292969 C 238.96875 138.652344 242.050781 141.382812 244.757812 144.464844 C 247.417969 147.511719 249.753906 150.863281 251.691406 154.433594 C 253.628906 158.003906 255.21875 161.761719 256.511719 165.601562 C 256.824219 166.585938 257.152344 167.5625 257.375 168.566406 C 257.601562 169.570312 257.804688 170.574219 257.992188 171.578125 C 258.140625 172.59375 258.269531 173.609375 258.390625 174.625 C 258.515625 175.628906 258.542969 176.65625 258.621094 177.667969 C 258.835938 181.722656 258.738281 185.714844 258.742188 189.683594 C 260.394531 190.160156 261.3125 189.601562 261.511719 188.472656 C 261.722656 187.214844 261.972656 185.9375 262.054688 184.652344 C 262.167969 183.355469 262.238281 182.058594 262.089844 180.777344 " fill-opacity="1" fill-rule="nonzero"/></g><path fill="#ae837e" d="M 218.890625 119.882812 C 215.539062 117.832031 212.167969 115.867188 207.683594 115.09375 C 208.601562 115.8125 208.824219 116.125 209.128906 116.210938 C 212.453125 117.242188 215.738281 118.417969 218.890625 119.882812 " fill-opacity="1" fill-rule="nonzero"/><path fill="#ae837e" d="M 176.605469 119.757812 C 176.007812 119.847656 175.414062 119.964844 174.816406 120.0625 L 174.878906 120.425781 C 175.460938 120.324219 176.039062 120.214844 176.617188 120.128906 L 178.367188 119.90625 L 180.113281 119.6875 L 181.867188 119.554688 L 182.007812 119.171875 L 180.207031 119.3125 C 179.605469 119.367188 179.007812 119.460938 178.402344 119.53125 L 176.605469 119.757812 " fill-opacity="1" fill-rule="nonzero"/><path fill="#ae837e" d="M 196.566406 121.917969 C 196.246094 121.949219 195.933594 122.042969 195.617188 122.113281 C 196.011719 122.160156 196.410156 122.210938 196.894531 122.273438 C 196.730469 122.089844 196.644531 121.90625 196.566406 121.917969 " fill-opacity="1" fill-rule="nonzero"/><path fill="#ae837e" d="M 195.894531 123.9375 C 195.933594 124.054688 195.96875 124.265625 196.027344 124.269531 C 196.28125 124.292969 196.542969 124.253906 196.800781 124.242188 C 196.753906 124.125 196.71875 123.925781 196.660156 123.914062 C 196.410156 123.890625 196.144531 123.925781 195.894531 123.9375 " fill-opacity="1" fill-rule="nonzero"/><path fill="#ae837e" d="M 203.410156 123.421875 L 203.761719 123.441406 L 203.527344 123.199219 Z M 203.410156 123.421875 " fill-opacity="1" fill-rule="nonzero"/><path fill="#fff0d1" d="M 168.800781 164.183594 L 146.644531 164.183594 C 148.542969 164.53125 149.925781 165.417969 150.800781 166.839844 C 151.671875 168.261719 152.109375 169.597656 152.109375 170.84375 L 152.109375 209.917969 C 152.109375 211.164062 151.671875 212.5 150.800781 213.921875 C 149.925781 215.34375 148.542969 216.230469 146.644531 216.578125 L 168.800781 216.578125 C 166.90625 216.230469 165.519531 215.34375 164.648438 213.921875 C 163.773438 212.5 163.335938 211.164062 163.335938 209.917969 L 163.335938 170.84375 C 163.335938 169.597656 163.773438 168.261719 164.648438 166.839844 C 165.519531 165.417969 166.90625 164.53125 168.800781 164.183594 Z M 181.601562 170.84375 L 165.3125 190.269531 L 165.535156 190.3125 C 165.613281 190.316406 165.695312 190.320312 165.773438 190.328125 C 165.917969 190.339844 166.058594 190.355469 166.203125 190.375 L 166.242188 190.378906 L 166.242188 190.382812 C 168.007812 190.664062 169.746094 191.722656 171.457031 193.5625 C 173.480469 195.734375 175.140625 198.816406 176.4375 202.804688 C 177.832031 206.949219 179.53125 210.277344 181.527344 212.800781 C 183.523438 215.320312 186.441406 216.578125 190.285156 216.578125 L 197.167969 216.578125 C 195.621094 215.980469 194.511719 215.269531 193.839844 214.445312 C 193.164062 213.621094 192.253906 212.113281 191.105469 209.917969 L 189.683594 207 C 188.085938 203.554688 186.492188 200.671875 184.894531 198.351562 C 183.296875 196.03125 180.988281 193.988281 177.96875 192.214844 C 174.953125 190.445312 171.097656 189.558594 166.40625 189.558594 L 182.125 170.84375 C 183.121094 169.648438 184.71875 168.324219 186.914062 166.878906 C 189.109375 165.429688 191.179688 164.53125 193.128906 164.183594 L 181.675781 164.183594 C 183.074219 164.484375 183.773438 165.207031 183.773438 166.355469 C 183.773438 167.601562 183.046875 169.097656 181.601562 170.84375 Z M 181.601562 170.84375 " fill-opacity="1" fill-rule="nonzero"/><path fill="#fff0d1" d="M 197.925781 216.519531 L 199.460938 216.414062 C 202.15625 216.070312 203.417969 215.445312 205.765625 214.199219 C 208.109375 212.949219 209.980469 211.203125 211.378906 208.957031 C 212.777344 206.714844 213.476562 204.117188 213.476562 201.175781 C 213.476562 196.933594 212.152344 193.578125 209.507812 191.105469 C 206.863281 188.636719 203.269531 187.402344 198.730469 187.402344 L 197.714844 187.402344 L 197.710938 186.835938 C 200.28125 186.535156 202.445312 185.636719 204.191406 184.144531 C 206.390625 182.273438 207.488281 179.292969 207.488281 175.203125 C 207.488281 171.410156 206.402344 168.6875 204.230469 167.042969 C 202.460938 165.699219 201.128906 164.453125 198.445312 164.203125 L 197.546875 164.125 L 200.898438 164.125 C 206.289062 164.125 210.667969 165.035156 214.035156 166.855469 C 217.40625 168.675781 219.089844 171.335938 219.089844 174.828125 C 219.089844 177.371094 218.265625 179.503906 216.617188 181.226562 C 214.972656 182.949219 213.101562 184.222656 211.003906 185.042969 C 208.910156 185.867188 207.261719 186.277344 206.066406 186.277344 C 207.511719 186.277344 209.78125 186.789062 212.875 187.8125 C 215.96875 188.835938 218.777344 190.484375 221.296875 192.753906 C 223.816406 195.023438 225.078125 197.929688 225.078125 201.472656 C 225.078125 206.363281 222.917969 210.09375 218.601562 212.664062 C 214.285156 215.234375 208.386719 216.519531 200.898438 216.519531 Z M 197.925781 216.519531 " fill-opacity="1" fill-rule="evenodd"/><path stroke-linecap="butt" transform="matrix(0.0110507, 0, 0, 0.0110507, 91.771162, 149.649321)" fill-opacity="1" fill="#fff0d1" fill-rule="evenodd" stroke-linejoin="miter" d="M 9104.516396 2965.996644 L 9115.827855 2967.057094 L 9124.31145 2967.76406 L 9134.915942 2969.531475 L 9145.520435 2971.652374 L 9158.952793 2974.480239 L 9174.152566 2979.782485 L 9187.23144 2985.084731 L 9197.835933 2990.033495 L 9207.733459 2996.042707 L 9219.398401 3003.465852 L 9233.184242 3012.30293 L 9248.384015 3022.907422 L 9264.290754 3034.925847 L 9279.137044 3047.651239 L 9295.397266 3062.144046 L 9308.829624 3076.283369 L 9319.7876 3090.06921 L 9332.159508 3109.157297 L 9341.703551 3127.538418 L 9349.480179 3147.686954 L 9355.842875 3166.775041 L 9360.438155 3189.751442 L 9363.619503 3217.676606 L 9365.740402 3245.955254 L 9367.154334 3267.164239 L 9366.447368 3291.908056 L 9365.386919 3312.763558 L 9361.852088 3334.326027 L 9358.67074 3345.284002 L 9354.07546 3360.483775 L 9349.833662 3372.855684 L 9341.350068 3388.762423 L 9332.512991 3401.487814 L 9308.122658 3437.189606 L 9283.732324 3466.17522 L 9252.625812 3492.686452 L 9204.552112 3522.379032 L 9161.427174 3539.34622 L 9108.051227 3556.666892 L 9045.48472 3588.48037 L 9109.818643 3610.749805 L 9158.952793 3613.57767 L 9199.603348 3618.17295 L 9246.263116 3624.535645 L 9290.09502 3637.261037 L 9331.099059 3654.935191 L 9372.45658 3681.09294 L 9410.279271 3713.613385 L 9445.981064 3751.082592 L 9477.794542 3799.863259 L 9500.063977 3855.360105 L 9511.728919 3909.089535 L 9516.324199 3971.656042 L 9511.728919 4039.524796 L 9496.882629 4089.719395 L 9468.250498 4147.690622 L 9435.730054 4201.420052 L 9374.577479 4266.460941 L 9286.206706 4322.31127 L 9243.435252 4348.469018 L 9211.975256 4360.840927 L 9165.315488 4371.798903 L 9122.897517 4376.747666 L 9098.860667 4376.747666 L 9078.005165 4367.557105 L 9054.321797 4354.124748 L 9037.354609 4341.399357 L 9021.44787 4327.966999 L 9002.359783 4311.706777 L 8979.383382 4278.479366 L 8913.282043 4154.406801 L 8847.534188 4023.264574 L 8782.139816 3903.433805 L 8718.159377 3816.830448 L 8660.188149 3760.273153 L 8600.449507 3723.510911 L 8531.520304 3685.334737 L 8465.418966 3659.530472 L 8395.07583 3646.451597 L 8328.621009 3641.502834 L 8291.151801 3639.381935 L 8355.839207 3559.848239 L 8532.934236 3350.232766 L 8700.131739 3147.686954 L 8731.591734 3117.640891 L 8768.707459 3085.47393 L 8816.074193 3050.12562 L 8892.780024 3009.828548 L 8970.192821 2979.429002 L 9023.922251 2966.350128 L 9075.1773 2965.289678 Z M 9104.516396 2965.996644 " stroke="#440204" stroke-width="7.62" stroke-opacity="1" stroke-miterlimit="22.926001"/><g clip-path="url(#e38a6a4189)"><path stroke-linecap="butt" transform="matrix(0.0110507, 0, 0, 0.0110507, 91.771162, 149.649321)" fill="none" stroke-linejoin="miter" d="M 6725.221702 3650.339911 L 8311.65382 1744.005594 L 8470.367729 1532.976188 " stroke="#440204" stroke-width="75" stroke-opacity="1" stroke-miterlimit="22.926001"/></g><path stroke-linecap="butt" transform="matrix(0.478455, -0.577564, 0.577564, 0.478455, 164.272347, 190.771365)" fill="none" stroke-linejoin="miter" d="M 0.0012201 1.001848 L 43.894057 1.00052 " stroke="#fff0d1" stroke-width="2" stroke-opacity="1" stroke-miterlimit="4"/><g clip-path="url(#c3d2e4de04)"><path fill="#440204" d="M 166.015625 160.324219 L 140.527344 160.324219 C 142.707031 160.726562 144.300781 161.746094 145.304688 163.378906 C 146.308594 165.015625 146.8125 166.546875 146.8125 167.984375 L 146.8125 212.890625 C 146.8125 214.324219 146.308594 215.859375 145.304688 217.492188 C 144.300781 219.128906 142.707031 220.148438 140.527344 220.546875 L 166.015625 220.546875 C 163.835938 220.148438 162.242188 219.128906 161.238281 217.492188 C 160.230469 215.859375 159.730469 214.324219 159.730469 212.890625 L 159.730469 167.984375 C 159.730469 166.546875 160.230469 165.015625 161.238281 163.378906 C 162.242188 161.746094 163.835938 160.726562 166.015625 160.324219 Z M 180.742188 167.984375 L 162.003906 190.308594 L 162.257812 190.355469 C 162.351562 190.359375 162.441406 190.367188 162.53125 190.375 C 162.699219 190.386719 162.863281 190.40625 163.027344 190.429688 L 163.074219 190.433594 L 163.074219 190.4375 C 165.105469 190.761719 167.105469 191.980469 169.074219 194.09375 C 171.398438 196.589844 173.308594 200.128906 174.800781 204.71875 C 176.40625 209.480469 178.359375 213.308594 180.65625 216.203125 C 182.953125 219.101562 186.3125 220.546875 190.730469 220.546875 L 198.65625 220.546875 C 196.875 219.859375 195.597656 219.042969 194.824219 218.097656 C 194.046875 217.148438 193 215.414062 191.679688 212.890625 L 190.042969 209.535156 C 188.207031 205.578125 186.367188 202.265625 184.53125 199.597656 C 182.695312 196.933594 180.039062 194.582031 176.566406 192.542969 C 173.09375 190.507812 168.65625 189.492188 163.261719 189.492188 L 181.34375 167.984375 C 182.492188 166.605469 184.332031 165.085938 186.855469 163.421875 C 189.382812 161.757812 191.765625 160.726562 194.003906 160.324219 L 180.828125 160.324219 C 182.4375 160.667969 183.238281 161.5 183.238281 162.820312 C 183.238281 164.253906 182.40625 165.976562 180.742188 167.984375 Z M 180.742188 167.984375 " fill-opacity="1" fill-rule="nonzero"/></g><g clip-path="url(#b9c7ade058)"><path fill="#440204" d="M 193.148438 181.289062 L 193.292969 181.304688 L 193.402344 181.316406 L 193.667969 181.363281 L 193.839844 181.402344 L 194.035156 181.46875 L 194.199219 181.535156 L 194.335938 181.597656 L 194.457031 181.671875 L 194.609375 181.769531 L 194.785156 181.878906 L 194.976562 182.015625 L 195.175781 182.171875 L 195.367188 182.332031 L 195.574219 182.511719 L 195.746094 182.695312 L 195.882812 182.867188 L 196.042969 183.109375 L 196.160156 183.34375 L 196.265625 183.601562 L 196.34375 183.84375 L 196.402344 184.136719 L 196.445312 184.492188 L 196.46875 184.847656 L 196.488281 185.117188 L 196.476562 185.429688 L 196.464844 185.699219 L 196.417969 185.96875 L 196.382812 186.113281 L 196.324219 186.304688 L 196.269531 186.460938 L 196.160156 186.664062 L 196.046875 186.824219 L 195.738281 187.277344 L 195.425781 187.644531 L 195.03125 187.984375 L 194.421875 188.359375 L 193.871094 188.574219 L 193.191406 188.796875 L 192.398438 189.199219 L 193.21875 189.480469 L 193.839844 189.519531 L 194.359375 189.578125 L 194.953125 189.65625 L 195.507812 189.816406 L 196.027344 190.042969 L 196.554688 190.375 L 197.039062 190.789062 L 197.492188 191.265625 L 197.890625 191.882812 L 198.179688 192.589844 L 198.324219 193.269531 L 198.382812 194.066406 L 198.328125 194.929688 L 198.136719 195.566406 L 197.773438 196.300781 L 197.359375 196.984375 L 196.582031 197.8125 L 195.457031 198.519531 L 194.914062 198.851562 L 194.515625 199.007812 L 193.917969 199.148438 L 193.382812 199.214844 L 193.078125 199.210938 L 192.8125 199.097656 L 192.507812 198.925781 L 192.292969 198.765625 L 192.089844 198.59375 L 191.847656 198.382812 L 191.554688 197.964844 L 190.714844 196.386719 L 189.878906 194.71875 L 189.046875 193.199219 L 188.238281 192.101562 L 187.496094 191.382812 L 186.738281 190.914062 L 185.859375 190.429688 L 185.023438 190.101562 L 184.125 189.933594 L 183.28125 189.871094 L 182.808594 189.84375 L 183.628906 188.835938 L 185.882812 186.171875 L 188.007812 183.601562 L 188.40625 183.21875 L 188.878906 182.808594 L 189.480469 182.359375 L 190.457031 181.847656 L 191.441406 181.464844 L 192.121094 181.296875 L 192.773438 181.285156 Z M 193.148438 181.289062 " fill-opacity="1" fill-rule="evenodd"/></g><g clip-path="url(#99b294da81)"><path stroke-linecap="butt" transform="matrix(0.0127143, 0, 0, 0.0127016, 77.390318, 143.619819)" fill="none" stroke-linejoin="miter" d="M 9104.571719 2965.704801 L 9115.939346 2966.93496 L 9124.541874 2967.857579 L 9145.433729 2971.548054 L 9158.951989 2974.62345 L 9174.313647 2979.851623 L 9187.21744 2985.079797 L 9197.9706 2990.00043 L 9207.494828 2995.843683 L 9219.476922 3003.532173 L 9233.302414 3012.143282 L 9248.356839 3022.907168 L 9264.02573 3035.208752 L 9279.080155 3047.817876 L 9295.363513 3061.964698 L 9308.881772 3076.419059 L 9319.634933 3089.950802 L 9332.231493 3109.018257 L 9341.448488 3127.470633 L 9349.743783 3147.768247 L 9355.888446 3166.835703 L 9360.496944 3189.901173 L 9363.876509 3217.887277 L 9365.719908 3245.873381 L 9367.256073 3267.093614 L 9366.334374 3291.696782 L 9365.412674 3312.917015 L 9361.725876 3334.137248 L 9358.960778 3345.516213 L 9354.35228 3360.585654 L 9350.051016 3372.887238 L 9341.448488 3388.879297 L 9332.538726 3401.488421 L 9308.267306 3437.163015 L 9283.688653 3466.071738 L 9252.658103 3492.827684 L 9204.72973 3522.351486 L 9161.409854 3539.266164 L 9107.951284 3556.795921 L 9045.582951 3588.472501 L 9110.101916 3610.615352 L 9158.951989 3613.690748 L 9199.813999 3618.303842 L 9246.51344 3624.454634 L 9290.140549 3637.063758 L 9331.00256 3654.901055 L 9372.479037 3681.041922 L 9410.575949 3713.64112 L 9446.214996 3751.160951 L 9477.552779 3799.752209 L 9500.288033 3855.416877 L 9511.65566 3908.928768 L 9516.264157 3971.666848 L 9511.962893 4039.6331 L 9496.908468 4089.762056 L 9468.335784 4147.579502 L 9435.769069 4201.398932 L 9374.629669 4266.597329 L 9286.146518 4322.261997 L 9243.441109 4348.402863 L 9212.103326 4360.704448 L 9165.096652 4371.775873 L 9123.005709 4377.004047 L 9099.041522 4376.696507 L 9078.149667 4367.777858 L 9054.18548 4354.246116 L 9037.287656 4341.636992 L 9021.311532 4328.105249 L 9002.263075 4311.498111 L 8979.220588 4278.591373 L 8913.165458 4154.345373 L 8847.417561 4023.025962 L 8781.976897 3903.393056 L 8718.379633 3816.974427 L 8660.005332 3760.38714 L 8600.402098 3723.482387 L 8531.274636 3685.347476 L 8465.526739 3659.514149 L 8394.863112 3646.289946 L 8328.500749 3641.369313 L 8291.325536 3639.216535 L 8355.8445 3559.871317 L 8533.118035 3350.129307 L 8700.252876 3147.768247 L 8731.590659 3117.629366 L 8768.765871 3085.337708 L 8816.079779 3049.970653 L 8892.888069 3009.682965 L 8970.310826 2979.544084 L 9023.769397 2966.319881 L 9075.077335 2965.397262 Z M 9104.571719 2965.704801 " stroke="#440204" stroke-width="7.62" stroke-opacity="1" stroke-miterlimit="22.926001"/></g><g clip-path="url(#8c0d4e9be3)"><path stroke-linecap="butt" transform="matrix(0.0127143, 0, 0, 0.0127016, 77.390318, 143.619819)" fill="none" stroke-linejoin="miter" d="M 6725.358103 3650.287961 L 8311.602925 1743.849953 L 8470.135237 1533.185324 " stroke="#440204" stroke-width="75" stroke-opacity="1" stroke-miterlimit="22.926001"/></g><g clip-path="url(#3b12ed84e5)"><g clip-path="url(#bbcf3a226b)"><path fill="#fff0d1" d="M 179.363281 196.613281 L 184.613281 196.613281 L 184.613281 201.863281 L 179.363281 201.863281 Z M 179.363281 196.613281 " fill-opacity="1" fill-rule="nonzero"/></g></g></svg>